Titillium Math Sans Pro Zanichelli-Semibold.ufo
<glyph name="exclam" format="2">
  <advance width="246"/>
  <unicode hex="0021"/>
  <note>
exclam
</note>
  <outline>
    <contour>
      <point x="179" y="131" type="line"/>
      <point x="67" y="131" type="line"/>
      <point x="67" y="0" type="line"/>
      <point x="179" y="0" type="line"/>
    </contour>
    <contour>
      <point x="179" y="700" type="line"/>
      <point x="67" y="700" type="line"/>
      <point x="77" y="243" type="line"/>
      <point x="169" y="243" type="line"/>
    </contour>
  </outline>
</glyph>
<glyph name="quotedbl" format="2">
  <advance width="387"/>
  <unicode hex="0022"/>
  <note>
quotedbl
</note>
  <outline>
    <contour>
      <point x="160" y="730" type="line"/>
      <point x="56" y="730" type="line"/>
      <point x="62" y="494" type="line"/>
      <point x="154" y="494" type="line"/>
    </contour>
    <contour>
      <point x="331" y="730" type="line"/>
      <point x="227" y="730" type="line"/>
      <point x="233" y="494" type="line"/>
      <point x="325" y="494" type="line"/>
    </contour>
  </outline>
</glyph>
<glyph name="numbersign" format="2">
  <advance width="622"/>
  <unicode hex="0023"/>
  <note>
numbersign
</note>
  <outline>
    <contour>
      <point x="467" y="0" type="line"/>
      <point x="467" y="162" type="line"/>
      <point x="571" y="162" type="line"/>
      <point x="571" y="249" type="line"/>
      <point x="467" y="249" type="line"/>
      <point x="467" y="403" type="line"/>
      <point x="571" y="403" type="line"/>
      <point x="571" y="490" type="line"/>
      <point x="467" y="490" type="line"/>
      <point x="467" y="660" type="line"/>
      <point x="376" y="660" type="line"/>
      <point x="376" y="490" type="line"/>
      <point x="246" y="490" type="line"/>
      <point x="246" y="660" type="line"/>
      <point x="155" y="660" type="line"/>
      <point x="155" y="490" type="line"/>
      <point x="51" y="490" type="line"/>
      <point x="51" y="403" type="line"/>
      <point x="155" y="403" type="line"/>
      <point x="155" y="249" type="line"/>
      <point x="51" y="249" type="line"/>
      <point x="51" y="162" type="line"/>
      <point x="155" y="162" type="line"/>
      <point x="155" y="0" type="line"/>
      <point x="246" y="0" type="line"/>
      <point x="246" y="162" type="line"/>
      <point x="376" y="162" type="line"/>
      <point x="376" y="0" type="line"/>
    </contour>
    <contour>
      <point x="379" y="246" type="line"/>
      <point x="243" y="246" type="line"/>
      <point x="243" y="406" type="line"/>
      <point x="379" y="406" type="line"/>
    </contour>
  </outline>
</glyph>
<glyph name="dollar" format="2">
  <advance width="504"/>
  <unicode hex="0024"/>
  <note>
dollar
</note>
  <outline>
    <contour>
      <point x="442" y="556" type="curve"/>
      <point x="450" y="637" type="line"/>
      <point x="450" y="637"/>
      <point x="390" y="647"/>
      <point x="327" y="653" type="curve"/>
      <point x="347" y="804" type="line"/>
      <point x="285" y="804" type="line"/>
      <point x="267" y="657" type="line"/>
      <point x="250" y="657" type="line" smooth="yes"/>
      <point x="124" y="657"/>
      <point x="40" y="606"/>
      <point x="40" y="479" type="curve" smooth="yes"/>
      <point x="40" y="371"/>
      <point x="93" y="330"/>
      <point x="219" y="296" type="curve"/>
      <point x="193" y="92" type="line"/>
      <point x="129" y="95"/>
      <point x="56" y="106"/>
      <point x="56" y="106" type="curve"/>
      <point x="46" y="27" type="line"/>
      <point x="46" y="27"/>
      <point x="115" y="13"/>
      <point x="184" y="7" type="curve"/>
      <point x="167" y="-123" type="line"/>
      <point x="229" y="-123" type="line"/>
      <point x="244" y="3" type="line"/>
      <point x="253" y="3" type="line" smooth="yes"/>
      <point x="378" y="3"/>
      <point x="463" y="63"/>
      <point x="463" y="201" type="curve" smooth="yes"/>
      <point x="463" y="307"/>
      <point x="414" y="343"/>
      <point x="289" y="378" type="curve"/>
      <point x="314" y="568" type="line"/>
      <point x="371" y="564"/>
      <point x="442" y="556"/>
    </contour>
    <contour>
      <point x="138" y="485" type="curve" smooth="yes"/>
      <point x="138" y="540"/>
      <point x="174" y="570"/>
      <point x="247" y="570" type="curve" smooth="yes"/>
      <point x="253" y="570" type="line"/>
      <point x="232" y="394" type="line"/>
      <point x="161" y="415"/>
      <point x="138" y="432"/>
    </contour>
    <contour>
      <point x="258" y="90" type="curve" smooth="yes"/>
      <point x="253" y="90" type="line"/>
      <point x="277" y="281" type="line"/>
      <point x="340" y="263"/>
      <point x="364" y="242"/>
      <point x="364" y="194" type="curve" smooth="yes"/>
      <point x="364" y="128"/>
      <point x="327" y="90"/>
    </contour>
  </outline>
</glyph>
<glyph name="percent" format="2">
  <advance width="665"/>
  <unicode hex="0025"/>
  <note>
percent
</note>
  <outline>
    <contour>
      <point x="159" y="713" type="curve" smooth="yes"/>
      <point x="80" y="713"/>
      <point x="36" y="673"/>
      <point x="36" y="544" type="curve" smooth="yes"/>
      <point x="36" y="413"/>
      <point x="81" y="373"/>
      <point x="160" y="373" type="curve" smooth="yes"/>
      <point x="239" y="373"/>
      <point x="283" y="413"/>
      <point x="283" y="544" type="curve" smooth="yes"/>
      <point x="283" y="673"/>
      <point x="240" y="713"/>
    </contour>
    <contour>
      <point x="520" y="710" type="line"/>
      <point x="89" y="29" type="line"/>
      <point x="143" y="-10" type="line"/>
      <point x="577" y="671" type="line"/>
    </contour>
    <contour>
      <point x="120" y="544" type="curve" smooth="yes"/>
      <point x="120" y="623"/>
      <point x="133" y="640"/>
      <point x="159" y="640" type="curve" smooth="yes"/>
      <point x="188" y="640"/>
      <point x="199" y="622"/>
      <point x="199" y="544" type="curve" smooth="yes"/>
      <point x="199" y="462"/>
      <point x="186" y="446"/>
      <point x="160" y="446" type="curve" smooth="yes"/>
      <point x="134" y="446"/>
      <point x="120" y="462"/>
    </contour>
    <contour>
      <point x="382" y="158" type="curve" smooth="yes"/>
      <point x="382" y="27"/>
      <point x="427" y="-13"/>
      <point x="506" y="-13" type="curve" smooth="yes"/>
      <point x="585" y="-13"/>
      <point x="629" y="27"/>
      <point x="629" y="158" type="curve" smooth="yes"/>
      <point x="629" y="287"/>
      <point x="586" y="327"/>
      <point x="505" y="327" type="curve" smooth="yes"/>
      <point x="426" y="327"/>
      <point x="382" y="287"/>
    </contour>
    <contour>
      <point x="466" y="158" type="curve" smooth="yes"/>
      <point x="466" y="237"/>
      <point x="479" y="254"/>
      <point x="505" y="254" type="curve" smooth="yes"/>
      <point x="534" y="254"/>
      <point x="545" y="236"/>
      <point x="545" y="158" type="curve" smooth="yes"/>
      <point x="545" y="76"/>
      <point x="532" y="60"/>
      <point x="506" y="60" type="curve" smooth="yes"/>
      <point x="480" y="60"/>
      <point x="466" y="76"/>
    </contour>
  </outline>
</glyph>
<glyph name="ampersand" format="2">
  <advance width="684"/>
  <unicode hex="0026"/>
  <note>
ampersand
</note>
  <outline>
    <contour>
      <point x="315" y="710" type="curve" smooth="yes"/>
      <point x="197" y="710"/>
      <point x="126" y="655"/>
      <point x="126" y="551" type="curve" smooth="yes"/>
      <point x="126" y="498"/>
      <point x="134" y="465"/>
      <point x="187" y="405" type="curve"/>
      <point x="86" y="369"/>
      <point x="37" y="317"/>
      <point x="37" y="203" type="curve" smooth="yes"/>
      <point x="37" y="70"/>
      <point x="105" y="-10"/>
      <point x="291" y="-10" type="curve" smooth="yes"/>
      <point x="391" y="-10"/>
      <point x="460" y="28"/>
      <point x="505" y="91" type="curve"/>
      <point x="619" y="-9" type="line"/>
      <point x="680" y="59" type="line"/>
      <point x="559" y="170" type="line"/>
      <point x="579" y="217"/>
      <point x="599" y="305"/>
      <point x="607" y="376" type="curve"/>
      <point x="506" y="378" type="line"/>
      <point x="504" y="336"/>
      <point x="493" y="258"/>
      <point x="484" y="232" type="curve"/>
      <point x="358" y="358" type="line"/>
      <point x="461" y="415"/>
      <point x="502" y="457"/>
      <point x="502" y="550" type="curve" smooth="yes"/>
      <point x="502" y="652"/>
      <point x="437" y="710"/>
    </contour>
    <contour>
      <point x="143" y="211" type="curve" smooth="yes"/>
      <point x="143" y="281"/>
      <point x="174" y="318"/>
      <point x="242" y="343" type="curve"/>
      <point x="435" y="149" type="line"/>
      <point x="408" y="105"/>
      <point x="353" y="83"/>
      <point x="284" y="83" type="curve" smooth="yes"/>
      <point x="190" y="83"/>
      <point x="143" y="126"/>
    </contour>
    <contour>
      <point x="230" y="536" type="curve" smooth="yes"/>
      <point x="230" y="597"/>
      <point x="261" y="621"/>
      <point x="315" y="621" type="curve" smooth="yes"/>
      <point x="370" y="621"/>
      <point x="398" y="597"/>
      <point x="398" y="540" type="curve" smooth="yes"/>
      <point x="398" y="481"/>
      <point x="369" y="453"/>
      <point x="298" y="415" type="curve"/>
      <point x="275" y="438" type="line" smooth="yes"/>
      <point x="241" y="472"/>
      <point x="230" y="503"/>
    </contour>
  </outline>
</glyph>
<glyph name="quotesingle" format="2">
  <advance width="216"/>
  <unicode hex="0027"/>
  <note>
quotesingle
</note>
  <outline>
    <contour>
      <point x="160" y="730" type="line"/>
      <point x="56" y="730" type="line"/>
      <point x="62" y="494" type="line"/>
      <point x="154" y="494" type="line"/>
    </contour>
  </outline>
</glyph>
<glyph name="parenleft" format="2">
  <advance width="283"/>
  <unicode hex="0028"/>
  <note>
parenleft
</note>
  <outline>
    <contour>
      <point x="250" y="750" type="curve"/>
      <point x="156" y="750" type="line"/>
      <point x="156" y="750"/>
      <point x="46" y="528"/>
      <point x="46" y="301" type="curve" smooth="yes"/>
      <point x="46" y="74"/>
      <point x="156" y="-125"/>
      <point x="156" y="-125" type="curve"/>
      <point x="250" y="-125" type="line"/>
      <point x="250" y="-125"/>
      <point x="155" y="106"/>
      <point x="155" y="301" type="curve" smooth="yes"/>
      <point x="155" y="497"/>
      <point x="250" y="750"/>
    </contour>
  </outline>
</glyph>
<glyph name="parenright" format="2">
  <advance width="283"/>
  <unicode hex="0029"/>
  <note>
parenright
</note>
  <outline>
    <contour>
      <point x="127" y="750" type="curve"/>
      <point x="33" y="750" type="line"/>
      <point x="33" y="750"/>
      <point x="128" y="497"/>
      <point x="128" y="301" type="curve" smooth="yes"/>
      <point x="128" y="106"/>
      <point x="33" y="-125"/>
      <point x="33" y="-125" type="curve"/>
      <point x="127" y="-125" type="line"/>
      <point x="127" y="-125"/>
      <point x="237" y="74"/>
      <point x="237" y="301" type="curve" smooth="yes"/>
      <point x="237" y="528"/>
      <point x="127" y="750"/>
    </contour>
  </outline>
</glyph>
<glyph name="asterisk" format="2">
  <advance width="433"/>
  <unicode hex="002A"/>
  <note>
asterisk
</note>
  <outline>
    <contour>
      <point x="302" y="381" type="line"/>
      <point x="262" y="503" type="line"/>
      <point x="390" y="503" type="line"/>
      <point x="390" y="565" type="line"/>
      <point x="263" y="565" type="line"/>
      <point x="302" y="690" type="line"/>
      <point x="241" y="710" type="line"/>
      <point x="201" y="586" type="line"/>
      <point x="97" y="662" type="line"/>
      <point x="59" y="610" type="line"/>
      <point x="163" y="535" type="line"/>
      <point x="56" y="456" type="line"/>
      <point x="95" y="407" type="line"/>
      <point x="200" y="486" type="line"/>
      <point x="241" y="363" type="line"/>
    </contour>
  </outline>
</glyph>
<glyph name="plus" format="2">
  <advance width="560"/>
  <unicode hex="002B"/>
  <note>
plus
</note>
  <outline>
    <contour>
      <point x="233" y="327" type="line"/>
      <point x="53" y="327" type="line"/>
      <point x="53" y="236" type="line"/>
      <point x="233" y="236" type="line"/>
      <point x="233" y="46" type="line"/>
      <point x="327" y="46" type="line"/>
      <point x="327" y="236" type="line"/>
      <point x="507" y="236" type="line"/>
      <point x="507" y="327" type="line"/>
      <point x="327" y="327" type="line"/>
      <point x="327" y="516" type="line"/>
      <point x="233" y="516" type="line"/>
    </contour>
  </outline>
</glyph>
<glyph name="comma" format="2">
  <advance width="237"/>
  <unicode hex="002C"/>
  <note>
comma
</note>
  <outline>
    <contour>
      <point x="188" y="139" type="line"/>
      <point x="73" y="139" type="line"/>
      <point x="25" y="-123" type="line"/>
      <point x="109" y="-123" type="line"/>
    </contour>
  </outline>
</glyph>
<glyph name="hyphen" format="2">
  <advance width="415"/>
  <unicode hex="002D"/>
  <note>
hyphen
</note>
  <outline>
    <contour>
      <point x="365" y="328" type="line"/>
      <point x="50" y="328" type="line"/>
      <point x="50" y="234" type="line"/>
      <point x="365" y="234" type="line"/>
    </contour>
  </outline>
</glyph>
<glyph name="period" format="2">
  <advance width="232"/>
  <unicode hex="002E"/>
  <note>
period
</note>
  <outline>
    <contour>
      <point x="172" y="139" type="line"/>
      <point x="60" y="139" type="line"/>
      <point x="60" y="0" type="line"/>
      <point x="172" y="0" type="line"/>
    </contour>
  </outline>
</glyph>
<glyph name="slash" format="2">
  <advance width="408"/>
  <unicode hex="002F"/>
  <note>
slash
</note>
  <outline>
    <contour>
      <point x="394" y="678" type="line"/>
      <point x="303" y="714" type="line"/>
      <point x="14" y="11" type="line"/>
      <point x="105" y="-24" type="line"/>
    </contour>
  </outline>
</glyph>
<glyph name="zero" format="2">
  <advance width="605"/>
  <unicode hex="0030"/>
  <note>
zero
</note>
  <outline>
    <contour>
      <point x="302" y="676" type="curve" smooth="yes"/>
      <point x="145" y="676"/>
      <point x="55" y="589"/>
      <point x="55" y="322" type="curve" smooth="yes"/>
      <point x="55" y="68"/>
      <point x="146" y="-13"/>
      <point x="303" y="-13" type="curve" smooth="yes"/>
      <point x="460" y="-13"/>
      <point x="551" y="69"/>
      <point x="551" y="323" type="curve" smooth="yes"/>
      <point x="551" y="589"/>
      <point x="462" y="676"/>
    </contour>
    <contour>
      <point x="164" y="322" type="curve" smooth="yes"/>
      <point x="164" y="527"/>
      <point x="209" y="583"/>
      <point x="303" y="583" type="curve" smooth="yes"/>
      <point x="399" y="583"/>
      <point x="442" y="526"/>
      <point x="442" y="323" type="curve" smooth="yes"/>
      <point x="442" y="136"/>
      <point x="396" y="80"/>
      <point x="303" y="80" type="curve" smooth="yes"/>
      <point x="211" y="80"/>
      <point x="164" y="135"/>
    </contour>
  </outline>
</glyph>
<glyph name="one" format="2">
  <advance width="406"/>
  <unicode hex="0031"/>
  <note>
one
</note>
  <outline>
    <contour>
      <point x="326" y="665" type="line"/>
      <point x="228" y="665" type="line"/>
      <point x="14" y="522" type="line"/>
      <point x="61" y="442" type="line"/>
      <point x="220" y="545" type="line"/>
      <point x="220" y="0" type="line"/>
      <point x="326" y="0" type="line"/>
    </contour>
  </outline>
</glyph>
<glyph name="two" format="2">
  <advance width="518"/>
  <unicode hex="0032"/>
  <note>
two
</note>
  <outline>
    <contour>
      <point x="47" y="90" type="line"/>
      <point x="47" y="0" type="line"/>
      <point x="471" y="0" type="line"/>
      <point x="471" y="93" type="line"/>
      <point x="168" y="93" type="line"/>
      <point x="315" y="240" type="line" smooth="yes"/>
      <point x="412" y="338"/>
      <point x="457" y="394"/>
      <point x="457" y="493" type="curve" smooth="yes"/>
      <point x="457" y="617"/>
      <point x="390" y="676"/>
      <point x="245" y="676" type="curve" smooth="yes"/>
      <point x="148" y="676"/>
      <point x="51" y="647"/>
      <point x="51" y="647" type="curve"/>
      <point x="58" y="563" type="line"/>
      <point x="58" y="563"/>
      <point x="151" y="581"/>
      <point x="221" y="581" type="curve" smooth="yes"/>
      <point x="308" y="581"/>
      <point x="348" y="557"/>
      <point x="348" y="484" type="curve" smooth="yes"/>
      <point x="348" y="408"/>
      <point x="296" y="357"/>
      <point x="214" y="269" type="curve" smooth="yes"/>
    </contour>
  </outline>
</glyph>
<glyph name="three" format="2">
  <advance width="534"/>
  <unicode hex="0033"/>
  <note>
three
</note>
  <outline>
    <contour>
      <point x="53" y="644" type="curve"/>
      <point x="61" y="564" type="line"/>
      <point x="61" y="564"/>
      <point x="155" y="583"/>
      <point x="234" y="583" type="curve" smooth="yes"/>
      <point x="323" y="583"/>
      <point x="357" y="553"/>
      <point x="357" y="487" type="curve" smooth="yes"/>
      <point x="357" y="423"/>
      <point x="307" y="386"/>
      <point x="254" y="386" type="curve" smooth="yes"/>
      <point x="121" y="386" type="line"/>
      <point x="121" y="296" type="line"/>
      <point x="254" y="296" type="line" smooth="yes"/>
      <point x="325" y="296"/>
      <point x="371" y="265"/>
      <point x="371" y="190" type="curve" smooth="yes"/>
      <point x="371" y="116"/>
      <point x="333" y="81"/>
      <point x="244" y="80" type="curve" smooth="yes"/>
      <point x="164" y="80"/>
      <point x="52" y="100"/>
      <point x="52" y="100" type="curve"/>
      <point x="45" y="16" type="line"/>
      <point x="45" y="16"/>
      <point x="160" y="-13"/>
      <point x="261" y="-13" type="curve" smooth="yes"/>
      <point x="416" y="-13"/>
      <point x="480" y="60"/>
      <point x="480" y="192" type="curve" smooth="yes"/>
      <point x="480" y="295"/>
      <point x="440" y="321"/>
      <point x="378" y="348" type="curve"/>
      <point x="411" y="370"/>
      <point x="466" y="409"/>
      <point x="466" y="500" type="curve" smooth="yes"/>
      <point x="466" y="619"/>
      <point x="408" y="676"/>
      <point x="253" y="676" type="curve" smooth="yes"/>
      <point x="144" y="676"/>
      <point x="53" y="644"/>
    </contour>
  </outline>
</glyph>
<glyph name="four" format="2">
  <advance width="546"/>
  <unicode hex="0034"/>
  <note>
four
</note>
  <outline>
    <contour>
      <point x="36" y="119" type="line"/>
      <point x="337" y="119" type="line"/>
      <point x="337" y="0" type="line"/>
      <point x="443" y="0" type="line"/>
      <point x="443" y="119" type="line"/>
      <point x="517" y="119" type="line"/>
      <point x="517" y="212" type="line"/>
      <point x="443" y="212" type="line"/>
      <point x="443" y="408" type="line"/>
      <point x="337" y="408" type="line"/>
      <point x="337" y="212" type="line"/>
      <point x="144" y="212" type="line"/>
      <point x="329" y="665" type="line"/>
      <point x="212" y="665" type="line"/>
      <point x="36" y="201" type="line"/>
    </contour>
  </outline>
</glyph>
<glyph name="five" format="2">
  <advance width="549"/>
  <unicode hex="0035"/>
  <note>
five
</note>
  <outline>
    <contour>
      <point x="476" y="571" type="line"/>
      <point x="476" y="665" type="line"/>
      <point x="83" y="665" type="line"/>
      <point x="65" y="313" type="line"/>
      <point x="132" y="298" type="line"/>
      <point x="132" y="298"/>
      <point x="197" y="327"/>
      <point x="268" y="327" type="curve" smooth="yes"/>
      <point x="347" y="327"/>
      <point x="390" y="298"/>
      <point x="390" y="215" type="curve" smooth="yes"/>
      <point x="390" y="124"/>
      <point x="343" y="80"/>
      <point x="255" y="80" type="curve" smooth="yes"/>
      <point x="180" y="80"/>
      <point x="62" y="100"/>
      <point x="62" y="100" type="curve"/>
      <point x="50" y="19" type="line"/>
      <point x="50" y="19"/>
      <point x="175" y="-13"/>
      <point x="275" y="-13" type="curve" smooth="yes"/>
      <point x="418" y="-13"/>
      <point x="499" y="67"/>
      <point x="499" y="219" type="curve" smooth="yes"/>
      <point x="499" y="364"/>
      <point x="415" y="421"/>
      <point x="291" y="421" type="curve" smooth="yes"/>
      <point x="215" y="421"/>
      <point x="150" y="388"/>
      <point x="150" y="388" type="curve"/>
      <point x="168" y="571" type="line"/>
    </contour>
  </outline>
</glyph>
<glyph name="six" format="2">
  <advance width="579"/>
  <unicode hex="0036"/>
  <note>
six
</note>
  <outline>
    <contour>
      <point x="499" y="569" type="curve"/>
      <point x="509" y="653" type="line"/>
      <point x="509" y="653"/>
      <point x="405" y="676"/>
      <point x="318" y="676" type="curve" smooth="yes"/>
      <point x="159" y="676"/>
      <point x="53" y="580"/>
      <point x="53" y="330" type="curve" smooth="yes"/>
      <point x="53" y="114"/>
      <point x="127" y="-13"/>
      <point x="305" y="-13" type="curve" smooth="yes"/>
      <point x="444" y="-13"/>
      <point x="534" y="64"/>
      <point x="534" y="211" type="curve" smooth="yes"/>
      <point x="534" y="352"/>
      <point x="452" y="417"/>
      <point x="318" y="417" type="curve" smooth="yes"/>
      <point x="244" y="417"/>
      <point x="163" y="384"/>
      <point x="163" y="385" type="curve" smooth="yes"/>
      <point x="163" y="509"/>
      <point x="208" y="583"/>
      <point x="325" y="583" type="curve" smooth="yes"/>
      <point x="396" y="583"/>
      <point x="499" y="569"/>
    </contour>
    <contour>
      <point x="162" y="294" type="curve"/>
      <point x="162" y="294"/>
      <point x="235" y="324"/>
      <point x="300" y="324" type="curve" smooth="yes"/>
      <point x="378" y="324"/>
      <point x="424" y="286"/>
      <point x="424" y="208" type="curve" smooth="yes"/>
      <point x="424" y="127"/>
      <point x="379" y="80"/>
      <point x="304" y="80" type="curve" smooth="yes"/>
      <point x="198" y="80"/>
      <point x="163" y="175"/>
    </contour>
  </outline>
</glyph>
<glyph name="seven" format="2">
  <advance width="481"/>
  <unicode hex="0037"/>
  <note>
seven
</note>
  <outline>
    <contour>
      <point x="445" y="665" type="line"/>
      <point x="29" y="665" type="line"/>
      <point x="29" y="569" type="line"/>
      <point x="338" y="569" type="line"/>
      <point x="338" y="544" type="line"/>
      <point x="104" y="25" type="line"/>
      <point x="199" y="-14" type="line"/>
      <point x="445" y="541" type="line"/>
    </contour>
  </outline>
</glyph>
<glyph name="eight" format="2">
  <advance width="597"/>
  <unicode hex="0038"/>
  <note>
eight
</note>
  <outline>
    <contour>
      <point x="167" y="185" type="curve" smooth="yes"/>
      <point x="167" y="244"/>
      <point x="196" y="279"/>
      <point x="252" y="296" type="curve"/>
      <point x="345" y="296" type="line"/>
      <point x="401" y="279"/>
      <point x="431" y="244"/>
      <point x="431" y="185" type="curve" smooth="yes"/>
      <point x="431" y="117"/>
      <point x="384" y="83"/>
      <point x="299" y="83" type="curve" smooth="yes"/>
      <point x="213" y="83"/>
      <point x="167" y="117"/>
    </contour>
    <contour>
      <point x="54" y="179" type="curve" smooth="yes"/>
      <point x="54" y="59"/>
      <point x="134" y="-13"/>
      <point x="299" y="-13" type="curve" smooth="yes"/>
      <point x="463" y="-13"/>
      <point x="544" y="59"/>
      <point x="544" y="179" type="curve" smooth="yes"/>
      <point x="544" y="265"/>
      <point x="505" y="306"/>
      <point x="443" y="342" type="curve"/>
      <point x="502" y="380"/>
      <point x="533" y="419"/>
      <point x="533" y="493" type="curve" smooth="yes"/>
      <point x="533" y="608"/>
      <point x="445" y="676"/>
      <point x="299" y="676" type="curve" smooth="yes"/>
      <point x="152" y="676"/>
      <point x="65" y="608"/>
      <point x="65" y="493" type="curve" smooth="yes"/>
      <point x="65" y="419"/>
      <point x="95" y="380"/>
      <point x="155" y="342" type="curve"/>
      <point x="92" y="306"/>
      <point x="54" y="265"/>
    </contour>
    <contour>
      <point x="176" y="481" type="curve" smooth="yes"/>
      <point x="176" y="547"/>
      <point x="221" y="580"/>
      <point x="299" y="580" type="curve" smooth="yes"/>
      <point x="377" y="580"/>
      <point x="421" y="547"/>
      <point x="421" y="481" type="curve" smooth="yes"/>
      <point x="421" y="431"/>
      <point x="394" y="404"/>
      <point x="345" y="384" type="curve"/>
      <point x="252" y="384" type="line"/>
      <point x="203" y="404"/>
      <point x="176" y="431"/>
    </contour>
  </outline>
</glyph>
<glyph name="nine" format="2">
  <advance width="579"/>
  <unicode hex="0039"/>
  <note>
nine
</note>
  <outline>
    <contour>
      <point x="78" y="94" type="curve"/>
      <point x="68" y="10" type="line"/>
      <point x="68" y="10"/>
      <point x="171" y="-13"/>
      <point x="259" y="-13" type="curve" smooth="yes"/>
      <point x="421" y="-13"/>
      <point x="526" y="75"/>
      <point x="526" y="337" type="curve" smooth="yes"/>
      <point x="526" y="547"/>
      <point x="450" y="676"/>
      <point x="280" y="676" type="curve" smooth="yes"/>
      <point x="136" y="676"/>
      <point x="45" y="594"/>
      <point x="45" y="454" type="curve" smooth="yes"/>
      <point x="45" y="317"/>
      <point x="130" y="251"/>
      <point x="257" y="251" type="curve" smooth="yes"/>
      <point x="331" y="251"/>
      <point x="416" y="286"/>
      <point x="416" y="285" type="curve" smooth="yes"/>
      <point x="415" y="153"/>
      <point x="369" y="80"/>
      <point x="249" y="80" type="curve" smooth="yes"/>
      <point x="178" y="80"/>
      <point x="78" y="94"/>
    </contour>
    <contour>
      <point x="155" y="456" type="curve" smooth="yes"/>
      <point x="155" y="535"/>
      <point x="201" y="583"/>
      <point x="280" y="583" type="curve" smooth="yes"/>
      <point x="380" y="583"/>
      <point x="416" y="494"/>
      <point x="417" y="374" type="curve"/>
      <point x="417" y="374"/>
      <point x="337" y="344"/>
      <point x="275" y="344" type="curve" smooth="yes"/>
      <point x="198" y="344"/>
      <point x="155" y="379"/>
    </contour>
  </outline>
</glyph>
<glyph name="colon" format="2">
  <advance width="235"/>
  <unicode hex="003A"/>
  <note>
colon
</note>
  <outline>
    <contour>
      <point x="173" y="139" type="line"/>
      <point x="61" y="139" type="line"/>
      <point x="61" y="0" type="line"/>
      <point x="173" y="0" type="line"/>
    </contour>
    <contour>
      <point x="61" y="449" type="line"/>
      <point x="61" y="310" type="line"/>
      <point x="173" y="310" type="line"/>
      <point x="173" y="449" type="line"/>
    </contour>
  </outline>
</glyph>
<glyph name="semicolon" format="2">
  <advance width="260"/>
  <unicode hex="003B"/>
  <note>
semicolon
</note>
  <outline>
    <contour>
      <point x="197" y="139" type="line"/>
      <point x="82" y="139" type="line"/>
      <point x="34" y="-123" type="line"/>
      <point x="118" y="-123" type="line"/>
    </contour>
    <contour>
      <point x="82" y="449" type="line"/>
      <point x="82" y="310" type="line"/>
      <point x="194" y="310" type="line"/>
      <point x="194" y="449" type="line"/>
    </contour>
  </outline>
</glyph>
<glyph name="less" format="2">
  <advance width="560"/>
  <unicode hex="003C"/>
  <note>
less
</note>
  <outline>
    <contour>
      <point x="490" y="134" type="line"/>
      <point x="175" y="281" type="line"/>
      <point x="490" y="428" type="line"/>
      <point x="490" y="531" type="line"/>
      <point x="64" y="322" type="line"/>
      <point x="64" y="240" type="line"/>
      <point x="490" y="31" type="line"/>
    </contour>
  </outline>
</glyph>
<glyph name="equal" format="2">
  <advance width="560"/>
  <unicode hex="003D"/>
  <note>
equal
</note>
  <outline>
    <contour>
      <point x="68" y="424" type="line"/>
      <point x="68" y="333" type="line"/>
      <point x="492" y="333" type="line"/>
      <point x="492" y="424" type="line"/>
    </contour>
    <contour>
      <point x="68" y="229" type="line"/>
      <point x="68" y="138" type="line"/>
      <point x="492" y="138" type="line"/>
      <point x="492" y="229" type="line"/>
    </contour>
  </outline>
</glyph>
<glyph name="greater" format="2">
  <advance width="560"/>
  <unicode hex="003E"/>
  <note>
greater
</note>
  <outline>
    <contour>
      <point x="70" y="428" type="line"/>
      <point x="385" y="281" type="line"/>
      <point x="70" y="134" type="line"/>
      <point x="70" y="31" type="line"/>
      <point x="496" y="240" type="line"/>
      <point x="496" y="322" type="line"/>
      <point x="70" y="531" type="line"/>
    </contour>
  </outline>
</glyph>
<glyph name="question" format="2">
  <advance width="428"/>
  <unicode hex="003F"/>
  <note>
question
</note>
  <outline>
    <contour>
      <point x="397" y="536" type="curve" smooth="yes"/>
      <point x="397" y="671"/>
      <point x="316" y="710"/>
      <point x="199" y="710" type="curve" smooth="yes"/>
      <point x="93" y="710"/>
      <point x="25" y="678"/>
      <point x="25" y="678" type="curve"/>
      <point x="31" y="597" type="line"/>
      <point x="31" y="597"/>
      <point x="111" y="618"/>
      <point x="181" y="618" type="curve" smooth="yes"/>
      <point x="251" y="618"/>
      <point x="291" y="598"/>
      <point x="291" y="536" type="curve" smooth="yes"/>
      <point x="291" y="498"/>
      <point x="277" y="471"/>
      <point x="204" y="411" type="curve" smooth="yes"/>
      <point x="150" y="368"/>
      <point x="121" y="333"/>
      <point x="121" y="292" type="curve" smooth="yes"/>
      <point x="121" y="255"/>
      <point x="140" y="222"/>
      <point x="140" y="222" type="curve"/>
      <point x="227" y="222" type="line"/>
      <point x="227" y="255" type="line" smooth="yes"/>
      <point x="227" y="291"/>
      <point x="244" y="317"/>
      <point x="309" y="368" type="curve" smooth="yes"/>
      <point x="383" y="427"/>
      <point x="397" y="477"/>
    </contour>
    <contour>
      <point x="129" y="131" type="line"/>
      <point x="129" y="0" type="line"/>
      <point x="241" y="0" type="line"/>
      <point x="241" y="131" type="line"/>
    </contour>
  </outline>
</glyph>
<glyph name="at" format="2">
  <advance width="986"/>
  <unicode hex="0040"/>
  <note>
at
</note>
  <outline>
    <contour>
      <point x="938" y="294" type="curve" smooth="yes"/>
      <point x="938" y="305" type="line" smooth="yes"/>
      <point x="938" y="582"/>
      <point x="802" y="726"/>
      <point x="503" y="726" type="curve" smooth="yes"/>
      <point x="221" y="726"/>
      <point x="45" y="585"/>
      <point x="45" y="261" type="curve" smooth="yes"/>
      <point x="45" y="-100"/>
      <point x="207" y="-206"/>
      <point x="503" y="-206" type="curve" smooth="yes"/>
      <point x="558" y="-206"/>
      <point x="650" y="-196"/>
      <point x="650" y="-196" type="curve"/>
      <point x="646" y="-105" type="line"/>
      <point x="646" y="-105"/>
      <point x="550" y="-115"/>
      <point x="503" y="-115" type="curve" smooth="yes"/>
      <point x="251" y="-115"/>
      <point x="149" y="-9"/>
      <point x="149" y="261" type="curve" smooth="yes"/>
      <point x="149" y="511"/>
      <point x="268" y="635"/>
      <point x="503" y="635" type="curve" smooth="yes"/>
      <point x="737" y="635"/>
      <point x="834" y="536"/>
      <point x="834" y="306" type="curve" smooth="yes"/>
      <point x="834" y="294" type="line" smooth="yes"/>
      <point x="834" y="111"/>
      <point x="804" y="84"/>
      <point x="755" y="84" type="curve" smooth="yes"/>
      <point x="696" y="84"/>
      <point x="691" y="103"/>
      <point x="691" y="306" type="curve" smooth="yes"/>
      <point x="691" y="492" type="line"/>
      <point x="587" y="492" type="line"/>
      <point x="587" y="477" type="line"/>
      <point x="587" y="477"/>
      <point x="527" y="503"/>
      <point x="484" y="503" type="curve" smooth="yes"/>
      <point x="334" y="503"/>
      <point x="287" y="414"/>
      <point x="287" y="248" type="curve" smooth="yes"/>
      <point x="287" y="47"/>
      <point x="365" y="-3"/>
      <point x="468" y="-3" type="curve" smooth="yes"/>
      <point x="540" y="-3"/>
      <point x="629" y="55"/>
      <point x="629" y="55" type="curve"/>
      <point x="629" y="55"/>
      <point x="653" y="-3"/>
      <point x="755" y="-3" type="curve" smooth="yes"/>
      <point x="870" y="-3"/>
      <point x="938" y="61"/>
    </contour>
    <contour>
      <point x="392" y="247" type="curve" smooth="yes"/>
      <point x="392" y="358"/>
      <point x="411" y="411"/>
      <point x="504" y="411" type="curve" smooth="yes"/>
      <point x="536" y="411"/>
      <point x="587" y="396"/>
      <point x="587" y="396" type="curve"/>
      <point x="587" y="265" type="line" smooth="yes"/>
      <point x="587" y="207"/>
      <point x="591" y="145"/>
      <point x="595" y="124" type="curve"/>
      <point x="579" y="117"/>
      <point x="518" y="89"/>
      <point x="476" y="89" type="curve" smooth="yes"/>
      <point x="429" y="89"/>
      <point x="392" y="124"/>
    </contour>
  </outline>
</glyph>
<glyph name="B" format="2">
  <advance width="622"/>
  <unicode hex="0042"/>
  <note>
B
</note>
  <anchor x="307" y="0" name="bottom"/>
  <anchor x="307" y="350" name="center"/>
  <anchor x="307" y="705" name="top"/>
  <outline>
    <contour>
      <point x="342" y="705" type="curve" smooth="yes"/>
      <point x="79" y="705" type="line"/>
      <point x="79" y="0" type="line"/>
      <point x="353" y="0" type="line" smooth="yes"/>
      <point x="486" y="0"/>
      <point x="576" y="56"/>
      <point x="576" y="196" type="curve" smooth="yes"/>
      <point x="576" y="302"/>
      <point x="527" y="340"/>
      <point x="464" y="362" type="curve"/>
      <point x="520" y="390"/>
      <point x="552" y="434"/>
      <point x="552" y="519" type="curve" smooth="yes"/>
      <point x="552" y="652"/>
      <point x="478" y="705"/>
    </contour>
    <contour>
      <point x="349" y="92" type="curve" smooth="yes"/>
      <point x="186" y="92" type="line"/>
      <point x="186" y="313" type="line"/>
      <point x="346" y="313" type="line" smooth="yes"/>
      <point x="416" y="313"/>
      <point x="465" y="284"/>
      <point x="465" y="198" type="curve" smooth="yes"/>
      <point x="465" y="116"/>
      <point x="420" y="92"/>
    </contour>
    <contour>
      <point x="341" y="403" type="curve" smooth="yes"/>
      <point x="186" y="403" type="line"/>
      <point x="186" y="613" type="line"/>
      <point x="337" y="613" type="line" smooth="yes"/>
      <point x="408" y="613"/>
      <point x="443" y="584"/>
      <point x="443" y="509" type="curve" smooth="yes"/>
      <point x="443" y="437"/>
      <point x="412" y="403"/>
    </contour>
  </outline>
</glyph>
<glyph name="C" format="2">
  <advance width="543"/>
  <unicode hex="0043"/>
  <note>
C
</note>
  <anchor x="326" y="0" name="bottom"/>
  <anchor x="326" y="705" name="top"/>
  <outline>
    <contour>
      <point x="509" y="9" type="curve"/>
      <point x="506" y="98" type="line"/>
      <point x="462" y="90"/>
      <point x="380" y="82"/>
      <point x="326" y="82" type="curve" smooth="yes"/>
      <point x="186" y="82"/>
      <point x="163" y="160"/>
      <point x="163" y="344" type="curve" smooth="yes"/>
      <point x="163" y="568"/>
      <point x="195" y="625"/>
      <point x="320" y="625" type="curve" smooth="yes"/>
      <point x="375" y="625"/>
      <point x="455" y="614"/>
      <point x="501" y="606" type="curve"/>
      <point x="504" y="692" type="line"/>
      <point x="461" y="703"/>
      <point x="384" y="720"/>
      <point x="305" y="720" type="curve" smooth="yes"/>
      <point x="107" y="720"/>
      <point x="53" y="606"/>
      <point x="53" y="344" type="curve" smooth="yes"/>
      <point x="53" y="103"/>
      <point x="103" y="-13"/>
      <point x="310" y="-13" type="curve" smooth="yes"/>
      <point x="380" y="-13"/>
      <point x="461" y="-1"/>
    </contour>
  </outline>
</glyph>
<glyph name="D" format="2">
  <advance width="643"/>
  <unicode hex="0044"/>
  <note>
D
</note>
  <anchor x="301" y="0" name="bottom"/>
  <anchor x="130" y="354" name="center"/>
  <anchor x="301" y="705" name="top"/>
  <outline>
    <contour>
      <point x="79" y="705" type="line"/>
      <point x="79" y="0" type="line"/>
      <point x="318" y="0" type="line" smooth="yes"/>
      <point x="539" y="0"/>
      <point x="591" y="146"/>
      <point x="591" y="360" type="curve" smooth="yes"/>
      <point x="591" y="590"/>
      <point x="531" y="705"/>
      <point x="315" y="705" type="curve" smooth="yes"/>
    </contour>
    <contour>
      <point x="317" y="93" type="curve" smooth="yes"/>
      <point x="186" y="93" type="line"/>
      <point x="186" y="612" type="line"/>
      <point x="317" y="612" type="line" smooth="yes"/>
      <point x="447" y="612"/>
      <point x="481" y="532"/>
      <point x="481" y="360" type="curve" smooth="yes"/>
      <point x="481" y="194"/>
      <point x="447" y="93"/>
    </contour>
  </outline>
</glyph>
<glyph name="E" format="2">
  <advance width="555"/>
  <unicode hex="0045"/>
  <note>
E
</note>
  <anchor x="296" y="0" name="bottom"/>
  <anchor x="469" y="0" name="ogonek"/>
  <anchor x="296" y="705" name="top"/>
  <outline>
    <contour>
      <point x="509" y="705" type="line"/>
      <point x="79" y="705" type="line"/>
      <point x="79" y="0" type="line"/>
      <point x="509" y="0" type="line"/>
      <point x="509" y="93" type="line"/>
      <point x="186" y="93" type="line"/>
      <point x="186" y="311" type="line"/>
      <point x="449" y="311" type="line"/>
      <point x="449" y="403" type="line"/>
      <point x="186" y="403" type="line"/>
      <point x="186" y="612" type="line"/>
      <point x="509" y="612" type="line"/>
    </contour>
  </outline>
</glyph>
<glyph name="F" format="2">
  <advance width="528"/>
  <unicode hex="0046"/>
  <note>
F
</note>
  <anchor x="303" y="0" name="bottom"/>
  <anchor x="303" y="705" name="top"/>
  <outline>
    <contour>
      <point x="502" y="705" type="line"/>
      <point x="79" y="705" type="line"/>
      <point x="79" y="0" type="line"/>
      <point x="186" y="0" type="line"/>
      <point x="186" y="278" type="line"/>
      <point x="449" y="278" type="line"/>
      <point x="449" y="371" type="line"/>
      <point x="186" y="371" type="line"/>
      <point x="186" y="612" type="line"/>
      <point x="502" y="612" type="line"/>
    </contour>
  </outline>
</glyph>
<glyph name="G" format="2">
  <advance width="618"/>
  <unicode hex="0047"/>
  <note>
G
</note>
  <anchor x="343" y="0" name="bottom"/>
  <anchor x="343" y="705" name="top"/>
  <outline>
    <contour>
      <point x="557" y="359" type="line"/>
      <point x="360" y="359" type="line"/>
      <point x="360" y="266" type="line"/>
      <point x="452" y="266" type="line"/>
      <point x="452" y="90" type="line"/>
      <point x="439" y="87"/>
      <point x="377" y="80"/>
      <point x="332" y="80" type="curve" smooth="yes"/>
      <point x="189" y="80"/>
      <point x="163" y="154"/>
      <point x="163" y="345" type="curve" smooth="yes"/>
      <point x="163" y="555"/>
      <point x="185" y="625"/>
      <point x="331" y="625" type="curve" smooth="yes"/>
      <point x="416" y="625"/>
      <point x="551" y="605"/>
      <point x="551" y="605" type="curve"/>
      <point x="555" y="690" type="line"/>
      <point x="555" y="690"/>
      <point x="419" y="720"/>
      <point x="315" y="720" type="curve" smooth="yes"/>
      <point x="109" y="720"/>
      <point x="53" y="598"/>
      <point x="53" y="345" type="curve" smooth="yes"/>
      <point x="53" y="110"/>
      <point x="105" y="-13"/>
      <point x="322" y="-13" type="curve" smooth="yes"/>
      <point x="406" y="-13"/>
      <point x="546" y="8"/>
      <point x="557" y="11" type="curve"/>
    </contour>
  </outline>
</glyph>
<glyph name="H" format="2">
  <advance width="676"/>
  <unicode hex="0048"/>
  <note>
H
</note>
  <anchor x="338" y="0" name="bottom"/>
  <anchor x="338" y="557" name="center"/>
  <anchor x="338" y="705" name="top"/>
  <outline>
    <contour>
      <point x="186" y="310" type="line"/>
      <point x="490" y="310" type="line"/>
      <point x="490" y="0" type="line"/>
      <point x="597" y="0" type="line"/>
      <point x="597" y="705" type="line"/>
      <point x="490" y="705" type="line"/>
      <point x="490" y="405" type="line"/>
      <point x="186" y="405" type="line"/>
      <point x="186" y="705" type="line"/>
      <point x="79" y="705" type="line"/>
      <point x="79" y="0" type="line"/>
      <point x="186" y="0" type="line"/>
    </contour>
  </outline>
</glyph>
<glyph name="I" format="2">
  <advance width="264"/>
  <unicode hex="0049"/>
  <note>
I
</note>
  <anchor x="132" y="0" name="bottom"/>
  <anchor x="132" y="353" name="center"/>
  <anchor x="186" y="0" name="ogonek"/>
  <anchor x="132" y="705" name="top"/>
  <outline>
    <contour>
      <point x="186" y="705" type="line"/>
      <point x="79" y="705" type="line"/>
      <point x="79" y="0" type="line"/>
      <point x="186" y="0" type="line"/>
    </contour>
  </outline>
</glyph>
<glyph name="J" format="2">
  <advance width="301"/>
  <unicode hex="004A"/>
  <note>
J
</note>
  <anchor x="148" y="0" name="bottom"/>
  <anchor x="170" y="705" name="top"/>
  <outline>
    <contour>
      <point x="225" y="163" type="curve" smooth="yes"/>
      <point x="224" y="705" type="line"/>
      <point x="118" y="705" type="line"/>
      <point x="118" y="167" type="line" smooth="yes"/>
      <point x="118" y="91"/>
      <point x="94" y="81"/>
      <point x="23" y="81" type="curve"/>
      <point x="23" y="-13" type="line"/>
      <point x="163" y="-13"/>
      <point x="225" y="13"/>
    </contour>
  </outline>
</glyph>
<glyph name="K" format="2">
  <advance width="578"/>
  <unicode hex="004B"/>
  <note>
K
</note>
  <anchor x="302" y="0" name="bottom"/>
  <anchor x="295" y="705" name="top"/>
  <outline>
    <contour>
      <point x="186" y="293" type="line"/>
      <point x="284" y="300" type="line"/>
      <point x="441" y="0" type="line"/>
      <point x="563" y="0" type="line"/>
      <point x="377" y="352" type="line"/>
      <point x="555" y="705" type="line"/>
      <point x="437" y="705" type="line"/>
      <point x="284" y="393" type="line"/>
      <point x="186" y="386" type="line"/>
      <point x="186" y="705" type="line"/>
      <point x="79" y="705" type="line"/>
      <point x="79" y="0" type="line"/>
      <point x="186" y="0" type="line"/>
    </contour>
  </outline>
</glyph>
<glyph name="L" format="2">
  <advance width="486"/>
  <unicode hex="004C"/>
  <note>
L
</note>
  <anchor x="276" y="0" name="bottom"/>
  <anchor x="132" y="350" name="center"/>
  <anchor x="134" y="705" name="top"/>
  <anchor x="289" y="705" name="topright"/>
  <outline>
    <contour>
      <point x="79" y="705" type="line"/>
      <point x="79" y="0" type="line"/>
      <point x="472" y="0" type="line"/>
      <point x="472" y="95" type="line"/>
      <point x="186" y="95" type="line"/>
      <point x="186" y="705" type="line"/>
    </contour>
  </outline>
</glyph>
<glyph name="N" format="2">
  <advance width="703"/>
  <unicode hex="004E"/>
  <note>
N
</note>
  <anchor x="352" y="0" name="bottom"/>
  <anchor x="369" y="705" name="top"/>
  <outline>
    <contour>
      <point x="282" y="705" type="line"/>
      <point x="79" y="705" type="line"/>
      <point x="79" y="0" type="line"/>
      <point x="186" y="0" type="line"/>
      <point x="186" y="609" type="line"/>
      <point x="216" y="609" type="line"/>
      <point x="423" y="0" type="line"/>
      <point x="624" y="0" type="line"/>
      <point x="624" y="705" type="line"/>
      <point x="517" y="705" type="line"/>
      <point x="517" y="96" type="line"/>
      <point x="487" y="96" type="line"/>
    </contour>
  </outline>
</glyph>
<glyph name="P" format="2">
  <advance width="599"/>
  <unicode hex="0050"/>
  <note>
P
</note>
  <anchor x="302" y="0" name="bottom"/>
  <anchor x="302" y="705" name="top"/>
  <outline>
    <contour>
      <point x="186" y="0" type="line"/>
      <point x="186" y="221" type="line"/>
      <point x="335" y="221" type="line" smooth="yes"/>
      <point x="490" y="221"/>
      <point x="566" y="307"/>
      <point x="566" y="468" type="curve" smooth="yes"/>
      <point x="566" y="629"/>
      <point x="490" y="705"/>
      <point x="335" y="705" type="curve" smooth="yes"/>
      <point x="79" y="705" type="line"/>
      <point x="79" y="0" type="line"/>
    </contour>
    <contour>
      <point x="334" y="313" type="curve" smooth="yes"/>
      <point x="186" y="313" type="line"/>
      <point x="186" y="613" type="line"/>
      <point x="334" y="613" type="line" smooth="yes"/>
      <point x="419" y="613"/>
      <point x="457" y="571"/>
      <point x="457" y="468" type="curve" smooth="yes"/>
      <point x="457" y="364"/>
      <point x="419" y="313"/>
    </contour>
  </outline>
</glyph>
<glyph name="Q" format="2">
  <advance width="662"/>
  <unicode hex="0051"/>
  <note>
Q
</note>
  <outline>
    <contour>
      <point x="331" y="83" type="curve" smooth="yes"/>
      <point x="194" y="83"/>
      <point x="162" y="168"/>
      <point x="162" y="348" type="curve" smooth="yes"/>
      <point x="162" y="533"/>
      <point x="195" y="626"/>
      <point x="331" y="626" type="curve" smooth="yes"/>
      <point x="467" y="626"/>
      <point x="501" y="533"/>
      <point x="501" y="348" type="curve" smooth="yes"/>
      <point x="501" y="165"/>
      <point x="468" y="83"/>
    </contour>
    <contour>
      <point x="52" y="348" type="curve" smooth="yes"/>
      <point x="52" y="111"/>
      <point x="116" y="-11"/>
      <point x="331" y="-11" type="curve" smooth="yes"/>
      <point x="355" y="-11"/>
      <point x="377" y="-9"/>
      <point x="397" y="-6" type="curve"/>
      <point x="487" y="-148" type="line"/>
      <point x="576" y="-91" type="line"/>
      <point x="501" y="30" type="line"/>
      <point x="582" y="83"/>
      <point x="611" y="188"/>
      <point x="611" y="348" type="curve" smooth="yes"/>
      <point x="611" y="590"/>
      <point x="545" y="720"/>
      <point x="331" y="720" type="curve" smooth="yes"/>
      <point x="117" y="720"/>
      <point x="52" y="589"/>
    </contour>
  </outline>
</glyph>
<glyph name="R" format="2">
  <advance width="617"/>
  <unicode hex="0052"/>
  <note>
R
</note>
  <anchor x="311" y="0" name="bottom"/>
  <anchor x="306" y="705" name="top"/>
  <outline>
    <contour>
      <point x="459" y="481" type="curve" smooth="yes"/>
      <point x="459" y="402"/>
      <point x="427" y="349"/>
      <point x="340" y="349" type="curve" smooth="yes"/>
      <point x="186" y="349" type="line"/>
      <point x="186" y="613" type="line"/>
      <point x="339" y="613" type="line" smooth="yes"/>
      <point x="421" y="613"/>
      <point x="459" y="566"/>
    </contour>
    <contour>
      <point x="79" y="705" type="line"/>
      <point x="79" y="0" type="line"/>
      <point x="186" y="0" type="line"/>
      <point x="186" y="257" type="line"/>
      <point x="351" y="257" type="line"/>
      <point x="455" y="0" type="line"/>
      <point x="570" y="0" type="line"/>
      <point x="453" y="281" type="line"/>
      <point x="530" y="314"/>
      <point x="569" y="379"/>
      <point x="569" y="482" type="curve" smooth="yes"/>
      <point x="569" y="636"/>
      <point x="488" y="705"/>
      <point x="339" y="705" type="curve" smooth="yes"/>
    </contour>
  </outline>
</glyph>
<glyph name="T" format="2">
  <advance width="536"/>
  <unicode hex="0054"/>
  <note>
T
</note>
  <anchor x="267" y="0" name="bottom"/>
  <anchor x="267" y="335" name="center"/>
  <anchor x="267" y="705" name="top"/>
  <outline>
    <contour>
      <point x="522" y="705" type="line"/>
      <point x="14" y="705" type="line"/>
      <point x="14" y="610" type="line"/>
      <point x="214" y="610" type="line"/>
      <point x="214" y="0" type="line"/>
      <point x="321" y="0" type="line"/>
      <point x="321" y="610" type="line"/>
      <point x="522" y="610" type="line"/>
    </contour>
  </outline>
</glyph>
<glyph name="V" format="2">
  <advance width="600"/>
  <unicode hex="0056"/>
  <note>
V
</note>
  <anchor x="299" y="0" name="bottom"/>
  <anchor x="299" y="705" name="top"/>
  <outline>
    <contour>
      <point x="392" y="0" type="line"/>
      <point x="579" y="705" type="line"/>
      <point x="470" y="705" type="line"/>
      <point x="315" y="96" type="line"/>
      <point x="285" y="96" type="line"/>
      <point x="133" y="705" type="line"/>
      <point x="22" y="705" type="line"/>
      <point x="206" y="0" type="line"/>
    </contour>
  </outline>
</glyph>
<glyph name="X" format="2">
  <advance width="590"/>
  <unicode hex="0058"/>
  <note>
X
</note>
  <outline>
    <contour>
      <point x="238" y="353" type="line"/>
      <point x="17" y="0" type="line"/>
      <point x="135" y="0" type="line"/>
      <point x="291" y="270" type="line"/>
      <point x="447" y="0" type="line"/>
      <point x="567" y="0" type="line"/>
      <point x="356" y="350" type="line"/>
      <point x="575" y="705" type="line"/>
      <point x="459" y="705" type="line"/>
      <point x="302" y="432" type="line"/>
      <point x="141" y="705" type="line"/>
      <point x="20" y="705" type="line"/>
    </contour>
  </outline>
</glyph>
<glyph name="Y" format="2">
  <advance width="554"/>
  <unicode hex="0059"/>
  <note>
Y
</note>
  <anchor x="277" y="0" name="bottom"/>
  <anchor x="277" y="705" name="top"/>
  <outline>
    <contour>
      <point x="223" y="296" type="line"/>
      <point x="223" y="0" type="line"/>
      <point x="330" y="0" type="line"/>
      <point x="330" y="296" type="line"/>
      <point x="545" y="705" type="line"/>
      <point x="427" y="705" type="line"/>
      <point x="277" y="398" type="line"/>
      <point x="126" y="705" type="line"/>
      <point x="8" y="705" type="line"/>
    </contour>
  </outline>
</glyph>
<glyph name="Z" format="2">
  <advance width="539"/>
  <unicode hex="005A"/>
  <note>
Z
</note>
  <anchor x="273" y="0" name="bottom"/>
  <anchor x="227" y="350" name="center"/>
  <anchor x="268" y="705" name="top"/>
  <outline>
    <contour>
      <point x="492" y="705" type="line"/>
      <point x="45" y="705" type="line"/>
      <point x="45" y="612" type="line"/>
      <point x="372" y="612" type="line"/>
      <point x="372" y="587" type="line"/>
      <point x="45" y="113" type="line"/>
      <point x="45" y="0" type="line"/>
      <point x="497" y="0" type="line"/>
      <point x="497" y="94" type="line"/>
      <point x="165" y="94" type="line"/>
      <point x="165" y="119" type="line"/>
      <point x="492" y="593" type="line"/>
    </contour>
  </outline>
</glyph>
<glyph name="bracketleft" format="2">
  <advance width="340"/>
  <unicode hex="005B"/>
  <note>
bracketleft
</note>
  <outline>
    <contour>
      <point x="180" y="655" type="line"/>
      <point x="308" y="655" type="line"/>
      <point x="308" y="748" type="line"/>
      <point x="77" y="748" type="line"/>
      <point x="77" y="-123" type="line"/>
      <point x="308" y="-123" type="line"/>
      <point x="308" y="-30" type="line"/>
      <point x="180" y="-30" type="line"/>
    </contour>
  </outline>
</glyph>
<glyph name="backslash" format="2">
  <advance width="408"/>
  <unicode hex="005C"/>
  <note>
backslash
</note>
  <outline>
    <contour>
      <point x="394" y="11" type="line"/>
      <point x="105" y="714" type="line"/>
      <point x="14" y="678" type="line"/>
      <point x="303" y="-24" type="line"/>
    </contour>
  </outline>
</glyph>
<glyph name="bracketright" format="2">
  <advance width="340"/>
  <unicode hex="005D"/>
  <note>
bracketright
</note>
  <outline>
    <contour>
      <point x="32" y="748" type="line"/>
      <point x="32" y="655" type="line"/>
      <point x="160" y="655" type="line"/>
      <point x="160" y="-30" type="line"/>
      <point x="32" y="-30" type="line"/>
      <point x="32" y="-123" type="line"/>
      <point x="263" y="-123" type="line"/>
      <point x="263" y="748" type="line"/>
    </contour>
  </outline>
</glyph>
<glyph name="asciicircum" format="2">
  <advance width="560"/>
  <unicode hex="005E"/>
  <note>
asciicircum
</note>
  <outline>
    <contour>
      <point x="153" y="321" type="line"/>
      <point x="279" y="564" type="line"/>
      <point x="408" y="321" type="line"/>
      <point x="517" y="321" type="line"/>
      <point x="325" y="665" type="line"/>
      <point x="233" y="665" type="line"/>
      <point x="44" y="321" type="line"/>
    </contour>
  </outline>
</glyph>
<glyph name="grave" format="2">
  <advance width="373"/>
  <unicode hex="0060"/>
  <note>
grave
</note>
  <outline>
    <contour>
      <point x="299" y="578" type="line"/>
      <point x="323" y="646" type="line"/>
      <point x="82" y="746" type="line"/>
      <point x="50" y="658" type="line"/>
    </contour>
  </outline>
</glyph>
<glyph name="b" format="2">
  <advance width="538"/>
  <unicode hex="0062"/>
  <note>
b
</note>
  <anchor x="262" y="0" name="bottom"/>
  <anchor x="262" y="250" name="center"/>
  <anchor x="120" y="730" name="top"/>
  <outline>
    <contour>
      <point x="299" y="520" type="curve" smooth="yes"/>
      <point x="241" y="520"/>
      <point x="172" y="489"/>
      <point x="172" y="489" type="curve"/>
      <point x="172" y="730" type="line"/>
      <point x="68" y="730" type="line"/>
      <point x="68" y="-1" type="line"/>
      <point x="68" y="-1"/>
      <point x="194" y="-13"/>
      <point x="248" y="-13" type="curve" smooth="yes"/>
      <point x="427" y="-13"/>
      <point x="492" y="49"/>
      <point x="492" y="258" type="curve" smooth="yes"/>
      <point x="492" y="452"/>
      <point x="435" y="520"/>
    </contour>
    <contour>
      <point x="172" y="84" type="curve"/>
      <point x="172" y="406" type="line"/>
      <point x="172" y="406"/>
      <point x="231" y="427"/>
      <point x="286" y="427" type="curve" smooth="yes"/>
      <point x="357" y="427"/>
      <point x="386" y="382"/>
      <point x="386" y="258" type="curve" smooth="yes"/>
      <point x="386" y="131"/>
      <point x="363" y="80"/>
      <point x="248" y="80" type="curve" smooth="yes"/>
      <point x="226" y="80"/>
      <point x="172" y="84"/>
    </contour>
  </outline>
</glyph>
<glyph name="f" format="2">
  <advance width="344"/>
  <unicode hex="0066"/>
  <note>
f
</note>
  <anchor x="164" y="0" name="bottom"/>
  <anchor x="232" y="730" name="top"/>
  <outline>
    <contour>
      <point x="90" y="0" type="line"/>
      <point x="194" y="0" type="line"/>
      <point x="194" y="411" type="line"/>
      <point x="327" y="411" type="line"/>
      <point x="327" y="500" type="line"/>
      <point x="194" y="500" type="line"/>
      <point x="194" y="548" type="line" smooth="yes"/>
      <point x="194" y="621"/>
      <point x="205" y="647"/>
      <point x="261" y="647" type="curve" smooth="yes"/>
      <point x="283" y="647"/>
      <point x="336" y="645"/>
      <point x="336" y="645" type="curve"/>
      <point x="338" y="730" type="line"/>
      <point x="338" y="730"/>
      <point x="269" y="740"/>
      <point x="229" y="740" type="curve" smooth="yes"/>
      <point x="131" y="740"/>
      <point x="90" y="693"/>
      <point x="90" y="558" type="curve" smooth="yes"/>
      <point x="90" y="500" type="line"/>
      <point x="31" y="500" type="line"/>
      <point x="31" y="411" type="line"/>
      <point x="90" y="411" type="line"/>
    </contour>
  </outline>
</glyph>
<glyph name="i" format="2">
  <advance width="239"/>
  <unicode hex="0069"/>
  <note>
i
</note>
  <anchor x="120" y="0" name="bottom"/>
  <anchor x="172" y="0" name="ogonek"/>
  <anchor x="120" y="700" name="top"/>
  <outline>
    <contour>
      <point x="172" y="505" type="line"/>
      <point x="68" y="505" type="line"/>
      <point x="68" y="0" type="line"/>
      <point x="172" y="0" type="line"/>
    </contour>
    <contour>
      <point x="68" y="700" type="line"/>
      <point x="68" y="584" type="line"/>
      <point x="171" y="584" type="line"/>
      <point x="171" y="700" type="line"/>
    </contour>
  </outline>
</glyph>
<glyph name="j" format="2">
  <advance width="239"/>
  <unicode hex="006A"/>
  <note>
j
</note>
  <anchor x="107" y="-230" name="bottom"/>
  <anchor x="119" y="700" name="top"/>
  <outline>
    <contour>
      <point x="172" y="505" type="line"/>
      <point x="68" y="505" type="line"/>
      <point x="68" y="4" type="line" smooth="yes"/>
      <point x="68" y="-87"/>
      <point x="50" y="-107"/>
      <point x="-42" y="-163" type="curve"/>
      <point x="-1" y="-241" type="line"/>
      <point x="135" y="-172"/>
      <point x="172" y="-128"/>
      <point x="172" y="3" type="curve" smooth="yes"/>
    </contour>
    <contour>
      <point x="67" y="700" type="line"/>
      <point x="67" y="584" type="line"/>
      <point x="170" y="584" type="line"/>
      <point x="170" y="700" type="line"/>
    </contour>
  </outline>
</glyph>
<glyph name="k" format="2">
  <advance width="493"/>
  <unicode hex="006B"/>
  <note>
k
</note>
  <anchor x="265" y="0" name="bottom"/>
  <anchor x="120" y="730" name="top"/>
  <outline>
    <contour>
      <point x="68" y="730" type="line"/>
      <point x="68" y="0" type="line"/>
      <point x="172" y="0" type="line"/>
      <point x="172" y="227" type="line"/>
      <point x="239" y="233" type="line"/>
      <point x="365" y="0" type="line"/>
      <point x="482" y="0" type="line"/>
      <point x="328" y="285" type="line"/>
      <point x="475" y="505" type="line"/>
      <point x="358" y="505" type="line"/>
      <point x="237" y="323" type="line"/>
      <point x="172" y="317" type="line"/>
      <point x="172" y="730" type="line"/>
    </contour>
  </outline>
</glyph>
<glyph name="o" format="2">
  <advance width="533"/>
  <unicode hex="006F"/>
  <note>
o
</note>
  <anchor x="265" y="0" name="bottom"/>
  <anchor x="265" y="253" name="center"/>
  <anchor x="343" y="0" name="ogonek"/>
  <anchor x="265" y="505" name="top"/>
  <anchor x="509" y="505" name="topright"/>
  <outline>
    <contour>
      <point x="266" y="520" type="curve" smooth="yes"/>
      <point x="101" y="520"/>
      <point x="44" y="424"/>
      <point x="44" y="256" type="curve" smooth="yes"/>
      <point x="44" y="84"/>
      <point x="96" y="-11"/>
      <point x="266" y="-11" type="curve" smooth="yes"/>
      <point x="438" y="-11"/>
      <point x="489" y="84"/>
      <point x="489" y="256" type="curve" smooth="yes"/>
      <point x="489" y="424"/>
      <point x="433" y="520"/>
    </contour>
    <contour>
      <point x="150" y="256" type="curve" smooth="yes"/>
      <point x="150" y="380"/>
      <point x="176" y="431"/>
      <point x="266" y="431" type="curve" smooth="yes"/>
      <point x="358" y="431"/>
      <point x="383" y="380"/>
      <point x="383" y="256" type="curve" smooth="yes"/>
      <point x="383" y="132"/>
      <point x="364" y="78"/>
      <point x="266" y="78" type="curve" smooth="yes"/>
      <point x="170" y="78"/>
      <point x="150" y="132"/>
    </contour>
  </outline>
</glyph>
<glyph name="p" format="2">
  <advance width="537"/>
  <unicode hex="0070"/>
  <note>
p
</note>
  <anchor x="262" y="0" name="bottom"/>
  <anchor x="270" y="505" name="top"/>
  <outline>
    <contour>
      <point x="171" y="505" type="line"/>
      <point x="68" y="505" type="line"/>
      <point x="68" y="-230" type="line"/>
      <point x="172" y="-230" type="line"/>
      <point x="172" y="1" type="line"/>
      <point x="172" y="1"/>
      <point x="228" y="-11"/>
      <point x="276" y="-11" type="curve" smooth="yes"/>
      <point x="418" y="-11"/>
      <point x="492" y="51"/>
      <point x="492" y="253" type="curve" smooth="yes"/>
      <point x="492" y="443"/>
      <point x="427" y="517"/>
      <point x="312" y="517" type="curve" smooth="yes"/>
      <point x="237" y="517"/>
      <point x="171" y="473"/>
      <point x="171" y="473" type="curve"/>
    </contour>
    <contour>
      <point x="172" y="88" type="curve"/>
      <point x="172" y="393" type="line"/>
      <point x="172" y="393"/>
      <point x="230" y="425"/>
      <point x="286" y="425" type="curve" smooth="yes"/>
      <point x="348" y="425"/>
      <point x="386" y="386"/>
      <point x="386" y="253" type="curve" smooth="yes"/>
      <point x="386" y="134"/>
      <point x="358" y="79"/>
      <point x="263" y="79" type="curve" smooth="yes"/>
      <point x="227" y="79"/>
      <point x="172" y="88"/>
    </contour>
  </outline>
</glyph>
<glyph name="q" format="2">
  <advance width="537"/>
  <unicode hex="0071"/>
  <note>
q
</note>
  <outline>
    <contour>
      <point x="240" y="-13" type="curve" smooth="yes"/>
      <point x="298" y="-13"/>
      <point x="365" y="18"/>
      <point x="365" y="18" type="curve"/>
      <point x="365" y="-230" type="line"/>
      <point x="469" y="-230" type="line"/>
      <point x="469" y="508" type="line"/>
      <point x="469" y="508"/>
      <point x="342" y="520"/>
      <point x="287" y="520" type="curve" smooth="yes"/>
      <point x="112" y="520"/>
      <point x="45" y="456"/>
      <point x="45" y="245" type="curve" smooth="yes"/>
      <point x="45" y="55"/>
      <point x="104" y="-13"/>
    </contour>
    <contour>
      <point x="151" y="245" type="curve" smooth="yes"/>
      <point x="151" y="374"/>
      <point x="176" y="430"/>
      <point x="288" y="430" type="curve" smooth="yes"/>
      <point x="315" y="430"/>
      <point x="365" y="425"/>
      <point x="365" y="425" type="curve"/>
      <point x="365" y="102" type="line"/>
      <point x="365" y="102"/>
      <point x="308" y="80"/>
      <point x="253" y="80" type="curve" smooth="yes"/>
      <point x="183" y="80"/>
      <point x="151" y="126"/>
    </contour>
  </outline>
</glyph>
<glyph name="r" format="2">
  <advance width="359"/>
  <unicode hex="0072"/>
  <note>
r
</note>
  <anchor x="119" y="0" name="bottom"/>
  <anchor x="205" y="505" name="top"/>
  <outline>
    <contour>
      <point x="171" y="505" type="line"/>
      <point x="68" y="505" type="line"/>
      <point x="68" y="0" type="line"/>
      <point x="172" y="0" type="line"/>
      <point x="172" y="356" type="line"/>
      <point x="172" y="356"/>
      <point x="251" y="397"/>
      <point x="343" y="415" type="curve"/>
      <point x="343" y="520" type="line"/>
      <point x="256" y="503"/>
      <point x="171" y="444"/>
      <point x="171" y="444" type="curve"/>
    </contour>
  </outline>
</glyph>
<glyph name="t" format="2">
  <advance width="368"/>
  <unicode hex="0074"/>
  <note>
t
</note>
  <anchor x="233" y="0" name="bottom"/>
  <anchor x="144" y="260" name="center"/>
  <anchor x="145" y="653" name="top"/>
  <anchor x="235" y="730" name="topright"/>
  <outline>
    <contour>
      <point x="196" y="175" type="curve" smooth="yes"/>
      <point x="196" y="416" type="line"/>
      <point x="337" y="416" type="line"/>
      <point x="337" y="505" type="line"/>
      <point x="195" y="505" type="line"/>
      <point x="195" y="653" type="line"/>
      <point x="92" y="653" type="line"/>
      <point x="92" y="505" type="line"/>
      <point x="27" y="505" type="line"/>
      <point x="27" y="416" type="line"/>
      <point x="92" y="416" type="line"/>
      <point x="92" y="173" type="line" smooth="yes"/>
      <point x="92" y="29"/>
      <point x="127" y="-13"/>
      <point x="239" y="-13" type="curve" smooth="yes"/>
      <point x="274" y="-13"/>
      <point x="343" y="0"/>
      <point x="343" y="0" type="curve"/>
      <point x="338" y="84" type="line"/>
      <point x="338" y="84"/>
      <point x="281" y="80"/>
      <point x="253" y="80" type="curve" smooth="yes"/>
      <point x="199" y="80"/>
      <point x="196" y="107"/>
    </contour>
  </outline>
</glyph>
<glyph name="v" format="2">
  <advance width="494"/>
  <unicode hex="0076"/>
  <note>
v
</note>
  <anchor x="246" y="0" name="bottom"/>
  <anchor x="246" y="505" name="top"/>
  <outline>
    <contour>
      <point x="233" y="89" type="line"/>
      <point x="131" y="505" type="line"/>
      <point x="23" y="505" type="line"/>
      <point x="156" y="0" type="line"/>
      <point x="336" y="0" type="line"/>
      <point x="471" y="505" type="line"/>
      <point x="367" y="505" type="line"/>
      <point x="258" y="89" type="line"/>
    </contour>
  </outline>
</glyph>
<glyph name="w" format="2">
  <advance width="765"/>
  <unicode hex="0077"/>
  <note>
w
</note>
  <anchor x="382" y="0" name="bottom"/>
  <anchor x="382" y="505" name="top"/>
  <outline>
    <contour>
      <point x="209" y="89" type="line"/>
      <point x="130" y="505" type="line"/>
      <point x="27" y="505" type="line"/>
      <point x="132" y="0" type="line"/>
      <point x="302" y="0" type="line"/>
      <point x="383" y="360" type="line"/>
      <point x="464" y="0" type="line"/>
      <point x="633" y="0" type="line"/>
      <point x="739" y="505" type="line"/>
      <point x="636" y="505" type="line"/>
      <point x="557" y="89" type="line"/>
      <point x="532" y="89" type="line"/>
      <point x="435" y="495" type="line"/>
      <point x="331" y="495" type="line"/>
      <point x="234" y="89" type="line"/>
    </contour>
  </outline>
</glyph>
<glyph name="x" format="2">
  <advance width="463"/>
  <unicode hex="0078"/>
  <note>
x
</note>
  <outline>
    <contour>
      <point x="168" y="255" type="line"/>
      <point x="19" y="0" type="line"/>
      <point x="130" y="0" type="line"/>
      <point x="231" y="176" type="line"/>
      <point x="334" y="0" type="line"/>
      <point x="445" y="0" type="line"/>
      <point x="294" y="255" type="line"/>
      <point x="445" y="505" type="line"/>
      <point x="334" y="505" type="line"/>
      <point x="232" y="326" type="line"/>
      <point x="131" y="505" type="line"/>
      <point x="20" y="505" type="line"/>
    </contour>
  </outline>
</glyph>
<glyph name="y" format="2">
  <advance width="495"/>
  <unicode hex="0079"/>
  <note>
y
</note>
  <anchor x="246" y="0" name="bottom"/>
  <anchor x="246" y="505" name="top"/>
  <outline>
    <contour>
      <point x="236" y="89" type="line"/>
      <point x="124" y="505" type="line"/>
      <point x="22" y="505" type="line"/>
      <point x="158" y="0" type="line"/>
      <point x="238" y="0" type="line"/>
      <point x="175" y="-230" type="line"/>
      <point x="277" y="-230" type="line"/>
      <point x="472" y="505" type="line"/>
      <point x="370" y="505" type="line"/>
      <point x="261" y="89" type="line"/>
    </contour>
  </outline>
</glyph>
<glyph name="braceleft" format="2">
  <advance width="365"/>
  <unicode hex="007B"/>
  <note>
braceleft
</note>
  <outline>
    <contour>
      <point x="244" y="172" type="curve" smooth="yes"/>
      <point x="245" y="254"/>
      <point x="225" y="289"/>
      <point x="130" y="313" type="curve"/>
      <point x="225" y="337"/>
      <point x="244" y="368"/>
      <point x="244" y="451" type="curve" smooth="yes"/>
      <point x="244" y="484"/>
      <point x="237" y="538"/>
      <point x="237" y="571" type="curve" smooth="yes"/>
      <point x="237" y="626"/>
      <point x="255" y="660"/>
      <point x="332" y="665" type="curve"/>
      <point x="330" y="754" type="line"/>
      <point x="188" y="749"/>
      <point x="136" y="703"/>
      <point x="136" y="578" type="curve" smooth="yes"/>
      <point x="136" y="541"/>
      <point x="143" y="488"/>
      <point x="143" y="456" type="curve" smooth="yes"/>
      <point x="143" y="404"/>
      <point x="110" y="370"/>
      <point x="34" y="352" type="curve"/>
      <point x="34" y="275" type="line"/>
      <point x="109" y="254"/>
      <point x="143" y="217"/>
      <point x="143" y="165" type="curve" smooth="yes"/>
      <point x="143" y="136"/>
      <point x="136" y="84"/>
      <point x="136" y="45" type="curve" smooth="yes"/>
      <point x="136" y="-74"/>
      <point x="186" y="-124"/>
      <point x="330" y="-129" type="curve"/>
      <point x="332" y="-40" type="line"/>
      <point x="255" y="-35"/>
      <point x="237" y="1"/>
      <point x="237" y="56" type="curve" smooth="yes"/>
      <point x="237" y="91"/>
      <point x="243" y="136"/>
    </contour>
  </outline>
</glyph>
<glyph name="braceright" format="2">
  <advance width="365"/>
  <unicode hex="007D"/>
  <note>
braceright
</note>
  <outline>
    <contour>
      <point x="121" y="172" type="curve" smooth="yes"/>
      <point x="122" y="136"/>
      <point x="128" y="91"/>
      <point x="128" y="56" type="curve" smooth="yes"/>
      <point x="128" y="1"/>
      <point x="110" y="-35"/>
      <point x="33" y="-40" type="curve"/>
      <point x="35" y="-129" type="line"/>
      <point x="179" y="-124"/>
      <point x="229" y="-74"/>
      <point x="229" y="45" type="curve" smooth="yes"/>
      <point x="229" y="84"/>
      <point x="222" y="136"/>
      <point x="222" y="165" type="curve" smooth="yes"/>
      <point x="222" y="217"/>
      <point x="256" y="254"/>
      <point x="331" y="275" type="curve"/>
      <point x="331" y="352" type="line"/>
      <point x="255" y="370"/>
      <point x="222" y="404"/>
      <point x="222" y="456" type="curve" smooth="yes"/>
      <point x="222" y="488"/>
      <point x="229" y="541"/>
      <point x="229" y="578" type="curve" smooth="yes"/>
      <point x="229" y="703"/>
      <point x="177" y="749"/>
      <point x="35" y="754" type="curve"/>
      <point x="33" y="665" type="line"/>
      <point x="110" y="660"/>
      <point x="128" y="626"/>
      <point x="128" y="571" type="curve" smooth="yes"/>
      <point x="128" y="538"/>
      <point x="121" y="484"/>
      <point x="121" y="451" type="curve" smooth="yes"/>
      <point x="121" y="368"/>
      <point x="140" y="337"/>
      <point x="235" y="313" type="curve"/>
      <point x="140" y="289"/>
      <point x="120" y="254"/>
    </contour>
  </outline>
</glyph>
<glyph name="asciitilde" format="2">
  <advance width="560"/>
  <unicode hex="007E"/>
  <note>
asciitilde
</note>
  <outline>
    <contour>
      <point x="521" y="278" type="curve"/>
      <point x="486" y="343" type="line"/>
      <point x="486" y="343"/>
      <point x="422" y="301"/>
      <point x="384" y="301" type="curve" smooth="yes"/>
      <point x="337" y="301"/>
      <point x="237" y="354"/>
      <point x="182" y="354" type="curve" smooth="yes"/>
      <point x="126" y="354"/>
      <point x="39" y="283"/>
      <point x="39" y="283" type="curve"/>
      <point x="73" y="218" type="line"/>
      <point x="73" y="218"/>
      <point x="136" y="261"/>
      <point x="180" y="261" type="curve" smooth="yes"/>
      <point x="220" y="261"/>
      <point x="327" y="207"/>
      <point x="382" y="207" type="curve" smooth="yes"/>
      <point x="439" y="207"/>
      <point x="521" y="278"/>
    </contour>
  </outline>
</glyph>
<glyph name="exclamdown" format="2">
  <advance width="237"/>
  <unicode hex="00A1"/>
  <note>
exclamdown
</note>
  <outline>
    <contour>
      <point x="62" y="500" type="line"/>
      <point x="62" y="369" type="line"/>
      <point x="174" y="369" type="line"/>
      <point x="174" y="500" type="line"/>
    </contour>
    <contour>
      <point x="72" y="257" type="line"/>
      <point x="62" y="-200" type="line"/>
      <point x="174" y="-200" type="line"/>
      <point x="164" y="257" type="line"/>
    </contour>
  </outline>
</glyph>
<glyph name="cent" format="2">
  <advance width="460"/>
  <unicode hex="00A2"/>
  <note>
cent
</note>
  <outline>
    <contour>
      <point x="231" y="66" type="curve"/>
      <point x="231" y="-50" type="line"/>
      <point x="315" y="-50" type="line"/>
      <point x="315" y="69" type="line"/>
      <point x="357" y="72"/>
      <point x="407" y="80"/>
      <point x="407" y="80" type="curve"/>
      <point x="404" y="161" type="line"/>
      <point x="404" y="161"/>
      <point x="328" y="155"/>
      <point x="284" y="155" type="curve" smooth="yes"/>
      <point x="186" y="155"/>
      <point x="156" y="190"/>
      <point x="156" y="282" type="curve" smooth="yes"/>
      <point x="156" y="374"/>
      <point x="188" y="410"/>
      <point x="280" y="410" type="curve" smooth="yes"/>
      <point x="324" y="410"/>
      <point x="403" y="405"/>
      <point x="403" y="405" type="curve"/>
      <point x="407" y="485" type="line"/>
      <point x="407" y="485"/>
      <point x="358" y="495"/>
      <point x="315" y="497" type="curve"/>
      <point x="315" y="615" type="line"/>
      <point x="231" y="615" type="line"/>
      <point x="231" y="501" type="line"/>
      <point x="114" y="493"/>
      <point x="50" y="429"/>
      <point x="50" y="282" type="curve" smooth="yes"/>
      <point x="50" y="130"/>
      <point x="113" y="73"/>
    </contour>
  </outline>
</glyph>
<glyph name="sterling" format="2">
  <advance width="485"/>
  <unicode hex="00A3"/>
  <note>
sterling
</note>
  <outline>
    <contour>
      <point x="417" y="569" type="curve"/>
      <point x="420" y="651" type="line"/>
      <point x="420" y="651"/>
      <point x="341" y="671"/>
      <point x="277" y="671" type="curve" smooth="yes"/>
      <point x="172" y="671"/>
      <point x="120" y="636"/>
      <point x="120" y="482" type="curve" smooth="yes"/>
      <point x="120" y="425" type="line"/>
      <point x="55" y="425" type="line"/>
      <point x="55" y="337" type="line"/>
      <point x="120" y="337" type="line"/>
      <point x="120" y="89" type="line"/>
      <point x="41" y="89" type="line"/>
      <point x="41" y="0" type="line"/>
      <point x="370" y="0" type="line"/>
      <point x="451" y="18" type="line"/>
      <point x="434" y="105" type="line"/>
      <point x="361" y="89" type="line"/>
      <point x="222" y="89" type="line"/>
      <point x="222" y="337" type="line"/>
      <point x="384" y="337" type="line"/>
      <point x="384" y="425" type="line"/>
      <point x="222" y="425" type="line"/>
      <point x="222" y="477" type="line" smooth="yes"/>
      <point x="222" y="554"/>
      <point x="239" y="578"/>
      <point x="289" y="578" type="curve" smooth="yes"/>
      <point x="343" y="578"/>
      <point x="417" y="569"/>
    </contour>
  </outline>
</glyph>
<glyph name="currency" format="2">
  <advance width="562"/>
  <unicode hex="00A4"/>
  <note>
currency
</note>
  <outline>
    <contour>
      <point x="373" y="119" type="curve"/>
      <point x="444" y="47" type="line"/>
      <point x="516" y="118" type="line"/>
      <point x="444" y="189" type="line"/>
      <point x="460" y="216"/>
      <point x="470" y="248"/>
      <point x="470" y="282" type="curve" smooth="yes"/>
      <point x="470" y="315"/>
      <point x="460" y="347"/>
      <point x="444" y="374" type="curve"/>
      <point x="516" y="446" type="line"/>
      <point x="444" y="518" type="line"/>
      <point x="373" y="446" type="line"/>
      <point x="345" y="462"/>
      <point x="314" y="471"/>
      <point x="281" y="471" type="curve" smooth="yes"/>
      <point x="247" y="471"/>
      <point x="215" y="462"/>
      <point x="188" y="446" type="curve"/>
      <point x="117" y="518" type="line"/>
      <point x="45" y="446" type="line"/>
      <point x="116" y="374" type="line"/>
      <point x="101" y="347"/>
      <point x="92" y="315"/>
      <point x="92" y="282" type="curve" smooth="yes"/>
      <point x="92" y="248"/>
      <point x="101" y="216"/>
      <point x="116" y="189" type="curve"/>
      <point x="45" y="118" type="line"/>
      <point x="117" y="47" type="line"/>
      <point x="189" y="119" type="line"/>
      <point x="216" y="102"/>
      <point x="247" y="93"/>
      <point x="281" y="93" type="curve" smooth="yes"/>
      <point x="314" y="93"/>
      <point x="345" y="102"/>
    </contour>
    <contour>
      <point x="180" y="282" type="curve" smooth="yes"/>
      <point x="180" y="337"/>
      <point x="226" y="383"/>
      <point x="281" y="383" type="curve" smooth="yes"/>
      <point x="336" y="383"/>
      <point x="382" y="337"/>
      <point x="382" y="282" type="curve" smooth="yes"/>
      <point x="382" y="227"/>
      <point x="336" y="181"/>
      <point x="281" y="181" type="curve" smooth="yes"/>
      <point x="226" y="181"/>
      <point x="180" y="227"/>
    </contour>
  </outline>
</glyph>
<glyph name="yen" format="2">
  <advance width="591"/>
  <unicode hex="00A5"/>
  <note>
yen
</note>
  <outline>
    <contour>
      <point x="244" y="0" type="line"/>
      <point x="349" y="0" type="line"/>
      <point x="349" y="106" type="line"/>
      <point x="502" y="106" type="line"/>
      <point x="502" y="192" type="line"/>
      <point x="349" y="192" type="line"/>
      <point x="349" y="262" type="line"/>
      <point x="502" y="262" type="line"/>
      <point x="502" y="348" type="line"/>
      <point x="393" y="348" type="line"/>
      <point x="569" y="660" type="line"/>
      <point x="454" y="660" type="line"/>
      <point x="296" y="366" type="line"/>
      <point x="138" y="660" type="line"/>
      <point x="23" y="660" type="line"/>
      <point x="199" y="348" type="line"/>
      <point x="90" y="348" type="line"/>
      <point x="90" y="262" type="line"/>
      <point x="244" y="262" type="line"/>
      <point x="244" y="192" type="line"/>
      <point x="90" y="192" type="line"/>
      <point x="90" y="106" type="line"/>
      <point x="244" y="106" type="line"/>
    </contour>
  </outline>
</glyph>
<glyph name="brokenbar" format="2">
  <advance width="262"/>
  <unicode hex="00A6"/>
  <note>
brokenbar
</note>
  <outline>
    <contour>
      <point x="183" y="730" type="line"/>
      <point x="80" y="730" type="line"/>
      <point x="80" y="360" type="line"/>
      <point x="183" y="360" type="line"/>
    </contour>
    <contour>
      <point x="80" y="140" type="line"/>
      <point x="80" y="-230" type="line"/>
      <point x="183" y="-230" type="line"/>
      <point x="183" y="140" type="line"/>
    </contour>
  </outline>
</glyph>
<glyph name="section" format="2">
  <advance width="510"/>
  <unicode hex="00A7"/>
  <note>
section
</note>
  <outline>
    <contour>
      <point x="434" y="611" type="curve"/>
      <point x="439" y="697" type="line"/>
      <point x="439" y="697"/>
      <point x="337" y="718"/>
      <point x="268" y="718" type="curve" smooth="yes"/>
      <point x="136" y="718"/>
      <point x="62" y="663"/>
      <point x="62" y="546" type="curve" smooth="yes"/>
      <point x="62" y="486"/>
      <point x="77" y="456"/>
      <point x="106" y="435" type="curve"/>
      <point x="84" y="417"/>
      <point x="45" y="359"/>
      <point x="45" y="304" type="curve" smooth="yes"/>
      <point x="45" y="205"/>
      <point x="96" y="175"/>
      <point x="208" y="150" type="curve" smooth="yes"/>
      <point x="314" y="126"/>
      <point x="353" y="119"/>
      <point x="353" y="66" type="curve" smooth="yes"/>
      <point x="353" y="11"/>
      <point x="315" y="-13"/>
      <point x="240" y="-13" type="curve" smooth="yes"/>
      <point x="185" y="-13"/>
      <point x="75" y="2"/>
      <point x="75" y="2" type="curve"/>
      <point x="65" y="-84" type="line"/>
      <point x="65" y="-84"/>
      <point x="180" y="-104"/>
      <point x="247" y="-104" type="curve" smooth="yes"/>
      <point x="387" y="-104"/>
      <point x="453" y="-50"/>
      <point x="453" y="73" type="curve" smooth="yes"/>
      <point x="453" y="133"/>
      <point x="439" y="156"/>
      <point x="415" y="178" type="curve"/>
      <point x="435" y="207"/>
      <point x="462" y="263"/>
      <point x="462" y="315" type="curve" smooth="yes"/>
      <point x="462" y="414"/>
      <point x="417" y="439"/>
      <point x="304" y="464" type="curve" smooth="yes"/>
      <point x="205" y="485"/>
      <point x="164" y="496"/>
      <point x="164" y="552" type="curve" smooth="yes"/>
      <point x="164" y="603"/>
      <point x="191" y="627"/>
      <point x="274" y="627" type="curve" smooth="yes"/>
      <point x="322" y="627"/>
      <point x="434" y="611"/>
    </contour>
    <contour>
      <point x="150" y="322" type="curve" smooth="yes"/>
      <point x="150" y="352"/>
      <point x="170" y="391"/>
      <point x="175" y="399" type="curve"/>
      <point x="198" y="391"/>
      <point x="228" y="385"/>
      <point x="257" y="379" type="curve" smooth="yes"/>
      <point x="329" y="363"/>
      <point x="356" y="349"/>
      <point x="356" y="300" type="curve" smooth="yes"/>
      <point x="356" y="267"/>
      <point x="342" y="225"/>
      <point x="334" y="216" type="curve"/>
      <point x="310" y="226"/>
      <point x="277" y="235"/>
      <point x="238" y="244" type="curve" smooth="yes"/>
      <point x="174" y="258"/>
      <point x="150" y="271"/>
    </contour>
  </outline>
</glyph>
<glyph name="dieresis" format="2">
  <advance width="407"/>
  <unicode hex="00A8"/>
  <note>
dieresis
</note>
  <outline>
    <contour>
      <point x="149" y="715" type="line"/>
      <point x="50" y="715" type="line"/>
      <point x="50" y="606" type="line"/>
      <point x="149" y="606" type="line"/>
    </contour>
    <contour>
      <point x="258" y="715" type="line"/>
      <point x="258" y="606" type="line"/>
      <point x="357" y="606" type="line"/>
      <point x="357" y="715" type="line"/>
    </contour>
  </outline>
</glyph>
<glyph name="copyright" format="2">
  <advance width="641"/>
  <unicode hex="00A9"/>
  <note>
copyright
</note>
  <outline>
    <contour>
      <point x="320" y="688" type="curve" smooth="yes"/>
      <point x="444" y="688"/>
      <point x="536" y="586"/>
      <point x="536" y="462" type="curve" smooth="yes"/>
      <point x="536" y="338"/>
      <point x="444" y="235"/>
      <point x="320" y="235" type="curve" smooth="yes"/>
      <point x="196" y="235"/>
      <point x="105" y="338"/>
      <point x="105" y="462" type="curve" smooth="yes"/>
      <point x="105" y="586"/>
      <point x="196" y="688"/>
    </contour>
    <contour>
      <point x="50" y="462" type="curve" smooth="yes"/>
      <point x="50" y="304"/>
      <point x="167" y="183"/>
      <point x="320" y="183" type="curve" smooth="yes"/>
      <point x="474" y="183"/>
      <point x="591" y="304"/>
      <point x="591" y="462" type="curve" smooth="yes"/>
      <point x="591" y="618"/>
      <point x="476" y="740"/>
      <point x="320" y="740" type="curve" smooth="yes"/>
      <point x="165" y="740"/>
      <point x="50" y="618"/>
    </contour>
    <contour>
      <point x="203" y="466" type="curve" smooth="yes"/>
      <point x="203" y="352"/>
      <point x="237" y="309"/>
      <point x="325" y="309" type="curve" smooth="yes"/>
      <point x="373" y="309"/>
      <point x="406" y="324"/>
      <point x="406" y="324" type="curve"/>
      <point x="400" y="391" type="line"/>
      <point x="400" y="391"/>
      <point x="362" y="385"/>
      <point x="332" y="385" type="curve" smooth="yes"/>
      <point x="294" y="385"/>
      <point x="284" y="414"/>
      <point x="284" y="466" type="curve" smooth="yes"/>
      <point x="284" y="517"/>
      <point x="292" y="541"/>
      <point x="332" y="541" type="curve" smooth="yes"/>
      <point x="364" y="541"/>
      <point x="400" y="535"/>
      <point x="400" y="535" type="curve"/>
      <point x="406" y="604" type="line"/>
      <point x="406" y="604"/>
      <point x="372" y="616"/>
      <point x="327" y="616" type="curve" smooth="yes"/>
      <point x="236" y="616"/>
      <point x="203" y="572"/>
    </contour>
  </outline>
</glyph>
<glyph name="ordfeminine" format="2">
  <advance width="419"/>
  <unicode hex="00AA"/>
  <note>
ordfeminine
</note>
  <outline>
    <contour>
      <point x="336" y="479" type="curve"/>
      <point x="336" y="613" type="line" smooth="yes"/>
      <point x="336" y="698"/>
      <point x="288" y="720"/>
      <point x="206" y="720" type="curve" smooth="yes"/>
      <point x="145" y="720"/>
      <point x="76" y="699"/>
      <point x="76" y="699" type="curve"/>
      <point x="78" y="638" type="line"/>
      <point x="78" y="638"/>
      <point x="160" y="645"/>
      <point x="201" y="645" type="curve" smooth="yes"/>
      <point x="232" y="645"/>
      <point x="248" y="638"/>
      <point x="248" y="618" type="curve" smooth="yes"/>
      <point x="248" y="596" type="line"/>
      <point x="170" y="591" type="line" smooth="yes"/>
      <point x="95" y="587"/>
      <point x="59" y="558"/>
      <point x="59" y="498" type="curve" smooth="yes"/>
      <point x="59" y="436"/>
      <point x="93" y="397"/>
      <point x="156" y="397" type="curve" smooth="yes"/>
      <point x="205" y="397"/>
      <point x="254" y="426"/>
      <point x="254" y="426" type="curve"/>
      <point x="277" y="403"/>
      <point x="302" y="396"/>
      <point x="359" y="397" type="curve"/>
      <point x="359" y="461" type="line"/>
      <point x="350" y="464"/>
      <point x="340" y="467"/>
    </contour>
    <contour>
      <point x="68" y="343" type="line"/>
      <point x="68" y="269" type="line"/>
      <point x="358" y="269" type="line"/>
      <point x="358" y="343" type="line"/>
    </contour>
    <contour>
      <point x="148" y="500" type="curve" smooth="yes"/>
      <point x="148" y="523"/>
      <point x="160" y="532"/>
      <point x="185" y="534" type="curve" smooth="yes"/>
      <point x="248" y="538" type="line"/>
      <point x="248" y="484" type="line"/>
      <point x="248" y="484"/>
      <point x="210" y="467"/>
      <point x="182" y="467" type="curve" smooth="yes"/>
      <point x="160" y="467"/>
      <point x="148" y="477"/>
    </contour>
  </outline>
</glyph>
<glyph name="guillemotleft" format="2">
  <advance width="564"/>
  <unicode hex="00AB"/>
  <note>
guillemotleft
</note>
  <outline>
    <contour>
      <point x="310" y="130" type="line"/>
      <point x="130" y="281" type="line"/>
      <point x="310" y="432" type="line"/>
      <point x="261" y="503" type="line"/>
      <point x="45" y="322" type="line"/>
      <point x="45" y="240" type="line"/>
      <point x="261" y="59" type="line"/>
    </contour>
    <contour>
      <point x="262" y="322" type="line"/>
      <point x="262" y="241" type="line"/>
      <point x="473" y="64" type="line"/>
      <point x="521" y="133" type="line"/>
      <point x="345" y="281" type="line"/>
      <point x="521" y="430" type="line"/>
      <point x="473" y="499" type="line"/>
    </contour>
  </outline>
</glyph>
<glyph name="logicalnot" format="2">
  <advance width="560"/>
  <unicode hex="00AC"/>
  <note>
logicalnot
</note>
  <outline>
    <contour>
      <point x="493" y="134" type="line"/>
      <point x="493" y="372" type="line"/>
      <point x="62" y="372" type="line"/>
      <point x="62" y="281" type="line"/>
      <point x="399" y="281" type="line"/>
      <point x="399" y="134" type="line"/>
    </contour>
  </outline>
</glyph>
<glyph name="uni00AD" format="2">
  <advance width="0"/>
  <unicode hex="00AD"/>
  <note>
uni00AD
</note>
  <outline>
    <contour>
      <point x="157" y="328" type="line"/>
      <point x="-158" y="328" type="line"/>
      <point x="-158" y="234" type="line"/>
      <point x="157" y="234" type="line"/>
    </contour>
  </outline>
</glyph>
<glyph name="registered" format="2">
  <advance width="641"/>
  <unicode hex="00AE"/>
  <note>
registered
</note>
  <outline>
    <contour>
      <point x="287" y="410" type="line"/>
      <point x="325" y="410" type="line"/>
      <point x="366" y="316" type="line"/>
      <point x="445" y="316" type="line"/>
      <point x="396" y="422" type="line"/>
      <point x="431" y="442"/>
      <point x="443" y="473"/>
      <point x="443" y="511" type="curve" smooth="yes"/>
      <point x="443" y="589"/>
      <point x="398" y="610"/>
      <point x="330" y="610" type="curve" smooth="yes"/>
      <point x="210" y="610" type="line"/>
      <point x="210" y="316" type="line"/>
      <point x="287" y="316" type="line"/>
    </contour>
    <contour>
      <point x="50" y="462" type="curve" smooth="yes"/>
      <point x="50" y="304"/>
      <point x="167" y="183"/>
      <point x="320" y="183" type="curve" smooth="yes"/>
      <point x="474" y="183"/>
      <point x="591" y="304"/>
      <point x="591" y="462" type="curve" smooth="yes"/>
      <point x="591" y="618"/>
      <point x="476" y="740"/>
      <point x="320" y="740" type="curve" smooth="yes"/>
      <point x="165" y="740"/>
      <point x="50" y="618"/>
    </contour>
    <contour>
      <point x="105" y="462" type="curve" smooth="yes"/>
      <point x="105" y="586"/>
      <point x="196" y="688"/>
      <point x="320" y="688" type="curve" smooth="yes"/>
      <point x="444" y="688"/>
      <point x="536" y="586"/>
      <point x="536" y="462" type="curve" smooth="yes"/>
      <point x="536" y="338"/>
      <point x="444" y="235"/>
      <point x="320" y="235" type="curve" smooth="yes"/>
      <point x="196" y="235"/>
      <point x="105" y="338"/>
    </contour>
    <contour>
      <point x="326" y="466" type="curve" smooth="yes"/>
      <point x="286" y="466" type="line"/>
      <point x="286" y="551" type="line"/>
      <point x="320" y="551" type="line" smooth="yes"/>
      <point x="353" y="551"/>
      <point x="367" y="537"/>
      <point x="367" y="508" type="curve" smooth="yes"/>
      <point x="367" y="483"/>
      <point x="355" y="466"/>
    </contour>
  </outline>
</glyph>
<glyph name="macron" format="2">
  <advance width="381"/>
  <unicode hex="00AF"/>
  <note>
macron
</note>
  <outline>
    <contour>
      <point x="331" y="685" type="line"/>
      <point x="50" y="685" type="line"/>
      <point x="50" y="606" type="line"/>
      <point x="331" y="606" type="line"/>
    </contour>
  </outline>
</glyph>
<glyph name="degree" format="2">
  <advance width="404"/>
  <unicode hex="00B0"/>
  <note>
degree
</note>
  <outline>
    <contour>
      <point x="202" y="720" type="curve" smooth="yes"/>
      <point x="111" y="720"/>
      <point x="48" y="657"/>
      <point x="48" y="567" type="curve" smooth="yes"/>
      <point x="48" y="476"/>
      <point x="111" y="415"/>
      <point x="202" y="415" type="curve" smooth="yes"/>
      <point x="293" y="415"/>
      <point x="356" y="476"/>
      <point x="356" y="567" type="curve" smooth="yes"/>
      <point x="356" y="657"/>
      <point x="293" y="720"/>
    </contour>
    <contour>
      <point x="124" y="567" type="curve" smooth="yes"/>
      <point x="124" y="614"/>
      <point x="155" y="647"/>
      <point x="202" y="647" type="curve" smooth="yes"/>
      <point x="249" y="647"/>
      <point x="280" y="614"/>
      <point x="280" y="567" type="curve" smooth="yes"/>
      <point x="280" y="520"/>
      <point x="249" y="487"/>
      <point x="202" y="487" type="curve" smooth="yes"/>
      <point x="155" y="487"/>
      <point x="124" y="520"/>
    </contour>
  </outline>
</glyph>
<glyph name="plusminus" format="2">
  <advance width="560"/>
  <unicode hex="00B1"/>
  <note>
plusminus
</note>
  <outline>
    <contour>
      <point x="233" y="405" type="line"/>
      <point x="53" y="405" type="line"/>
      <point x="53" y="314" type="line"/>
      <point x="233" y="314" type="line"/>
      <point x="233" y="189" type="line"/>
      <point x="327" y="189" type="line"/>
      <point x="327" y="314" type="line"/>
      <point x="507" y="314" type="line"/>
      <point x="507" y="405" type="line"/>
      <point x="327" y="405" type="line"/>
      <point x="327" y="531" type="line"/>
      <point x="233" y="531" type="line"/>
    </contour>
    <contour>
      <point x="53" y="122" type="line"/>
      <point x="53" y="31" type="line"/>
      <point x="507" y="31" type="line"/>
      <point x="507" y="122" type="line"/>
    </contour>
  </outline>
</glyph>
<glyph name="uni00B2" format="2">
  <advance width="275"/>
  <unicode hex="00B2"/>
  <note>
uni00B2
</note>
  <outline>
    <contour>
      <point x="27" y="485" type="line"/>
      <point x="27" y="416" type="line"/>
      <point x="247" y="416" type="line"/>
      <point x="247" y="489" type="line"/>
      <point x="132" y="489" type="line"/>
      <point x="184" y="541" type="line" smooth="yes"/>
      <point x="222" y="581"/>
      <point x="245" y="602"/>
      <point x="245" y="650" type="curve" smooth="yes"/>
      <point x="245" y="714"/>
      <point x="216" y="743"/>
      <point x="140" y="743" type="curve" smooth="yes"/>
      <point x="95" y="743"/>
      <point x="30" y="733"/>
      <point x="30" y="733" type="curve"/>
      <point x="32" y="658" type="line"/>
      <point x="32" y="658"/>
      <point x="90" y="666"/>
      <point x="116" y="666" type="curve" smooth="yes"/>
      <point x="143" y="666"/>
      <point x="157" y="657"/>
      <point x="157" y="636" type="curve" smooth="yes"/>
      <point x="157" y="613"/>
      <point x="144" y="599"/>
      <point x="115" y="571" type="curve" smooth="yes"/>
    </contour>
  </outline>
</glyph>
<glyph name="uni00B3" format="2">
  <advance width="280"/>
  <unicode hex="00B3"/>
  <note>
uni00B3
</note>
  <outline>
    <contour>
      <point x="29" y="734" type="curve"/>
      <point x="33" y="662" type="line"/>
      <point x="33" y="662"/>
      <point x="82" y="669"/>
      <point x="122" y="669" type="curve" smooth="yes"/>
      <point x="146" y="669"/>
      <point x="158" y="661"/>
      <point x="158" y="642" type="curve" smooth="yes"/>
      <point x="158" y="623"/>
      <point x="144" y="610"/>
      <point x="129" y="610" type="curve" smooth="yes"/>
      <point x="64" y="610" type="line"/>
      <point x="64" y="546" type="line"/>
      <point x="130" y="546" type="line" smooth="yes"/>
      <point x="153" y="546"/>
      <point x="166" y="538"/>
      <point x="166" y="511" type="curve" smooth="yes"/>
      <point x="166" y="489"/>
      <point x="155" y="477"/>
      <point x="127" y="477" type="curve" smooth="yes"/>
      <point x="88" y="477"/>
      <point x="29" y="486"/>
      <point x="29" y="486" type="curve"/>
      <point x="25" y="413" type="line"/>
      <point x="25" y="413"/>
      <point x="92" y="403"/>
      <point x="141" y="403" type="curve" smooth="yes"/>
      <point x="211" y="403"/>
      <point x="253" y="431"/>
      <point x="253" y="501" type="curve" smooth="yes"/>
      <point x="253" y="547"/>
      <point x="237" y="572"/>
      <point x="200" y="582" type="curve"/>
      <point x="223" y="593"/>
      <point x="246" y="619"/>
      <point x="246" y="658" type="curve" smooth="yes"/>
      <point x="246" y="720"/>
      <point x="209" y="743"/>
      <point x="133" y="743" type="curve" smooth="yes"/>
      <point x="92" y="743"/>
      <point x="29" y="734"/>
    </contour>
  </outline>
</glyph>
<glyph name="acute" format="2">
  <advance width="373"/>
  <unicode hex="00B4"/>
  <note>
acute
</note>
  <outline>
    <contour>
      <point x="291" y="746" type="line"/>
      <point x="50" y="646" type="line"/>
      <point x="74" y="578" type="line"/>
      <point x="323" y="658" type="line"/>
    </contour>
  </outline>
</glyph>
<glyph name="uni00B5" format="2">
  <advance width="560"/>
  <unicode hex="00B5"/>
  <note>
uni00B5
</note>
  <outline>
    <contour>
      <point x="486" y="0" type="line"/>
      <point x="486" y="505" type="line"/>
      <point x="383" y="505" type="line"/>
      <point x="383" y="110" type="line"/>
      <point x="383" y="110"/>
      <point x="337" y="79"/>
      <point x="270" y="79" type="curve" smooth="yes"/>
      <point x="197" y="79"/>
      <point x="177" y="116"/>
      <point x="177" y="190" type="curve" smooth="yes"/>
      <point x="177" y="505" type="line"/>
      <point x="74" y="505" type="line"/>
      <point x="74" y="-230" type="line"/>
      <point x="174" y="-230" type="line"/>
      <point x="174" y="18" type="line"/>
      <point x="194" y="0"/>
      <point x="229" y="-10"/>
      <point x="261" y="-10" type="curve" smooth="yes"/>
      <point x="328" y="-10"/>
      <point x="385" y="32"/>
      <point x="385" y="32" type="curve"/>
      <point x="385" y="0" type="line"/>
    </contour>
  </outline>
</glyph>
<glyph name="paragraph" format="2">
  <advance width="602"/>
  <unicode hex="00B6"/>
  <note>
paragraph
</note>
  <outline>
    <contour>
      <point x="319" y="613" type="line"/>
      <point x="407" y="613" type="line"/>
      <point x="407" y="0" type="line"/>
      <point x="501" y="0" type="line"/>
      <point x="501" y="613" type="line"/>
      <point x="565" y="613" type="line"/>
      <point x="565" y="700" type="line"/>
      <point x="220" y="700" type="line" smooth="yes"/>
      <point x="110" y="700"/>
      <point x="25" y="621"/>
      <point x="25" y="509" type="curve" smooth="yes"/>
      <point x="25" y="397"/>
      <point x="108" y="319"/>
      <point x="218" y="319" type="curve" smooth="yes"/>
      <point x="225" y="319" type="line"/>
      <point x="225" y="0" type="line"/>
      <point x="319" y="0" type="line"/>
    </contour>
  </outline>
</glyph>
<glyph name="periodcentered" format="2">
  <advance width="235"/>
  <unicode hex="00B7"/>
  <note>
periodcentered
</note>
  <outline>
    <contour>
      <point x="174" y="350" type="line"/>
      <point x="62" y="350" type="line"/>
      <point x="62" y="211" type="line"/>
      <point x="174" y="211" type="line"/>
    </contour>
  </outline>
</glyph>
<glyph name="cedilla" format="2">
  <advance width="298"/>
  <unicode hex="00B8"/>
  <note>
cedilla
</note>
  <outline>
    <contour>
      <point x="250" y="-127" type="curve" smooth="yes"/>
      <point x="250" y="-58"/>
      <point x="210" y="-44"/>
      <point x="145" y="-43" type="curve"/>
      <point x="154" y="1" type="line"/>
      <point x="105" y="1" type="line"/>
      <point x="85" y="-99" type="line"/>
      <point x="120" y="-99" type="line" smooth="yes"/>
      <point x="147" y="-99"/>
      <point x="161" y="-106"/>
      <point x="161" y="-127" type="curve" smooth="yes"/>
      <point x="161" y="-149"/>
      <point x="147" y="-159"/>
      <point x="120" y="-159" type="curve" smooth="yes"/>
      <point x="98" y="-159"/>
      <point x="60" y="-157"/>
      <point x="55" y="-157" type="curve"/>
      <point x="52" y="-219" type="line"/>
      <point x="57" y="-219"/>
      <point x="105" y="-228"/>
      <point x="148" y="-228" type="curve" smooth="yes"/>
      <point x="210" y="-228"/>
      <point x="250" y="-197"/>
    </contour>
  </outline>
</glyph>
<glyph name="uni00B9" format="2">
  <advance width="227"/>
  <unicode hex="00B9"/>
  <note>
uni00B9
</note>
  <outline>
    <contour>
      <point x="187" y="734" type="line"/>
      <point x="110" y="734" type="line"/>
      <point x="7" y="663" type="line"/>
      <point x="41" y="605" type="line"/>
      <point x="103" y="647" type="line"/>
      <point x="103" y="416" type="line"/>
      <point x="187" y="416" type="line"/>
    </contour>
  </outline>
</glyph>
<glyph name="ordmasculine" format="2">
  <advance width="424"/>
  <unicode hex="00BA"/>
  <note>
ordmasculine
</note>
  <outline>
    <contour>
      <point x="213" y="720" type="curve" smooth="yes"/>
      <point x="112" y="720"/>
      <point x="59" y="671"/>
      <point x="59" y="561" type="curve" smooth="yes"/>
      <point x="59" y="449"/>
      <point x="112" y="397"/>
      <point x="213" y="397" type="curve" smooth="yes"/>
      <point x="313" y="397"/>
      <point x="365" y="449"/>
      <point x="365" y="561" type="curve" smooth="yes"/>
      <point x="365" y="671"/>
      <point x="313" y="720"/>
    </contour>
    <contour>
      <point x="69" y="343" type="line"/>
      <point x="69" y="269" type="line"/>
      <point x="355" y="269" type="line"/>
      <point x="355" y="343" type="line"/>
    </contour>
    <contour>
      <point x="153" y="560" type="curve" smooth="yes"/>
      <point x="153" y="615"/>
      <point x="167" y="639"/>
      <point x="213" y="639" type="curve" smooth="yes"/>
      <point x="258" y="639"/>
      <point x="270" y="615"/>
      <point x="270" y="560" type="curve" smooth="yes"/>
      <point x="270" y="505"/>
      <point x="258" y="478"/>
      <point x="213" y="478" type="curve" smooth="yes"/>
      <point x="167" y="478"/>
      <point x="153" y="505"/>
    </contour>
  </outline>
</glyph>
<glyph name="guillemotright" format="2">
  <advance width="564"/>
  <unicode hex="00BB"/>
  <note>
guillemotright
</note>
  <outline>
    <contour>
      <point x="254" y="432" type="line"/>
      <point x="434" y="281" type="line"/>
      <point x="254" y="130" type="line"/>
      <point x="303" y="59" type="line"/>
      <point x="519" y="240" type="line"/>
      <point x="519" y="322" type="line"/>
      <point x="303" y="503" type="line"/>
    </contour>
    <contour>
      <point x="220" y="281" type="line"/>
      <point x="43" y="133" type="line"/>
      <point x="91" y="64" type="line"/>
      <point x="303" y="241" type="line"/>
      <point x="303" y="322" type="line"/>
      <point x="91" y="499" type="line"/>
      <point x="43" y="430" type="line"/>
    </contour>
  </outline>
</glyph>
<glyph name="onequarter" format="2">
  <advance width="613"/>
  <unicode hex="00BC"/>
  <note>
onequarter
</note>
  <outline>
    <contour>
      <point x="207" y="704" type="line"/>
      <point x="130" y="704" type="line"/>
      <point x="27" y="633" type="line"/>
      <point x="61" y="575" type="line"/>
      <point x="123" y="617" type="line"/>
      <point x="123" y="386" type="line"/>
      <point x="207" y="386" type="line"/>
    </contour>
    <contour>
      <point x="478" y="710" type="line"/>
      <point x="47" y="29" type="line"/>
      <point x="101" y="-10" type="line"/>
      <point x="535" y="671" type="line"/>
    </contour>
    <contour>
      <point x="341" y="120" type="line"/>
      <point x="341" y="50" type="line"/>
      <point x="479" y="50" type="line"/>
      <point x="479" y="0" type="line"/>
      <point x="557" y="0" type="line"/>
      <point x="557" y="50" type="line"/>
      <point x="583" y="50" type="line"/>
      <point x="583" y="123" type="line"/>
      <point x="557" y="123" type="line"/>
      <point x="557" y="213" type="line"/>
      <point x="490" y="213" type="line"/>
      <point x="480" y="123" type="line"/>
      <point x="421" y="123" type="line"/>
      <point x="490" y="318" type="line"/>
      <point x="397" y="318" type="line"/>
    </contour>
  </outline>
</glyph>
<glyph name="onehalf" format="2">
  <advance width="610"/>
  <unicode hex="00BD"/>
  <note>
onehalf
</note>
  <outline>
    <contour>
      <point x="207" y="704" type="line"/>
      <point x="130" y="704" type="line"/>
      <point x="27" y="633" type="line"/>
      <point x="61" y="575" type="line"/>
      <point x="123" y="617" type="line"/>
      <point x="123" y="386" type="line"/>
      <point x="207" y="386" type="line"/>
    </contour>
    <contour>
      <point x="478" y="710" type="line"/>
      <point x="47" y="29" type="line"/>
      <point x="101" y="-10" type="line"/>
      <point x="535" y="671" type="line"/>
    </contour>
    <contour>
      <point x="346" y="69" type="line"/>
      <point x="346" y="0" type="line"/>
      <point x="566" y="0" type="line"/>
      <point x="566" y="73" type="line"/>
      <point x="451" y="73" type="line"/>
      <point x="503" y="125" type="line" smooth="yes"/>
      <point x="541" y="165"/>
      <point x="564" y="186"/>
      <point x="564" y="234" type="curve" smooth="yes"/>
      <point x="564" y="298"/>
      <point x="535" y="327"/>
      <point x="459" y="327" type="curve" smooth="yes"/>
      <point x="414" y="327"/>
      <point x="349" y="317"/>
      <point x="349" y="317" type="curve"/>
      <point x="351" y="242" type="line"/>
      <point x="351" y="242"/>
      <point x="409" y="250"/>
      <point x="435" y="250" type="curve" smooth="yes"/>
      <point x="462" y="250"/>
      <point x="476" y="241"/>
      <point x="476" y="220" type="curve" smooth="yes"/>
      <point x="476" y="197"/>
      <point x="463" y="183"/>
      <point x="434" y="155" type="curve" smooth="yes"/>
    </contour>
  </outline>
</glyph>
<glyph name="threequarters" format="2">
  <advance width="649"/>
  <unicode hex="00BE"/>
  <note>
threequarters
</note>
  <outline>
    <contour>
      <point x="46" y="704" type="curve"/>
      <point x="50" y="632" type="line"/>
      <point x="50" y="632"/>
      <point x="99" y="639"/>
      <point x="139" y="639" type="curve" smooth="yes"/>
      <point x="163" y="639"/>
      <point x="175" y="631"/>
      <point x="175" y="612" type="curve" smooth="yes"/>
      <point x="175" y="593"/>
      <point x="161" y="580"/>
      <point x="146" y="580" type="curve" smooth="yes"/>
      <point x="81" y="580" type="line"/>
      <point x="81" y="516" type="line"/>
      <point x="147" y="516" type="line" smooth="yes"/>
      <point x="170" y="516"/>
      <point x="183" y="508"/>
      <point x="183" y="481" type="curve" smooth="yes"/>
      <point x="183" y="459"/>
      <point x="172" y="447"/>
      <point x="144" y="447" type="curve" smooth="yes"/>
      <point x="105" y="447"/>
      <point x="46" y="456"/>
      <point x="46" y="456" type="curve"/>
      <point x="42" y="383" type="line"/>
      <point x="42" y="383"/>
      <point x="109" y="373"/>
      <point x="158" y="373" type="curve" smooth="yes"/>
      <point x="228" y="373"/>
      <point x="270" y="401"/>
      <point x="270" y="471" type="curve" smooth="yes"/>
      <point x="270" y="517"/>
      <point x="254" y="542"/>
      <point x="217" y="552" type="curve"/>
      <point x="240" y="563"/>
      <point x="263" y="589"/>
      <point x="263" y="628" type="curve" smooth="yes"/>
      <point x="263" y="690"/>
      <point x="226" y="713"/>
      <point x="150" y="713" type="curve" smooth="yes"/>
      <point x="109" y="713"/>
      <point x="46" y="704"/>
    </contour>
    <contour>
      <point x="514" y="710" type="line"/>
      <point x="83" y="29" type="line"/>
      <point x="137" y="-10" type="line"/>
      <point x="571" y="671" type="line"/>
    </contour>
    <contour>
      <point x="377" y="120" type="line"/>
      <point x="377" y="50" type="line"/>
      <point x="515" y="50" type="line"/>
      <point x="515" y="0" type="line"/>
      <point x="593" y="0" type="line"/>
      <point x="593" y="50" type="line"/>
      <point x="619" y="50" type="line"/>
      <point x="619" y="123" type="line"/>
      <point x="593" y="123" type="line"/>
      <point x="593" y="213" type="line"/>
      <point x="526" y="213" type="line"/>
      <point x="516" y="123" type="line"/>
      <point x="457" y="123" type="line"/>
      <point x="526" y="318" type="line"/>
      <point x="433" y="318" type="line"/>
    </contour>
  </outline>
</glyph>
<glyph name="questiondown" format="2">
  <advance width="422"/>
  <unicode hex="00BF"/>
  <note>
questiondown
</note>
  <outline>
    <contour>
      <point x="28" y="-36" type="curve" smooth="yes"/>
      <point x="28" y="-171"/>
      <point x="109" y="-210"/>
      <point x="226" y="-210" type="curve" smooth="yes"/>
      <point x="332" y="-210"/>
      <point x="400" y="-178"/>
      <point x="400" y="-178" type="curve"/>
      <point x="394" y="-97" type="line"/>
      <point x="394" y="-97"/>
      <point x="314" y="-118"/>
      <point x="244" y="-118" type="curve" smooth="yes"/>
      <point x="174" y="-118"/>
      <point x="134" y="-98"/>
      <point x="134" y="-36" type="curve" smooth="yes"/>
      <point x="134" y="2"/>
      <point x="148" y="29"/>
      <point x="221" y="89" type="curve" smooth="yes"/>
      <point x="275" y="132"/>
      <point x="304" y="167"/>
      <point x="304" y="208" type="curve" smooth="yes"/>
      <point x="304" y="245"/>
      <point x="285" y="278"/>
      <point x="285" y="278" type="curve"/>
      <point x="198" y="278" type="line"/>
      <point x="198" y="245" type="line" smooth="yes"/>
      <point x="198" y="209"/>
      <point x="181" y="183"/>
      <point x="116" y="132" type="curve" smooth="yes"/>
      <point x="42" y="73"/>
      <point x="28" y="23"/>
    </contour>
    <contour>
      <point x="184" y="500" type="line"/>
      <point x="184" y="369" type="line"/>
      <point x="296" y="369" type="line"/>
      <point x="296" y="500" type="line"/>
    </contour>
  </outline>
</glyph>
<glyph name="Agrave" format="2">
  <advance width="607"/>
  <unicode hex="00C0"/>
  <note>
Agrave
</note>
  <anchor x="302" y="0" name="bottom"/>
  <anchor x="586" y="0" name="ogonek"/>
  <anchor x="302" y="931" name="top"/>
  <outline>
    <contour>
      <point x="287" y="612" type="line"/>
      <point x="317" y="612" type="line"/>
      <point x="409" y="266" type="line"/>
      <point x="195" y="266" type="line"/>
    </contour>
    <contour>
      <point x="210" y="705" type="line"/>
      <point x="21" y="0" type="line"/>
      <point x="126" y="0" type="line"/>
      <point x="171" y="173" type="line"/>
      <point x="433" y="173" type="line"/>
      <point x="478" y="0" type="line"/>
      <point x="586" y="0" type="line"/>
      <point x="398" y="705" type="line"/>
    </contour>
    <contour>
      <point x="198" y="935" type="line"/>
      <point x="166" y="847" type="line"/>
      <point x="415" y="767" type="line"/>
      <point x="439" y="836" type="line"/>
    </contour>
  </outline>
</glyph>
<glyph name="Aacute" format="2">
  <advance width="607"/>
  <unicode hex="00C1"/>
  <note>
Aacute
</note>
  <anchor x="302" y="0" name="bottom"/>
  <anchor x="586" y="0" name="ogonek"/>
  <anchor x="302" y="931" name="top"/>
  <outline>
    <contour>
      <point x="287" y="612" type="line"/>
      <point x="317" y="612" type="line"/>
      <point x="409" y="266" type="line"/>
      <point x="195" y="266" type="line"/>
    </contour>
    <contour>
      <point x="210" y="705" type="line"/>
      <point x="21" y="0" type="line"/>
      <point x="126" y="0" type="line"/>
      <point x="171" y="173" type="line"/>
      <point x="433" y="173" type="line"/>
      <point x="478" y="0" type="line"/>
      <point x="586" y="0" type="line"/>
      <point x="398" y="705" type="line"/>
    </contour>
    <contour>
      <point x="407" y="935" type="line"/>
      <point x="166" y="835" type="line"/>
      <point x="190" y="767" type="line"/>
      <point x="439" y="847" type="line"/>
    </contour>
  </outline>
</glyph>
<glyph name="Atilde" format="2">
  <advance width="607"/>
  <unicode hex="00C3"/>
  <note>
Atilde
</note>
  <anchor x="302" y="0" name="bottom"/>
  <anchor x="586" y="0" name="ogonek"/>
  <anchor x="302" y="909" name="top"/>
  <outline>
    <contour>
      <point x="287" y="612" type="line"/>
      <point x="317" y="612" type="line"/>
      <point x="409" y="266" type="line"/>
      <point x="195" y="266" type="line"/>
    </contour>
    <contour>
      <point x="210" y="705" type="line"/>
      <point x="21" y="0" type="line"/>
      <point x="126" y="0" type="line"/>
      <point x="171" y="173" type="line"/>
      <point x="433" y="173" type="line"/>
      <point x="478" y="0" type="line"/>
      <point x="586" y="0" type="line"/>
      <point x="398" y="705" type="line"/>
    </contour>
    <contour>
      <point x="123" y="846" type="curve"/>
      <point x="160" y="792" type="line"/>
      <point x="160" y="792"/>
      <point x="209" y="828"/>
      <point x="234" y="828" type="curve" smooth="yes"/>
      <point x="267" y="828"/>
      <point x="333" y="786"/>
      <point x="373" y="786" type="curve" smooth="yes"/>
      <point x="419" y="786"/>
      <point x="477" y="845"/>
      <point x="483" y="851" type="curve"/>
      <point x="446" y="904" type="line"/>
      <point x="446" y="904"/>
      <point x="395" y="868"/>
      <point x="372" y="868" type="curve" smooth="yes"/>
      <point x="343" y="868"/>
      <point x="274" y="909"/>
      <point x="234" y="909" type="curve" smooth="yes"/>
      <point x="187" y="909"/>
      <point x="123" y="846"/>
    </contour>
  </outline>
</glyph>
<glyph name="Adieresis" format="2">
  <advance width="607"/>
  <unicode hex="00C4"/>
  <note>
Adieresis
</note>
  <anchor x="302" y="0" name="bottom"/>
  <anchor x="586" y="0" name="ogonek"/>
  <anchor x="302" y="899" name="top"/>
  <outline>
    <contour>
      <point x="287" y="612" type="line"/>
      <point x="317" y="612" type="line"/>
      <point x="409" y="266" type="line"/>
      <point x="195" y="266" type="line"/>
    </contour>
    <contour>
      <point x="210" y="705" type="line"/>
      <point x="21" y="0" type="line"/>
      <point x="126" y="0" type="line"/>
      <point x="171" y="173" type="line"/>
      <point x="433" y="173" type="line"/>
      <point x="478" y="0" type="line"/>
      <point x="586" y="0" type="line"/>
      <point x="398" y="705" type="line"/>
    </contour>
    <contour>
      <point x="148" y="900" type="line"/>
      <point x="148" y="791" type="line"/>
      <point x="247" y="791" type="line"/>
      <point x="247" y="900" type="line"/>
    </contour>
    <contour>
      <point x="356" y="900" type="line"/>
      <point x="356" y="791" type="line"/>
      <point x="455" y="791" type="line"/>
      <point x="455" y="900" type="line"/>
    </contour>
  </outline>
</glyph>
<glyph name="Aring" format="2">
  <advance width="607"/>
  <unicode hex="00C5"/>
  <note>
Aring
</note>
  <anchor x="302" y="0" name="bottom"/>
  <anchor x="586" y="0" name="ogonek"/>
  <anchor x="302" y="962" name="top"/>
  <outline>
    <contour>
      <point x="287" y="612" type="line"/>
      <point x="317" y="612" type="line"/>
      <point x="409" y="266" type="line"/>
      <point x="195" y="266" type="line"/>
    </contour>
    <contour>
      <point x="210" y="705" type="line"/>
      <point x="21" y="0" type="line"/>
      <point x="126" y="0" type="line"/>
      <point x="171" y="173" type="line"/>
      <point x="433" y="173" type="line"/>
      <point x="478" y="0" type="line"/>
      <point x="586" y="0" type="line"/>
      <point x="398" y="705" type="line"/>
    </contour>
    <contour>
      <point x="191" y="854" type="curve" smooth="yes"/>
      <point x="191" y="791"/>
      <point x="239" y="746"/>
      <point x="302" y="746" type="curve" smooth="yes"/>
      <point x="364" y="746"/>
      <point x="413" y="791"/>
      <point x="413" y="854" type="curve" smooth="yes"/>
      <point x="413" y="915"/>
      <point x="364" y="961"/>
      <point x="302" y="961" type="curve" smooth="yes"/>
      <point x="239" y="961"/>
      <point x="191" y="915"/>
    </contour>
    <contour>
      <point x="255" y="854" type="curve" smooth="yes"/>
      <point x="255" y="881"/>
      <point x="276" y="901"/>
      <point x="303" y="901" type="curve" smooth="yes"/>
      <point x="329" y="901"/>
      <point x="350" y="881"/>
      <point x="350" y="854" type="curve" smooth="yes"/>
      <point x="350" y="825"/>
      <point x="329" y="805"/>
      <point x="303" y="805" type="curve" smooth="yes"/>
      <point x="276" y="805"/>
      <point x="255" y="825"/>
    </contour>
  </outline>
</glyph>
<glyph name="AE" format="2">
  <advance width="853"/>
  <unicode hex="00C6"/>
  <note>
AE
</note>
  <anchor x="547" y="0" name="bottom"/>
  <anchor x="547" y="700" name="top"/>
  <outline>
    <contour>
      <point x="320" y="607" type="line"/>
      <point x="380" y="607" type="line"/>
      <point x="380" y="261" type="line"/>
      <point x="195" y="261" type="line"/>
    </contour>
    <contour>
      <point x="249" y="700" type="line"/>
      <point x="-5" y="0" type="line"/>
      <point x="101" y="0" type="line"/>
      <point x="162" y="168" type="line"/>
      <point x="380" y="168" type="line"/>
      <point x="380" y="0" type="line"/>
      <point x="810" y="0" type="line"/>
      <point x="810" y="93" type="line"/>
      <point x="487" y="93" type="line"/>
      <point x="487" y="309" type="line"/>
      <point x="750" y="309" type="line"/>
      <point x="750" y="400" type="line"/>
      <point x="487" y="400" type="line"/>
      <point x="487" y="607" type="line"/>
      <point x="810" y="607" type="line"/>
      <point x="810" y="700" type="line"/>
    </contour>
  </outline>
</glyph>
<glyph name="Ccedilla" format="2">
  <advance width="543"/>
  <unicode hex="00C7"/>
  <note>
Ccedilla
</note>
  <anchor x="341" y="-228" name="bottom"/>
  <anchor x="326" y="705" name="top"/>
  <outline>
    <contour>
      <point x="509" y="9" type="curve"/>
      <point x="506" y="98" type="line"/>
      <point x="462" y="90"/>
      <point x="380" y="82"/>
      <point x="326" y="82" type="curve" smooth="yes"/>
      <point x="186" y="82"/>
      <point x="163" y="160"/>
      <point x="163" y="344" type="curve" smooth="yes"/>
      <point x="163" y="568"/>
      <point x="195" y="625"/>
      <point x="320" y="625" type="curve" smooth="yes"/>
      <point x="375" y="625"/>
      <point x="455" y="614"/>
      <point x="501" y="606" type="curve"/>
      <point x="504" y="692" type="line"/>
      <point x="461" y="703"/>
      <point x="384" y="720"/>
      <point x="305" y="720" type="curve" smooth="yes"/>
      <point x="107" y="720"/>
      <point x="53" y="606"/>
      <point x="53" y="344" type="curve" smooth="yes"/>
      <point x="53" y="110"/>
      <point x="100" y="-6"/>
      <point x="292" y="-13" type="curve"/>
      <point x="275" y="-99" type="line"/>
      <point x="310" y="-99" type="line" smooth="yes"/>
      <point x="337" y="-99"/>
      <point x="351" y="-106"/>
      <point x="351" y="-127" type="curve" smooth="yes"/>
      <point x="351" y="-149"/>
      <point x="337" y="-159"/>
      <point x="310" y="-159" type="curve" smooth="yes"/>
      <point x="288" y="-159"/>
      <point x="250" y="-157"/>
      <point x="245" y="-157" type="curve"/>
      <point x="242" y="-219" type="line"/>
      <point x="247" y="-219"/>
      <point x="295" y="-228"/>
      <point x="338" y="-228" type="curve" smooth="yes"/>
      <point x="400" y="-228"/>
      <point x="440" y="-197"/>
      <point x="440" y="-127" type="curve" smooth="yes"/>
      <point x="440" y="-58"/>
      <point x="400" y="-44"/>
      <point x="335" y="-43" type="curve"/>
      <point x="341" y="-12" type="line"/>
      <point x="403" y="-10"/>
      <point x="468" y="0"/>
    </contour>
  </outline>
</glyph>
<glyph name="Egrave" format="2">
  <advance width="555"/>
  <unicode hex="00C8"/>
  <note>
Egrave
</note>
  <anchor x="296" y="0" name="bottom"/>
  <anchor x="469" y="0" name="ogonek"/>
  <anchor x="296" y="931" name="top"/>
  <outline>
    <contour>
      <point x="509" y="705" type="line"/>
      <point x="79" y="705" type="line"/>
      <point x="79" y="0" type="line"/>
      <point x="509" y="0" type="line"/>
      <point x="509" y="93" type="line"/>
      <point x="186" y="93" type="line"/>
      <point x="186" y="311" type="line"/>
      <point x="449" y="311" type="line"/>
      <point x="449" y="403" type="line"/>
      <point x="186" y="403" type="line"/>
      <point x="186" y="612" type="line"/>
      <point x="509" y="612" type="line"/>
    </contour>
    <contour>
      <point x="192" y="935" type="line"/>
      <point x="160" y="847" type="line"/>
      <point x="409" y="767" type="line"/>
      <point x="433" y="836" type="line"/>
    </contour>
  </outline>
</glyph>
<glyph name="Eacute" format="2">
  <advance width="555"/>
  <unicode hex="00C9"/>
  <note>
Eacute
</note>
  <anchor x="296" y="0" name="bottom"/>
  <anchor x="469" y="0" name="ogonek"/>
  <anchor x="296" y="931" name="top"/>
  <outline>
    <contour>
      <point x="509" y="705" type="line"/>
      <point x="79" y="705" type="line"/>
      <point x="79" y="0" type="line"/>
      <point x="509" y="0" type="line"/>
      <point x="509" y="93" type="line"/>
      <point x="186" y="93" type="line"/>
      <point x="186" y="311" type="line"/>
      <point x="449" y="311" type="line"/>
      <point x="449" y="403" type="line"/>
      <point x="186" y="403" type="line"/>
      <point x="186" y="612" type="line"/>
      <point x="509" y="612" type="line"/>
    </contour>
    <contour>
      <point x="401" y="935" type="line"/>
      <point x="160" y="835" type="line"/>
      <point x="184" y="767" type="line"/>
      <point x="433" y="847" type="line"/>
    </contour>
  </outline>
</glyph>
<glyph name="Ecircumflex" format="2">
  <advance width="555"/>
  <unicode hex="00CA"/>
  <note>
Ecircumflex
</note>
  <anchor x="296" y="0" name="bottom"/>
  <anchor x="469" y="0" name="ogonek"/>
  <anchor x="296" y="925" name="top"/>
  <outline>
    <contour>
      <point x="509" y="705" type="line"/>
      <point x="79" y="705" type="line"/>
      <point x="79" y="0" type="line"/>
      <point x="509" y="0" type="line"/>
      <point x="509" y="93" type="line"/>
      <point x="186" y="93" type="line"/>
      <point x="186" y="311" type="line"/>
      <point x="449" y="311" type="line"/>
      <point x="449" y="403" type="line"/>
      <point x="186" y="403" type="line"/>
      <point x="186" y="612" type="line"/>
      <point x="509" y="612" type="line"/>
    </contour>
    <contour>
      <point x="249" y="930" type="line"/>
      <point x="127" y="773" type="line"/>
      <point x="224" y="773" type="line"/>
      <point x="296" y="865" type="line"/>
      <point x="368" y="773" type="line"/>
      <point x="465" y="773" type="line"/>
      <point x="342" y="930" type="line"/>
    </contour>
  </outline>
</glyph>
<glyph name="Edieresis" format="2">
  <advance width="555"/>
  <unicode hex="00CB"/>
  <note>
Edieresis
</note>
  <anchor x="296" y="0" name="bottom"/>
  <anchor x="469" y="0" name="ogonek"/>
  <anchor x="296" y="899" name="top"/>
  <outline>
    <contour>
      <point x="509" y="705" type="line"/>
      <point x="79" y="705" type="line"/>
      <point x="79" y="0" type="line"/>
      <point x="509" y="0" type="line"/>
      <point x="509" y="93" type="line"/>
      <point x="186" y="93" type="line"/>
      <point x="186" y="311" type="line"/>
      <point x="449" y="311" type="line"/>
      <point x="449" y="403" type="line"/>
      <point x="186" y="403" type="line"/>
      <point x="186" y="612" type="line"/>
      <point x="509" y="612" type="line"/>
    </contour>
    <contour>
      <point x="142" y="900" type="line"/>
      <point x="142" y="791" type="line"/>
      <point x="241" y="791" type="line"/>
      <point x="241" y="900" type="line"/>
    </contour>
    <contour>
      <point x="350" y="900" type="line"/>
      <point x="350" y="791" type="line"/>
      <point x="449" y="791" type="line"/>
      <point x="449" y="900" type="line"/>
    </contour>
  </outline>
</glyph>
<glyph name="Igrave" format="2">
  <advance width="264"/>
  <unicode hex="00CC"/>
  <note>
Igrave
</note>
  <anchor x="132" y="0" name="bottom"/>
  <anchor x="132" y="353" name="center"/>
  <anchor x="186" y="0" name="ogonek"/>
  <anchor x="132" y="931" name="top"/>
  <outline>
    <contour>
      <point x="186" y="705" type="line"/>
      <point x="79" y="705" type="line"/>
      <point x="79" y="0" type="line"/>
      <point x="186" y="0" type="line"/>
    </contour>
    <contour>
      <point x="27" y="935" type="line"/>
      <point x="-5" y="847" type="line"/>
      <point x="244" y="767" type="line"/>
      <point x="268" y="836" type="line"/>
    </contour>
  </outline>
</glyph>
<glyph name="Iacute" format="2">
  <advance width="264"/>
  <unicode hex="00CD"/>
  <note>
Iacute
</note>
  <anchor x="132" y="0" name="bottom"/>
  <anchor x="132" y="353" name="center"/>
  <anchor x="186" y="0" name="ogonek"/>
  <anchor x="132" y="931" name="top"/>
  <outline>
    <contour>
      <point x="186" y="705" type="line"/>
      <point x="79" y="705" type="line"/>
      <point x="79" y="0" type="line"/>
      <point x="186" y="0" type="line"/>
    </contour>
    <contour>
      <point x="236" y="935" type="line"/>
      <point x="-5" y="835" type="line"/>
      <point x="19" y="767" type="line"/>
      <point x="268" y="847" type="line"/>
    </contour>
  </outline>
</glyph>
<glyph name="Icircumflex" format="2">
  <advance width="264"/>
  <unicode hex="00CE"/>
  <note>
Icircumflex
</note>
  <anchor x="132" y="0" name="bottom"/>
  <anchor x="132" y="353" name="center"/>
  <anchor x="186" y="0" name="ogonek"/>
  <anchor x="132" y="925" name="top"/>
  <outline>
    <contour>
      <point x="186" y="705" type="line"/>
      <point x="79" y="705" type="line"/>
      <point x="79" y="0" type="line"/>
      <point x="186" y="0" type="line"/>
    </contour>
    <contour>
      <point x="85" y="930" type="line"/>
      <point x="-37" y="773" type="line"/>
      <point x="60" y="773" type="line"/>
      <point x="132" y="865" type="line"/>
      <point x="204" y="773" type="line"/>
      <point x="301" y="773" type="line"/>
      <point x="178" y="930" type="line"/>
    </contour>
  </outline>
</glyph>
<glyph name="Idieresis" format="2">
  <advance width="264"/>
  <unicode hex="00CF"/>
  <note>
Idieresis
</note>
  <anchor x="132" y="0" name="bottom"/>
  <anchor x="132" y="353" name="center"/>
  <anchor x="186" y="0" name="ogonek"/>
  <anchor x="132" y="899" name="top"/>
  <outline>
    <contour>
      <point x="186" y="705" type="line"/>
      <point x="79" y="705" type="line"/>
      <point x="79" y="0" type="line"/>
      <point x="186" y="0" type="line"/>
    </contour>
    <contour>
      <point x="-22" y="900" type="line"/>
      <point x="-22" y="791" type="line"/>
      <point x="77" y="791" type="line"/>
      <point x="77" y="900" type="line"/>
    </contour>
    <contour>
      <point x="186" y="900" type="line"/>
      <point x="186" y="791" type="line"/>
      <point x="285" y="791" type="line"/>
      <point x="285" y="900" type="line"/>
    </contour>
  </outline>
</glyph>
<glyph name="Eth" format="2">
  <advance width="667"/>
  <unicode hex="00D0"/>
  <note>
Eth
</note>
  <anchor x="326" y="0" name="bottom"/>
  <anchor x="155" y="354" name="center"/>
  <anchor x="326" y="705" name="top"/>
  <outline>
    <contour>
      <point x="104" y="310" type="line"/>
      <point x="104" y="0" type="line"/>
      <point x="343" y="0" type="line" smooth="yes"/>
      <point x="564" y="0"/>
      <point x="616" y="146"/>
      <point x="616" y="360" type="curve" smooth="yes"/>
      <point x="616" y="590"/>
      <point x="556" y="705"/>
      <point x="340" y="705" type="curve" smooth="yes"/>
      <point x="104" y="705" type="line"/>
      <point x="104" y="400" type="line"/>
      <point x="39" y="400" type="line"/>
      <point x="39" y="310" type="line"/>
    </contour>
    <contour>
      <point x="342" y="93" type="curve" smooth="yes"/>
      <point x="211" y="93" type="line"/>
      <point x="211" y="310" type="line"/>
      <point x="381" y="310" type="line"/>
      <point x="381" y="400" type="line"/>
      <point x="211" y="400" type="line"/>
      <point x="211" y="612" type="line"/>
      <point x="342" y="612" type="line" smooth="yes"/>
      <point x="472" y="612"/>
      <point x="506" y="532"/>
      <point x="506" y="360" type="curve" smooth="yes"/>
      <point x="506" y="194"/>
      <point x="472" y="93"/>
    </contour>
  </outline>
</glyph>
<glyph name="Ntilde" format="2">
  <advance width="703"/>
  <unicode hex="00D1"/>
  <note>
Ntilde
</note>
  <anchor x="352" y="0" name="bottom"/>
  <anchor x="369" y="909" name="top"/>
  <outline>
    <contour>
      <point x="282" y="705" type="line"/>
      <point x="79" y="705" type="line"/>
      <point x="79" y="0" type="line"/>
      <point x="186" y="0" type="line"/>
      <point x="186" y="609" type="line"/>
      <point x="216" y="609" type="line"/>
      <point x="423" y="0" type="line"/>
      <point x="624" y="0" type="line"/>
      <point x="624" y="705" type="line"/>
      <point x="517" y="705" type="line"/>
      <point x="517" y="96" type="line"/>
      <point x="487" y="96" type="line"/>
    </contour>
    <contour>
      <point x="189" y="846" type="curve"/>
      <point x="226" y="792" type="line"/>
      <point x="226" y="792"/>
      <point x="275" y="828"/>
      <point x="300" y="828" type="curve" smooth="yes"/>
      <point x="333" y="828"/>
      <point x="399" y="786"/>
      <point x="439" y="786" type="curve" smooth="yes"/>
      <point x="485" y="786"/>
      <point x="543" y="845"/>
      <point x="549" y="851" type="curve"/>
      <point x="512" y="904" type="line"/>
      <point x="512" y="904"/>
      <point x="461" y="868"/>
      <point x="438" y="868" type="curve" smooth="yes"/>
      <point x="409" y="868"/>
      <point x="340" y="909"/>
      <point x="300" y="909" type="curve" smooth="yes"/>
      <point x="253" y="909"/>
      <point x="189" y="846"/>
    </contour>
  </outline>
</glyph>
<glyph name="Otilde" format="2">
  <advance width="662"/>
  <unicode hex="00D5"/>
  <note>
Otilde
</note>
  <anchor x="333" y="0" name="bottom"/>
  <anchor x="333" y="350" name="center"/>
  <anchor x="410" y="0" name="ogonek"/>
  <anchor x="333" y="909" name="top"/>
  <anchor x="644" y="705" name="topright"/>
  <outline>
    <contour>
      <point x="331" y="81" type="curve" smooth="yes"/>
      <point x="194" y="81"/>
      <point x="162" y="166"/>
      <point x="162" y="350" type="curve" smooth="yes"/>
      <point x="162" y="538"/>
      <point x="195" y="631"/>
      <point x="331" y="631" type="curve" smooth="yes"/>
      <point x="467" y="631"/>
      <point x="501" y="538"/>
      <point x="501" y="350" type="curve" smooth="yes"/>
      <point x="501" y="163"/>
      <point x="468" y="81"/>
    </contour>
    <contour>
      <point x="52" y="350" type="curve" smooth="yes"/>
      <point x="52" y="109"/>
      <point x="116" y="-13"/>
      <point x="331" y="-13" type="curve" smooth="yes"/>
      <point x="545" y="-13"/>
      <point x="611" y="106"/>
      <point x="611" y="350" type="curve" smooth="yes"/>
      <point x="611" y="595"/>
      <point x="545" y="720"/>
      <point x="331" y="720" type="curve" smooth="yes"/>
      <point x="117" y="720"/>
      <point x="52" y="594"/>
    </contour>
    <contour>
      <point x="154" y="846" type="curve"/>
      <point x="191" y="792" type="line"/>
      <point x="191" y="792"/>
      <point x="240" y="828"/>
      <point x="265" y="828" type="curve" smooth="yes"/>
      <point x="298" y="828"/>
      <point x="364" y="786"/>
      <point x="404" y="786" type="curve" smooth="yes"/>
      <point x="450" y="786"/>
      <point x="508" y="845"/>
      <point x="514" y="851" type="curve"/>
      <point x="477" y="904" type="line"/>
      <point x="477" y="904"/>
      <point x="426" y="868"/>
      <point x="403" y="868" type="curve" smooth="yes"/>
      <point x="374" y="868"/>
      <point x="305" y="909"/>
      <point x="265" y="909" type="curve" smooth="yes"/>
      <point x="218" y="909"/>
      <point x="154" y="846"/>
    </contour>
  </outline>
</glyph>
<glyph name="Odieresis" format="2">
  <advance width="662"/>
  <unicode hex="00D6"/>
  <note>
Odieresis
</note>
  <anchor x="333" y="0" name="bottom"/>
  <anchor x="333" y="350" name="center"/>
  <anchor x="410" y="0" name="ogonek"/>
  <anchor x="333" y="899" name="top"/>
  <anchor x="644" y="705" name="topright"/>
  <outline>
    <contour>
      <point x="331" y="81" type="curve" smooth="yes"/>
      <point x="194" y="81"/>
      <point x="162" y="166"/>
      <point x="162" y="350" type="curve" smooth="yes"/>
      <point x="162" y="538"/>
      <point x="195" y="631"/>
      <point x="331" y="631" type="curve" smooth="yes"/>
      <point x="467" y="631"/>
      <point x="501" y="538"/>
      <point x="501" y="350" type="curve" smooth="yes"/>
      <point x="501" y="163"/>
      <point x="468" y="81"/>
    </contour>
    <contour>
      <point x="52" y="350" type="curve" smooth="yes"/>
      <point x="52" y="109"/>
      <point x="116" y="-13"/>
      <point x="331" y="-13" type="curve" smooth="yes"/>
      <point x="545" y="-13"/>
      <point x="611" y="106"/>
      <point x="611" y="350" type="curve" smooth="yes"/>
      <point x="611" y="595"/>
      <point x="545" y="720"/>
      <point x="331" y="720" type="curve" smooth="yes"/>
      <point x="117" y="720"/>
      <point x="52" y="594"/>
    </contour>
    <contour>
      <point x="180" y="900" type="line"/>
      <point x="180" y="791" type="line"/>
      <point x="279" y="791" type="line"/>
      <point x="279" y="900" type="line"/>
    </contour>
    <contour>
      <point x="388" y="900" type="line"/>
      <point x="388" y="791" type="line"/>
      <point x="487" y="791" type="line"/>
      <point x="487" y="900" type="line"/>
    </contour>
  </outline>
</glyph>
<glyph name="multiply" format="2">
  <advance width="560"/>
  <unicode hex="00D7"/>
  <note>
multiply
</note>
  <outline>
    <contour>
      <point x="280" y="346" type="line"/>
      <point x="135" y="491" type="line"/>
      <point x="70" y="426" type="line"/>
      <point x="215" y="281" type="line"/>
      <point x="70" y="137" type="line"/>
      <point x="135" y="71" type="line"/>
      <point x="280" y="216" type="line"/>
      <point x="425" y="71" type="line"/>
      <point x="490" y="137" type="line"/>
      <point x="345" y="281" type="line"/>
      <point x="490" y="426" type="line"/>
      <point x="425" y="491" type="line"/>
    </contour>
  </outline>
</glyph>
<glyph name="Oslash" format="2">
  <advance width="662"/>
  <unicode hex="00D8"/>
  <note>
Oslash
</note>
  <anchor x="333" y="0" name="bottom"/>
  <anchor x="333" y="350" name="center"/>
  <anchor x="410" y="0" name="ogonek"/>
  <anchor x="333" y="700" name="top"/>
  <anchor x="644" y="705" name="topright"/>
  <outline>
    <contour>
      <point x="331" y="81" type="curve" smooth="yes"/>
      <point x="300" y="81"/>
      <point x="274" y="85"/>
      <point x="252" y="95" type="curve"/>
      <point x="475" y="543" type="line"/>
      <point x="494" y="497"/>
      <point x="501" y="433"/>
      <point x="501" y="350" type="curve" smooth="yes"/>
      <point x="501" y="163"/>
      <point x="468" y="81"/>
    </contour>
    <contour>
      <point x="52" y="350" type="curve" smooth="yes"/>
      <point x="52" y="207"/>
      <point x="74" y="106"/>
      <point x="138" y="48" type="curve"/>
      <point x="104" y="-20" type="line"/>
      <point x="178" y="-55" type="line"/>
      <point x="208" y="5" type="line"/>
      <point x="242" y="-7"/>
      <point x="283" y="-13"/>
      <point x="331" y="-13" type="curve" smooth="yes"/>
      <point x="545" y="-13"/>
      <point x="611" y="106"/>
      <point x="611" y="350" type="curve" smooth="yes"/>
      <point x="611" y="491"/>
      <point x="589" y="592"/>
      <point x="530" y="653" type="curve"/>
      <point x="563" y="720" type="line"/>
      <point x="489" y="755" type="line"/>
      <point x="461" y="698" type="line"/>
      <point x="425" y="713"/>
      <point x="382" y="720"/>
      <point x="331" y="720" type="curve" smooth="yes"/>
      <point x="117" y="720"/>
      <point x="52" y="594"/>
    </contour>
    <contour>
      <point x="162" y="350" type="curve" smooth="yes"/>
      <point x="162" y="538"/>
      <point x="195" y="631"/>
      <point x="331" y="631" type="curve" smooth="yes"/>
      <point x="367" y="631"/>
      <point x="395" y="625"/>
      <point x="418" y="612" type="curve"/>
      <point x="191" y="155" type="line"/>
      <point x="169" y="199"/>
      <point x="162" y="264"/>
    </contour>
  </outline>
</glyph>
<glyph name="Uacute" format="2">
  <advance width="650"/>
  <unicode hex="00DA"/>
  <note>
Uacute
</note>
  <anchor x="324" y="0" name="bottom"/>
  <anchor x="413" y="0" name="ogonek"/>
  <anchor x="324" y="931" name="top"/>
  <anchor x="623" y="705" name="topright"/>
  <outline>
    <contour>
      <point x="182" y="215" type="curve" smooth="yes"/>
      <point x="182" y="705" type="line"/>
      <point x="75" y="705" type="line"/>
      <point x="75" y="218" type="line" smooth="yes"/>
      <point x="75" y="53"/>
      <point x="163" y="-13"/>
      <point x="323" y="-13" type="curve" smooth="yes"/>
      <point x="487" y="-13"/>
      <point x="575" y="54"/>
      <point x="575" y="218" type="curve" smooth="yes"/>
      <point x="575" y="705" type="line"/>
      <point x="468" y="705" type="line"/>
      <point x="468" y="215" type="line" smooth="yes"/>
      <point x="468" y="121"/>
      <point x="418" y="81"/>
      <point x="323" y="81" type="curve" smooth="yes"/>
      <point x="232" y="81"/>
      <point x="182" y="120"/>
    </contour>
    <contour>
      <point x="429" y="935" type="line"/>
      <point x="188" y="835" type="line"/>
      <point x="212" y="767" type="line"/>
      <point x="461" y="847" type="line"/>
    </contour>
  </outline>
</glyph>
<glyph name="Ucircumflex" format="2">
  <advance width="650"/>
  <unicode hex="00DB"/>
  <note>
Ucircumflex
</note>
  <anchor x="324" y="0" name="bottom"/>
  <anchor x="413" y="0" name="ogonek"/>
  <anchor x="324" y="925" name="top"/>
  <anchor x="623" y="705" name="topright"/>
  <outline>
    <contour>
      <point x="182" y="215" type="curve" smooth="yes"/>
      <point x="182" y="705" type="line"/>
      <point x="75" y="705" type="line"/>
      <point x="75" y="218" type="line" smooth="yes"/>
      <point x="75" y="53"/>
      <point x="163" y="-13"/>
      <point x="323" y="-13" type="curve" smooth="yes"/>
      <point x="487" y="-13"/>
      <point x="575" y="54"/>
      <point x="575" y="218" type="curve" smooth="yes"/>
      <point x="575" y="705" type="line"/>
      <point x="468" y="705" type="line"/>
      <point x="468" y="215" type="line" smooth="yes"/>
      <point x="468" y="121"/>
      <point x="418" y="81"/>
      <point x="323" y="81" type="curve" smooth="yes"/>
      <point x="232" y="81"/>
      <point x="182" y="120"/>
    </contour>
    <contour>
      <point x="278" y="930" type="line"/>
      <point x="156" y="773" type="line"/>
      <point x="253" y="773" type="line"/>
      <point x="325" y="865" type="line"/>
      <point x="397" y="773" type="line"/>
      <point x="494" y="773" type="line"/>
      <point x="371" y="930" type="line"/>
    </contour>
  </outline>
</glyph>
<glyph name="Udieresis" format="2">
  <advance width="650"/>
  <unicode hex="00DC"/>
  <note>
Udieresis
</note>
  <anchor x="324" y="0" name="bottom"/>
  <anchor x="413" y="0" name="ogonek"/>
  <anchor x="324" y="899" name="top"/>
  <anchor x="623" y="705" name="topright"/>
  <outline>
    <contour>
      <point x="182" y="215" type="curve" smooth="yes"/>
      <point x="182" y="705" type="line"/>
      <point x="75" y="705" type="line"/>
      <point x="75" y="218" type="line" smooth="yes"/>
      <point x="75" y="53"/>
      <point x="163" y="-13"/>
      <point x="323" y="-13" type="curve" smooth="yes"/>
      <point x="487" y="-13"/>
      <point x="575" y="54"/>
      <point x="575" y="218" type="curve" smooth="yes"/>
      <point x="575" y="705" type="line"/>
      <point x="468" y="705" type="line"/>
      <point x="468" y="215" type="line" smooth="yes"/>
      <point x="468" y="121"/>
      <point x="418" y="81"/>
      <point x="323" y="81" type="curve" smooth="yes"/>
      <point x="232" y="81"/>
      <point x="182" y="120"/>
    </contour>
    <contour>
      <point x="171" y="900" type="line"/>
      <point x="171" y="791" type="line"/>
      <point x="270" y="791" type="line"/>
      <point x="270" y="900" type="line"/>
    </contour>
    <contour>
      <point x="379" y="900" type="line"/>
      <point x="379" y="791" type="line"/>
      <point x="478" y="791" type="line"/>
      <point x="478" y="900" type="line"/>
    </contour>
  </outline>
</glyph>
<glyph name="Yacute" format="2">
  <advance width="554"/>
  <unicode hex="00DD"/>
  <note>
Yacute
</note>
  <anchor x="277" y="0" name="bottom"/>
  <anchor x="277" y="931" name="top"/>
  <outline>
    <contour>
      <point x="223" y="296" type="line"/>
      <point x="223" y="0" type="line"/>
      <point x="330" y="0" type="line"/>
      <point x="330" y="296" type="line"/>
      <point x="545" y="705" type="line"/>
      <point x="427" y="705" type="line"/>
      <point x="277" y="398" type="line"/>
      <point x="126" y="705" type="line"/>
      <point x="8" y="705" type="line"/>
    </contour>
    <contour>
      <point x="381" y="935" type="line"/>
      <point x="140" y="835" type="line"/>
      <point x="164" y="767" type="line"/>
      <point x="413" y="847" type="line"/>
    </contour>
  </outline>
</glyph>
<glyph name="Thorn" format="2">
  <advance width="599"/>
  <unicode hex="00DE"/>
  <note>
Thorn
</note>
  <anchor x="132" y="0" name="bottom"/>
  <anchor x="132" y="353" name="center"/>
  <anchor x="186" y="0" name="ogonek"/>
  <anchor x="132" y="705" name="top"/>
  <outline>
    <contour>
      <point x="326" y="586" type="curve" smooth="yes"/>
      <point x="186" y="586" type="line"/>
      <point x="186" y="705" type="line"/>
      <point x="79" y="705" type="line"/>
      <point x="79" y="0" type="line"/>
      <point x="186" y="0" type="line"/>
      <point x="186" y="138" type="line"/>
      <point x="326" y="138" type="line" smooth="yes"/>
      <point x="481" y="138"/>
      <point x="557" y="224"/>
      <point x="557" y="367" type="curve" smooth="yes"/>
      <point x="557" y="510"/>
      <point x="481" y="586"/>
    </contour>
    <contour>
      <point x="325" y="230" type="curve" smooth="yes"/>
      <point x="187" y="230" type="line"/>
      <point x="187" y="494" type="line"/>
      <point x="325" y="494" type="line" smooth="yes"/>
      <point x="410" y="494"/>
      <point x="448" y="452"/>
      <point x="448" y="367" type="curve" smooth="yes"/>
      <point x="448" y="281"/>
      <point x="410" y="230"/>
    </contour>
  </outline>
</glyph>
<glyph name="germandbls" format="2">
  <advance width="600"/>
  <unicode hex="00DF"/>
  <note>
germandbls
</note>
  <outline>
    <contour>
      <point x="68" y="547" type="curve" smooth="yes"/>
      <point x="68" y="0" type="line"/>
      <point x="172" y="0" type="line"/>
      <point x="172" y="550" type="line" smooth="yes"/>
      <point x="172" y="624"/>
      <point x="203" y="650"/>
      <point x="286" y="650" type="curve" smooth="yes"/>
      <point x="363" y="650"/>
      <point x="394" y="625"/>
      <point x="394" y="580" type="curve" smooth="yes"/>
      <point x="394" y="548"/>
      <point x="377" y="533"/>
      <point x="336" y="505" type="curve" smooth="yes"/>
      <point x="281" y="467"/>
      <point x="250" y="444"/>
      <point x="250" y="378" type="curve" smooth="yes"/>
      <point x="250" y="328"/>
      <point x="268" y="303"/>
      <point x="317" y="278" type="curve" smooth="yes"/>
      <point x="417" y="225" type="line" smooth="yes"/>
      <point x="458" y="203"/>
      <point x="465" y="187"/>
      <point x="465" y="157" type="curve" smooth="yes"/>
      <point x="465" y="110"/>
      <point x="443" y="81"/>
      <point x="367" y="81" type="curve" smooth="yes"/>
      <point x="323" y="81"/>
      <point x="232" y="92"/>
      <point x="232" y="92" type="curve"/>
      <point x="228" y="8" type="line"/>
      <point x="228" y="8"/>
      <point x="308" y="-11"/>
      <point x="376" y="-11" type="curve" smooth="yes"/>
      <point x="506" y="-11"/>
      <point x="572" y="52"/>
      <point x="572" y="167" type="curve" smooth="yes"/>
      <point x="572" y="236"/>
      <point x="551" y="272"/>
      <point x="487" y="304" type="curve" smooth="yes"/>
      <point x="389" y="354" type="line" smooth="yes"/>
      <point x="360" y="368"/>
      <point x="351" y="380"/>
      <point x="351" y="397" type="curve" smooth="yes"/>
      <point x="351" y="426"/>
      <point x="379" y="438"/>
      <point x="419" y="460" type="curve" smooth="yes"/>
      <point x="469" y="487"/>
      <point x="499" y="513"/>
      <point x="499" y="589" type="curve" smooth="yes"/>
      <point x="499" y="690"/>
      <point x="432" y="740"/>
      <point x="286" y="740" type="curve" smooth="yes"/>
      <point x="130" y="740"/>
      <point x="68" y="686"/>
    </contour>
  </outline>
</glyph>
<glyph name="acircumflex" format="2">
  <advance width="509"/>
  <unicode hex="00E2"/>
  <note>
acircumflex
</note>
  <anchor x="255" y="0" name="bottom"/>
  <anchor x="469" y="0" name="ogonek"/>
  <anchor x="243" y="746" name="top"/>
  <outline>
    <contour>
      <point x="435" y="112" type="curve" smooth="yes"/>
      <point x="435" y="355" type="line" smooth="yes"/>
      <point x="435" y="468"/>
      <point x="385" y="520"/>
      <point x="263" y="520" type="curve" smooth="yes"/>
      <point x="173" y="520"/>
      <point x="64" y="494"/>
      <point x="64" y="494" type="curve"/>
      <point x="68" y="420" type="line"/>
      <point x="68" y="420"/>
      <point x="188" y="431"/>
      <point x="256" y="431" type="curve" smooth="yes"/>
      <point x="306" y="431"/>
      <point x="331" y="412"/>
      <point x="331" y="355" type="curve" smooth="yes"/>
      <point x="331" y="312" type="line"/>
      <point x="198" y="301" type="line" smooth="yes"/>
      <point x="92" y="292"/>
      <point x="35" y="254"/>
      <point x="35" y="147" type="curve" smooth="yes"/>
      <point x="35" y="42"/>
      <point x="85" y="-13"/>
      <point x="182" y="-13" type="curve" smooth="yes"/>
      <point x="265" y="-13"/>
      <point x="346" y="25"/>
      <point x="346" y="25" type="curve"/>
      <point x="382" y="-4"/>
      <point x="417" y="-13"/>
      <point x="477" y="-13" type="curve"/>
      <point x="481" y="66" type="line"/>
      <point x="451" y="71"/>
      <point x="435" y="82"/>
    </contour>
    <contour>
      <point x="197" y="740" type="line"/>
      <point x="75" y="583" type="line"/>
      <point x="172" y="583" type="line"/>
      <point x="244" y="675" type="line"/>
      <point x="316" y="583" type="line"/>
      <point x="413" y="583" type="line"/>
      <point x="290" y="740" type="line"/>
    </contour>
    <contour>
      <point x="140" y="150" type="curve" smooth="yes"/>
      <point x="140" y="199"/>
      <point x="162" y="222"/>
      <point x="211" y="227" type="curve" smooth="yes"/>
      <point x="331" y="238" type="line"/>
      <point x="331" y="96" type="line"/>
      <point x="331" y="96"/>
      <point x="262" y="72"/>
      <point x="203" y="72" type="curve" smooth="yes"/>
      <point x="159" y="72"/>
      <point x="140" y="101"/>
    </contour>
  </outline>
</glyph>
<glyph name="atilde" format="2">
  <advance width="509"/>
  <unicode hex="00E3"/>
  <note>
atilde
</note>
  <anchor x="255" y="0" name="bottom"/>
  <anchor x="469" y="0" name="ogonek"/>
  <anchor x="243" y="722" name="top"/>
  <outline>
    <contour>
      <point x="435" y="112" type="curve" smooth="yes"/>
      <point x="435" y="355" type="line" smooth="yes"/>
      <point x="435" y="468"/>
      <point x="385" y="520"/>
      <point x="263" y="520" type="curve" smooth="yes"/>
      <point x="173" y="520"/>
      <point x="64" y="494"/>
      <point x="64" y="494" type="curve"/>
      <point x="68" y="420" type="line"/>
      <point x="68" y="420"/>
      <point x="188" y="431"/>
      <point x="256" y="431" type="curve" smooth="yes"/>
      <point x="306" y="431"/>
      <point x="331" y="412"/>
      <point x="331" y="355" type="curve" smooth="yes"/>
      <point x="331" y="312" type="line"/>
      <point x="198" y="301" type="line" smooth="yes"/>
      <point x="92" y="292"/>
      <point x="35" y="254"/>
      <point x="35" y="147" type="curve" smooth="yes"/>
      <point x="35" y="42"/>
      <point x="85" y="-13"/>
      <point x="182" y="-13" type="curve" smooth="yes"/>
      <point x="265" y="-13"/>
      <point x="346" y="25"/>
      <point x="346" y="25" type="curve"/>
      <point x="382" y="-4"/>
      <point x="417" y="-13"/>
      <point x="477" y="-13" type="curve"/>
      <point x="481" y="66" type="line"/>
      <point x="451" y="71"/>
      <point x="435" y="82"/>
    </contour>
    <contour>
      <point x="64" y="654" type="curve"/>
      <point x="101" y="600" type="line"/>
      <point x="101" y="600"/>
      <point x="150" y="636"/>
      <point x="176" y="636" type="curve" smooth="yes"/>
      <point x="208" y="636"/>
      <point x="274" y="594"/>
      <point x="315" y="594" type="curve" smooth="yes"/>
      <point x="360" y="594"/>
      <point x="419" y="653"/>
      <point x="424" y="659" type="curve"/>
      <point x="387" y="712" type="line"/>
      <point x="387" y="712"/>
      <point x="336" y="676"/>
      <point x="313" y="676" type="curve" smooth="yes"/>
      <point x="284" y="676"/>
      <point x="215" y="717"/>
      <point x="175" y="717" type="curve" smooth="yes"/>
      <point x="128" y="717"/>
      <point x="64" y="654"/>
    </contour>
    <contour>
      <point x="140" y="150" type="curve" smooth="yes"/>
      <point x="140" y="199"/>
      <point x="162" y="222"/>
      <point x="211" y="227" type="curve" smooth="yes"/>
      <point x="331" y="238" type="line"/>
      <point x="331" y="96" type="line"/>
      <point x="331" y="96"/>
      <point x="262" y="72"/>
      <point x="203" y="72" type="curve" smooth="yes"/>
      <point x="159" y="72"/>
      <point x="140" y="101"/>
    </contour>
  </outline>
</glyph>
<glyph name="aring" format="2">
  <advance width="509"/>
  <unicode hex="00E5"/>
  <note>
aring
</note>
  <anchor x="255" y="0" name="bottom"/>
  <anchor x="469" y="0" name="ogonek"/>
  <anchor x="243" y="766" name="top"/>
  <outline>
    <contour>
      <point x="435" y="112" type="curve" smooth="yes"/>
      <point x="435" y="355" type="line" smooth="yes"/>
      <point x="435" y="468"/>
      <point x="385" y="520"/>
      <point x="263" y="520" type="curve" smooth="yes"/>
      <point x="173" y="520"/>
      <point x="64" y="494"/>
      <point x="64" y="494" type="curve"/>
      <point x="68" y="420" type="line"/>
      <point x="68" y="420"/>
      <point x="188" y="431"/>
      <point x="256" y="431" type="curve" smooth="yes"/>
      <point x="306" y="431"/>
      <point x="331" y="412"/>
      <point x="331" y="355" type="curve" smooth="yes"/>
      <point x="331" y="312" type="line"/>
      <point x="198" y="301" type="line" smooth="yes"/>
      <point x="92" y="292"/>
      <point x="35" y="254"/>
      <point x="35" y="147" type="curve" smooth="yes"/>
      <point x="35" y="42"/>
      <point x="85" y="-13"/>
      <point x="182" y="-13" type="curve" smooth="yes"/>
      <point x="265" y="-13"/>
      <point x="346" y="25"/>
      <point x="346" y="25" type="curve"/>
      <point x="382" y="-4"/>
      <point x="417" y="-13"/>
      <point x="477" y="-13" type="curve"/>
      <point x="481" y="66" type="line"/>
      <point x="451" y="71"/>
      <point x="435" y="82"/>
    </contour>
    <contour>
      <point x="132" y="658" type="curve" smooth="yes"/>
      <point x="132" y="595"/>
      <point x="180" y="550"/>
      <point x="243" y="550" type="curve" smooth="yes"/>
      <point x="305" y="550"/>
      <point x="354" y="595"/>
      <point x="354" y="658" type="curve" smooth="yes"/>
      <point x="354" y="720"/>
      <point x="305" y="765"/>
      <point x="243" y="765" type="curve" smooth="yes"/>
      <point x="180" y="765"/>
      <point x="132" y="720"/>
    </contour>
    <contour>
      <point x="140" y="150" type="curve" smooth="yes"/>
      <point x="140" y="199"/>
      <point x="162" y="222"/>
      <point x="211" y="227" type="curve" smooth="yes"/>
      <point x="331" y="238" type="line"/>
      <point x="331" y="96" type="line"/>
      <point x="331" y="96"/>
      <point x="262" y="72"/>
      <point x="203" y="72" type="curve" smooth="yes"/>
      <point x="159" y="72"/>
      <point x="140" y="101"/>
    </contour>
    <contour>
      <point x="193" y="658" type="curve" smooth="yes"/>
      <point x="193" y="688"/>
      <point x="215" y="709"/>
      <point x="244" y="709" type="curve" smooth="yes"/>
      <point x="272" y="709"/>
      <point x="294" y="688"/>
      <point x="294" y="658" type="curve" smooth="yes"/>
      <point x="294" y="628"/>
      <point x="272" y="606"/>
      <point x="244" y="606" type="curve" smooth="yes"/>
      <point x="215" y="606"/>
      <point x="193" y="628"/>
    </contour>
  </outline>
</glyph>
<glyph name="ae" format="2">
  <advance width="804"/>
  <unicode hex="00E6"/>
  <note>
ae
</note>
  <anchor x="401" y="0" name="bottom"/>
  <anchor x="399" y="500" name="top"/>
  <outline>
    <contour>
      <point x="554" y="81" type="curve" smooth="yes"/>
      <point x="465" y="81"/>
      <point x="439" y="121"/>
      <point x="438" y="207" type="curve"/>
      <point x="754" y="207" type="line"/>
      <point x="761" y="283" type="line"/>
      <point x="761" y="447"/>
      <point x="691" y="520"/>
      <point x="550" y="520" type="curve" smooth="yes"/>
      <point x="489" y="520"/>
      <point x="438" y="504"/>
      <point x="404" y="461" type="curve"/>
      <point x="377" y="504"/>
      <point x="333" y="520"/>
      <point x="270" y="520" type="curve" smooth="yes"/>
      <point x="179" y="520"/>
      <point x="64" y="491"/>
      <point x="64" y="491" type="curve"/>
      <point x="68" y="415" type="line"/>
      <point x="68" y="415"/>
      <point x="189" y="430"/>
      <point x="264" y="430" type="curve" smooth="yes"/>
      <point x="307" y="430"/>
      <point x="333" y="407"/>
      <point x="333" y="358" type="curve" smooth="yes"/>
      <point x="333" y="312" type="line"/>
      <point x="203" y="300" type="line" smooth="yes"/>
      <point x="97" y="291"/>
      <point x="35" y="258"/>
      <point x="35" y="148" type="curve" smooth="yes"/>
      <point x="35" y="47"/>
      <point x="84" y="-11"/>
      <point x="178" y="-11" type="curve" smooth="yes"/>
      <point x="264" y="-11"/>
      <point x="338" y="19"/>
      <point x="362" y="29" type="curve" smooth="yes"/>
      <point x="390" y="41" type="line"/>
      <point x="420" y="9"/>
      <point x="472" y="-12"/>
      <point x="541" y="-12" type="curve" smooth="yes"/>
      <point x="629" y="-12"/>
      <point x="744" y="10"/>
      <point x="744" y="10" type="curve"/>
      <point x="742" y="90" type="line"/>
      <point x="742" y="90"/>
      <point x="633" y="81"/>
    </contour>
    <contour>
      <point x="141" y="151" type="curve" smooth="yes"/>
      <point x="141" y="199"/>
      <point x="165" y="220"/>
      <point x="213" y="225" type="curve" smooth="yes"/>
      <point x="333" y="236" type="line"/>
      <point x="333" y="189"/>
      <point x="336" y="139"/>
      <point x="349" y="103" type="curve"/>
      <point x="343" y="100"/>
      <point x="257" y="75"/>
      <point x="202" y="75" type="curve" smooth="yes"/>
      <point x="163" y="75"/>
      <point x="141" y="103"/>
    </contour>
    <contour>
      <point x="657" y="289" type="curve"/>
      <point x="438" y="289" type="line"/>
      <point x="438" y="393"/>
      <point x="475" y="433"/>
      <point x="552" y="433" type="curve" smooth="yes"/>
      <point x="628" y="433"/>
      <point x="657" y="397"/>
    </contour>
  </outline>
</glyph>
<glyph name="ccedilla" format="2">
  <advance width="444"/>
  <unicode hex="00E7"/>
  <note>
ccedilla
</note>
  <anchor x="256" y="-228" name="bottom"/>
  <anchor x="249" y="505" name="top"/>
  <outline>
    <contour>
      <point x="256" y="520" type="curve" smooth="yes"/>
      <point x="107" y="520"/>
      <point x="46" y="445"/>
      <point x="46" y="257" type="curve" smooth="yes"/>
      <point x="46" y="84"/>
      <point x="88" y="5"/>
      <point x="208" y="-10" type="curve"/>
      <point x="190" y="-99" type="line"/>
      <point x="225" y="-99" type="line" smooth="yes"/>
      <point x="252" y="-99"/>
      <point x="266" y="-106"/>
      <point x="266" y="-127" type="curve" smooth="yes"/>
      <point x="266" y="-149"/>
      <point x="252" y="-159"/>
      <point x="225" y="-159" type="curve" smooth="yes"/>
      <point x="203" y="-159"/>
      <point x="165" y="-157"/>
      <point x="160" y="-157" type="curve"/>
      <point x="157" y="-219" type="line"/>
      <point x="162" y="-219"/>
      <point x="210" y="-228"/>
      <point x="253" y="-228" type="curve" smooth="yes"/>
      <point x="315" y="-228"/>
      <point x="355" y="-197"/>
      <point x="355" y="-127" type="curve" smooth="yes"/>
      <point x="355" y="-58"/>
      <point x="315" y="-44"/>
      <point x="250" y="-43" type="curve"/>
      <point x="256" y="-13" type="line"/>
      <point x="307" y="-13"/>
      <point x="404" y="4"/>
      <point x="404" y="4" type="curve"/>
      <point x="401" y="88" type="line"/>
      <point x="401" y="88"/>
      <point x="322" y="80"/>
      <point x="284" y="80" type="curve" smooth="yes"/>
      <point x="173" y="80"/>
      <point x="153" y="124"/>
      <point x="153" y="257" type="curve" smooth="yes"/>
      <point x="153" y="383"/>
      <point x="177" y="427"/>
      <point x="283" y="427" type="curve" smooth="yes"/>
      <point x="321" y="427"/>
      <point x="400" y="419"/>
      <point x="400" y="419" type="curve"/>
      <point x="404" y="501" type="line"/>
      <point x="404" y="501"/>
      <point x="308" y="520"/>
    </contour>
  </outline>
</glyph>
<glyph name="ecircumflex" format="2">
  <advance width="510"/>
  <unicode hex="00EA"/>
  <note>
ecircumflex
</note>
  <anchor x="256" y="0" name="bottom"/>
  <anchor x="379" y="0" name="ogonek"/>
  <anchor x="267" y="746" name="top"/>
  <outline>
    <contour>
      <point x="271" y="78" type="curve" smooth="yes"/>
      <point x="171" y="78"/>
      <point x="150" y="119"/>
      <point x="149" y="214" type="curve"/>
      <point x="462" y="214" type="line"/>
      <point x="469" y="289" type="line"/>
      <point x="469" y="447"/>
      <point x="398" y="520"/>
      <point x="262" y="520" type="curve" smooth="yes"/>
      <point x="122" y="520"/>
      <point x="45" y="440"/>
      <point x="45" y="251" type="curve" smooth="yes"/>
      <point x="45" y="69"/>
      <point x="101" y="-13"/>
      <point x="251" y="-13" type="curve" smooth="yes"/>
      <point x="338" y="-13"/>
      <point x="452" y="4"/>
      <point x="452" y="4" type="curve"/>
      <point x="450" y="82" type="line"/>
      <point x="450" y="82"/>
      <point x="334" y="78"/>
    </contour>
    <contour>
      <point x="220" y="740" type="line"/>
      <point x="98" y="583" type="line"/>
      <point x="195" y="583" type="line"/>
      <point x="267" y="675" type="line"/>
      <point x="339" y="583" type="line"/>
      <point x="436" y="583" type="line"/>
      <point x="313" y="740" type="line"/>
    </contour>
    <contour>
      <point x="366" y="294" type="curve"/>
      <point x="148" y="294" type="line"/>
      <point x="149" y="395"/>
      <point x="185" y="434"/>
      <point x="259" y="434" type="curve" smooth="yes"/>
      <point x="335" y="434"/>
      <point x="366" y="399"/>
    </contour>
  </outline>
</glyph>
<glyph name="igrave" format="2">
  <advance width="239"/>
  <unicode hex="00EC"/>
  <note>
igrave
</note>
  <anchor x="120" y="0" name="bottom"/>
  <anchor x="172" y="0" name="ogonek"/>
  <anchor x="108" y="746" name="top"/>
  <outline>
    <contour>
      <point x="172" y="505" type="line"/>
      <point x="68" y="505" type="line"/>
      <point x="68" y="0" type="line"/>
      <point x="172" y="0" type="line"/>
    </contour>
    <contour>
      <point x="3" y="746" type="line"/>
      <point x="-29" y="658" type="line"/>
      <point x="220" y="578" type="line"/>
      <point x="244" y="646" type="line"/>
    </contour>
  </outline>
</glyph>
<glyph name="iacute" format="2">
  <advance width="239"/>
  <unicode hex="00ED"/>
  <note>
iacute
</note>
  <anchor x="120" y="0" name="bottom"/>
  <anchor x="172" y="0" name="ogonek"/>
  <anchor x="137" y="746" name="top"/>
  <outline>
    <contour>
      <point x="172" y="505" type="line"/>
      <point x="68" y="505" type="line"/>
      <point x="68" y="0" type="line"/>
      <point x="172" y="0" type="line"/>
    </contour>
    <contour>
      <point x="241" y="746" type="line"/>
      <point x="0" y="646" type="line"/>
      <point x="24" y="578" type="line"/>
      <point x="273" y="658" type="line"/>
    </contour>
  </outline>
</glyph>
<glyph name="icircumflex" format="2">
  <advance width="239"/>
  <unicode hex="00EE"/>
  <note>
icircumflex
</note>
  <anchor x="120" y="0" name="bottom"/>
  <anchor x="172" y="0" name="ogonek"/>
  <anchor x="120" y="746" name="top"/>
  <outline>
    <contour>
      <point x="172" y="505" type="line"/>
      <point x="68" y="505" type="line"/>
      <point x="68" y="0" type="line"/>
      <point x="172" y="0" type="line"/>
    </contour>
    <contour>
      <point x="73" y="740" type="line"/>
      <point x="-49" y="583" type="line"/>
      <point x="48" y="583" type="line"/>
      <point x="120" y="675" type="line"/>
      <point x="192" y="583" type="line"/>
      <point x="289" y="583" type="line"/>
      <point x="166" y="740" type="line"/>
    </contour>
  </outline>
</glyph>
<glyph name="idieresis" format="2">
  <advance width="239"/>
  <unicode hex="00EF"/>
  <note>
idieresis
</note>
  <anchor x="120" y="0" name="bottom"/>
  <anchor x="172" y="0" name="ogonek"/>
  <anchor x="120" y="719" name="top"/>
  <outline>
    <contour>
      <point x="172" y="505" type="line"/>
      <point x="68" y="505" type="line"/>
      <point x="68" y="0" type="line"/>
      <point x="172" y="0" type="line"/>
    </contour>
    <contour>
      <point x="-34" y="715" type="line"/>
      <point x="-34" y="606" type="line"/>
      <point x="65" y="606" type="line"/>
      <point x="65" y="715" type="line"/>
    </contour>
    <contour>
      <point x="174" y="715" type="line"/>
      <point x="174" y="606" type="line"/>
      <point x="273" y="606" type="line"/>
      <point x="273" y="715" type="line"/>
    </contour>
  </outline>
</glyph>
<glyph name="eth" format="2">
  <advance width="563"/>
  <unicode hex="00F0"/>
  <note>
eth
</note>
  <outline>
    <contour>
      <point x="207" y="633" type="curve"/>
      <point x="121" y="575" type="line"/>
      <point x="164" y="514" type="line"/>
      <point x="290" y="598" type="line"/>
      <point x="369" y="552"/>
      <point x="399" y="493"/>
      <point x="404" y="404" type="curve"/>
      <point x="404" y="404"/>
      <point x="327" y="434"/>
      <point x="253" y="434" type="curve" smooth="yes"/>
      <point x="114" y="434"/>
      <point x="42" y="347"/>
      <point x="42" y="211" type="curve" smooth="yes"/>
      <point x="42" y="66"/>
      <point x="125" y="-9"/>
      <point x="270" y="-9" type="curve" smooth="yes"/>
      <point x="445" y="-9"/>
      <point x="513" y="99"/>
      <point x="513" y="342" type="curve" smooth="yes"/>
      <point x="513" y="502"/>
      <point x="465" y="593"/>
      <point x="374" y="654" type="curve"/>
      <point x="440" y="698" type="line"/>
      <point x="396" y="759" type="line"/>
      <point x="298" y="693" type="line"/>
      <point x="244" y="715"/>
      <point x="180" y="730"/>
      <point x="107" y="740" type="curve"/>
      <point x="91" y="666" type="line"/>
      <point x="135" y="656"/>
      <point x="174" y="644"/>
    </contour>
    <contour>
      <point x="151" y="211" type="curve" smooth="yes"/>
      <point x="151" y="281"/>
      <point x="182" y="343"/>
      <point x="265" y="343" type="curve" smooth="yes"/>
      <point x="328" y="343"/>
      <point x="404" y="313"/>
      <point x="404" y="313" type="curve"/>
      <point x="404" y="142"/>
      <point x="361" y="84"/>
      <point x="270" y="84" type="curve" smooth="yes"/>
      <point x="189" y="84"/>
      <point x="151" y="131"/>
    </contour>
  </outline>
</glyph>
<glyph name="ntilde" format="2">
  <advance width="547"/>
  <unicode hex="00F1"/>
  <note>
ntilde
</note>
  <anchor x="278" y="0" name="bottom"/>
  <anchor x="277" y="722" name="top"/>
  <outline>
    <contour>
      <point x="68" y="505" type="line"/>
      <point x="68" y="0" type="line"/>
      <point x="172" y="0" type="line"/>
      <point x="172" y="394" type="line"/>
      <point x="172" y="394"/>
      <point x="229" y="427"/>
      <point x="289" y="427" type="curve" smooth="yes"/>
      <point x="368" y="427"/>
      <point x="381" y="378"/>
      <point x="381" y="273" type="curve" smooth="yes"/>
      <point x="381" y="0" type="line"/>
      <point x="485" y="0" type="line"/>
      <point x="485" y="276" type="line" smooth="yes"/>
      <point x="485" y="442"/>
      <point x="450" y="520"/>
      <point x="311" y="520" type="curve" smooth="yes"/>
      <point x="245" y="520"/>
      <point x="171" y="472"/>
      <point x="171" y="472" type="curve"/>
      <point x="171" y="505" type="line"/>
    </contour>
    <contour>
      <point x="97" y="654" type="curve"/>
      <point x="134" y="600" type="line"/>
      <point x="134" y="600"/>
      <point x="183" y="636"/>
      <point x="209" y="636" type="curve" smooth="yes"/>
      <point x="241" y="636"/>
      <point x="307" y="594"/>
      <point x="348" y="594" type="curve" smooth="yes"/>
      <point x="393" y="594"/>
      <point x="452" y="653"/>
      <point x="457" y="659" type="curve"/>
      <point x="420" y="712" type="line"/>
      <point x="420" y="712"/>
      <point x="369" y="676"/>
      <point x="346" y="676" type="curve" smooth="yes"/>
      <point x="317" y="676"/>
      <point x="248" y="717"/>
      <point x="208" y="717" type="curve" smooth="yes"/>
      <point x="161" y="717"/>
      <point x="97" y="654"/>
    </contour>
  </outline>
</glyph>
<glyph name="otilde" format="2">
  <advance width="533"/>
  <unicode hex="00F5"/>
  <note>
otilde
</note>
  <anchor x="265" y="0" name="bottom"/>
  <anchor x="265" y="253" name="center"/>
  <anchor x="343" y="0" name="ogonek"/>
  <anchor x="265" y="722" name="top"/>
  <anchor x="509" y="505" name="topright"/>
  <outline>
    <contour>
      <point x="266" y="520" type="curve" smooth="yes"/>
      <point x="101" y="520"/>
      <point x="44" y="424"/>
      <point x="44" y="256" type="curve" smooth="yes"/>
      <point x="44" y="84"/>
      <point x="96" y="-11"/>
      <point x="266" y="-11" type="curve" smooth="yes"/>
      <point x="438" y="-11"/>
      <point x="489" y="84"/>
      <point x="489" y="256" type="curve" smooth="yes"/>
      <point x="489" y="424"/>
      <point x="433" y="520"/>
    </contour>
    <contour>
      <point x="86" y="654" type="curve"/>
      <point x="123" y="600" type="line"/>
      <point x="123" y="600"/>
      <point x="172" y="636"/>
      <point x="198" y="636" type="curve" smooth="yes"/>
      <point x="230" y="636"/>
      <point x="296" y="594"/>
      <point x="337" y="594" type="curve" smooth="yes"/>
      <point x="382" y="594"/>
      <point x="441" y="653"/>
      <point x="446" y="659" type="curve"/>
      <point x="409" y="712" type="line"/>
      <point x="409" y="712"/>
      <point x="358" y="676"/>
      <point x="335" y="676" type="curve" smooth="yes"/>
      <point x="306" y="676"/>
      <point x="237" y="717"/>
      <point x="197" y="717" type="curve" smooth="yes"/>
      <point x="150" y="717"/>
      <point x="86" y="654"/>
    </contour>
    <contour>
      <point x="150" y="256" type="curve" smooth="yes"/>
      <point x="150" y="380"/>
      <point x="176" y="431"/>
      <point x="266" y="431" type="curve" smooth="yes"/>
      <point x="358" y="431"/>
      <point x="383" y="380"/>
      <point x="383" y="256" type="curve" smooth="yes"/>
      <point x="383" y="132"/>
      <point x="364" y="78"/>
      <point x="266" y="78" type="curve" smooth="yes"/>
      <point x="170" y="78"/>
      <point x="150" y="132"/>
    </contour>
  </outline>
</glyph>
<glyph name="divide" format="2">
  <advance width="560"/>
  <unicode hex="00F7"/>
  <note>
divide
</note>
  <outline>
    <contour>
      <point x="68" y="327" type="line"/>
      <point x="68" y="236" type="line"/>
      <point x="492" y="236" type="line"/>
      <point x="492" y="327" type="line"/>
    </contour>
    <contour>
      <point x="227" y="163" type="line"/>
      <point x="227" y="53" type="line"/>
      <point x="332" y="53" type="line"/>
      <point x="332" y="163" type="line"/>
    </contour>
    <contour>
      <point x="227" y="509" type="line"/>
      <point x="227" y="399" type="line"/>
      <point x="332" y="399" type="line"/>
      <point x="332" y="509" type="line"/>
    </contour>
  </outline>
</glyph>
<glyph name="ugrave" format="2">
  <advance width="544"/>
  <unicode hex="00F9"/>
  <note>
ugrave
</note>
  <anchor x="272" y="0" name="bottom"/>
  <anchor x="463" y="0" name="ogonek"/>
  <anchor x="260" y="746" name="top"/>
  <anchor x="521" y="505" name="topright"/>
  <outline>
    <contour>
      <point x="476" y="0" type="line"/>
      <point x="476" y="505" type="line"/>
      <point x="372" y="505" type="line"/>
      <point x="372" y="110" type="line"/>
      <point x="372" y="110"/>
      <point x="317" y="80"/>
      <point x="255" y="80" type="curve" smooth="yes"/>
      <point x="175" y="80"/>
      <point x="167" y="122"/>
      <point x="167" y="236" type="curve" smooth="yes"/>
      <point x="167" y="505" type="line"/>
      <point x="63" y="505" type="line"/>
      <point x="63" y="237" type="line" smooth="yes"/>
      <point x="63" y="60"/>
      <point x="93" y="-13"/>
      <point x="236" y="-13" type="curve" smooth="yes"/>
      <point x="299" y="-13"/>
      <point x="372" y="33"/>
      <point x="372" y="33" type="curve"/>
      <point x="372" y="0" type="line"/>
    </contour>
    <contour>
      <point x="156" y="746" type="line"/>
      <point x="124" y="658" type="line"/>
      <point x="373" y="578" type="line"/>
      <point x="397" y="646" type="line"/>
    </contour>
  </outline>
</glyph>
<glyph name="yacute" format="2">
  <advance width="495"/>
  <unicode hex="00FD"/>
  <note>
yacute
</note>
  <anchor x="246" y="0" name="bottom"/>
  <anchor x="263" y="746" name="top"/>
  <outline>
    <contour>
      <point x="236" y="89" type="line"/>
      <point x="124" y="505" type="line"/>
      <point x="22" y="505" type="line"/>
      <point x="158" y="0" type="line"/>
      <point x="238" y="0" type="line"/>
      <point x="175" y="-230" type="line"/>
      <point x="277" y="-230" type="line"/>
      <point x="472" y="505" type="line"/>
      <point x="370" y="505" type="line"/>
      <point x="261" y="89" type="line"/>
    </contour>
    <contour>
      <point x="368" y="746" type="line"/>
      <point x="127" y="646" type="line"/>
      <point x="151" y="578" type="line"/>
      <point x="400" y="658" type="line"/>
    </contour>
  </outline>
</glyph>
<glyph name="thorn" format="2">
  <advance width="537"/>
  <unicode hex="00FE"/>
  <note>
thorn
</note>
  <outline>
    <contour>
      <point x="171" y="730" type="line"/>
      <point x="68" y="730" type="line"/>
      <point x="68" y="-230" type="line"/>
      <point x="172" y="-230" type="line"/>
      <point x="172" y="1" type="line"/>
      <point x="179" y="0"/>
      <point x="223" y="-10"/>
      <point x="276" y="-10" type="curve" smooth="yes"/>
      <point x="418" y="-10"/>
      <point x="492" y="52"/>
      <point x="492" y="260" type="curve" smooth="yes"/>
      <point x="492" y="446"/>
      <point x="427" y="520"/>
      <point x="312" y="520" type="curve" smooth="yes"/>
      <point x="237" y="520"/>
      <point x="171" y="478"/>
      <point x="171" y="478" type="curve"/>
    </contour>
    <contour>
      <point x="172" y="88" type="curve"/>
      <point x="172" y="398" type="line"/>
      <point x="172" y="398"/>
      <point x="230" y="428"/>
      <point x="286" y="428" type="curve" smooth="yes"/>
      <point x="348" y="428"/>
      <point x="386" y="389"/>
      <point x="386" y="260" type="curve" smooth="yes"/>
      <point x="386" y="135"/>
      <point x="358" y="80"/>
      <point x="263" y="80" type="curve" smooth="yes"/>
      <point x="227" y="80"/>
      <point x="178" y="87"/>
    </contour>
  </outline>
</glyph>
<glyph name="ydieresis" format="2">
  <advance width="495"/>
  <unicode hex="00FF"/>
  <note>
ydieresis
</note>
  <anchor x="246" y="0" name="bottom"/>
  <anchor x="246" y="719" name="top"/>
  <outline>
    <contour>
      <point x="236" y="89" type="line"/>
      <point x="124" y="505" type="line"/>
      <point x="22" y="505" type="line"/>
      <point x="158" y="0" type="line"/>
      <point x="238" y="0" type="line"/>
      <point x="175" y="-230" type="line"/>
      <point x="277" y="-230" type="line"/>
      <point x="472" y="505" type="line"/>
      <point x="370" y="505" type="line"/>
      <point x="261" y="89" type="line"/>
    </contour>
    <contour>
      <point x="92" y="715" type="line"/>
      <point x="92" y="606" type="line"/>
      <point x="191" y="606" type="line"/>
      <point x="191" y="715" type="line"/>
    </contour>
    <contour>
      <point x="300" y="715" type="line"/>
      <point x="300" y="606" type="line"/>
      <point x="399" y="606" type="line"/>
      <point x="399" y="715" type="line"/>
    </contour>
  </outline>
</glyph>
<glyph name="Amacron" format="2">
  <advance width="607"/>
  <unicode hex="0100"/>
  <note>
Amacron
</note>
  <anchor x="302" y="0" name="bottom"/>
  <anchor x="586" y="0" name="ogonek"/>
  <anchor x="302" y="875" name="top"/>
  <outline>
    <contour>
      <point x="287" y="612" type="line"/>
      <point x="317" y="612" type="line"/>
      <point x="409" y="266" type="line"/>
      <point x="195" y="266" type="line"/>
    </contour>
    <contour>
      <point x="210" y="705" type="line"/>
      <point x="21" y="0" type="line"/>
      <point x="126" y="0" type="line"/>
      <point x="171" y="173" type="line"/>
      <point x="433" y="173" type="line"/>
      <point x="478" y="0" type="line"/>
      <point x="586" y="0" type="line"/>
      <point x="398" y="705" type="line"/>
    </contour>
    <contour>
      <point x="161" y="875" type="line"/>
      <point x="161" y="796" type="line"/>
      <point x="442" y="796" type="line"/>
      <point x="442" y="875" type="line"/>
    </contour>
  </outline>
</glyph>
<glyph name="Abreve" format="2">
  <advance width="607"/>
  <unicode hex="0102"/>
  <note>
Abreve
</note>
  <anchor x="302" y="0" name="bottom"/>
  <anchor x="586" y="0" name="ogonek"/>
  <anchor x="302" y="915" name="top"/>
  <outline>
    <contour>
      <point x="287" y="612" type="line"/>
      <point x="317" y="612" type="line"/>
      <point x="409" y="266" type="line"/>
      <point x="195" y="266" type="line"/>
    </contour>
    <contour>
      <point x="210" y="705" type="line"/>
      <point x="21" y="0" type="line"/>
      <point x="126" y="0" type="line"/>
      <point x="171" y="173" type="line"/>
      <point x="433" y="173" type="line"/>
      <point x="478" y="0" type="line"/>
      <point x="586" y="0" type="line"/>
      <point x="398" y="705" type="line"/>
    </contour>
    <contour>
      <point x="224" y="920" type="curve"/>
      <point x="144" y="920" type="line"/>
      <point x="148" y="836"/>
      <point x="200" y="767"/>
      <point x="302" y="767" type="curve" smooth="yes"/>
      <point x="405" y="767"/>
      <point x="457" y="836"/>
      <point x="460" y="920" type="curve"/>
      <point x="380" y="920" type="line"/>
      <point x="378" y="871"/>
      <point x="351" y="840"/>
      <point x="302" y="840" type="curve" smooth="yes"/>
      <point x="253" y="840"/>
      <point x="226" y="871"/>
    </contour>
  </outline>
</glyph>
<glyph name="Aogonek" format="2">
  <advance width="607"/>
  <unicode hex="0104"/>
  <note>
Aogonek
</note>
  <anchor x="302" y="0" name="bottom"/>
  <anchor x="586" y="0" name="ogonek"/>
  <anchor x="302" y="705" name="top"/>
  <outline>
    <contour>
      <point x="287" y="612" type="line"/>
      <point x="317" y="612" type="line"/>
      <point x="409" y="266" type="line"/>
      <point x="195" y="266" type="line"/>
    </contour>
    <contour>
      <point x="210" y="705" type="line"/>
      <point x="21" y="0" type="line"/>
      <point x="126" y="0" type="line"/>
      <point x="171" y="173" type="line"/>
      <point x="433" y="173" type="line"/>
      <point x="478" y="0" type="line"/>
      <point x="496" y="0" type="line"/>
      <point x="474" y="-21"/>
      <point x="424" y="-74"/>
      <point x="424" y="-119" type="curve" smooth="yes"/>
      <point x="424" y="-176"/>
      <point x="467" y="-211"/>
      <point x="524" y="-211" type="curve" smooth="yes"/>
      <point x="563" y="-211"/>
      <point x="614" y="-201"/>
      <point x="614" y="-201" type="curve"/>
      <point x="605" y="-125" type="line"/>
      <point x="605" y="-125"/>
      <point x="569" y="-130"/>
      <point x="559" y="-130" type="curve" smooth="yes"/>
      <point x="538" y="-130"/>
      <point x="522" y="-115"/>
      <point x="522" y="-94" type="curve" smooth="yes"/>
      <point x="522" y="-65"/>
      <point x="586" y="0"/>
      <point x="586" y="0" type="curve"/>
      <point x="398" y="705" type="line"/>
    </contour>
  </outline>
</glyph>
<glyph name="aogonek" format="2">
  <advance width="509"/>
  <unicode hex="0105"/>
  <note>
aogonek
</note>
  <anchor x="255" y="0" name="bottom"/>
  <anchor x="469" y="0" name="ogonek"/>
  <anchor x="243" y="505" name="top"/>
  <outline>
    <contour>
      <point x="435" y="112" type="curve" smooth="yes"/>
      <point x="435" y="355" type="line" smooth="yes"/>
      <point x="435" y="468"/>
      <point x="385" y="520"/>
      <point x="263" y="520" type="curve" smooth="yes"/>
      <point x="173" y="520"/>
      <point x="64" y="494"/>
      <point x="64" y="494" type="curve"/>
      <point x="68" y="420" type="line"/>
      <point x="68" y="420"/>
      <point x="188" y="431"/>
      <point x="256" y="431" type="curve" smooth="yes"/>
      <point x="306" y="431"/>
      <point x="331" y="412"/>
      <point x="331" y="355" type="curve" smooth="yes"/>
      <point x="331" y="312" type="line"/>
      <point x="198" y="301" type="line" smooth="yes"/>
      <point x="92" y="292"/>
      <point x="35" y="254"/>
      <point x="35" y="147" type="curve" smooth="yes"/>
      <point x="35" y="42"/>
      <point x="85" y="-13"/>
      <point x="182" y="-13" type="curve" smooth="yes"/>
      <point x="265" y="-13"/>
      <point x="346" y="25"/>
      <point x="346" y="25" type="curve"/>
      <point x="358" y="16"/>
      <point x="369" y="8"/>
      <point x="382" y="3" type="curve"/>
      <point x="362" y="-16"/>
      <point x="307" y="-72"/>
      <point x="307" y="-119" type="curve" smooth="yes"/>
      <point x="307" y="-176"/>
      <point x="350" y="-211"/>
      <point x="407" y="-211" type="curve" smooth="yes"/>
      <point x="446" y="-211"/>
      <point x="497" y="-201"/>
      <point x="497" y="-201" type="curve"/>
      <point x="488" y="-125" type="line"/>
      <point x="488" y="-125"/>
      <point x="452" y="-130"/>
      <point x="442" y="-130" type="curve" smooth="yes"/>
      <point x="421" y="-130"/>
      <point x="405" y="-115"/>
      <point x="405" y="-94" type="curve" smooth="yes"/>
      <point x="405" y="-73"/>
      <point x="439" y="-33"/>
      <point x="457" y="-13" type="curve"/>
      <point x="477" y="-13" type="line"/>
      <point x="481" y="66" type="line"/>
      <point x="451" y="71"/>
      <point x="435" y="82"/>
    </contour>
    <contour>
      <point x="140" y="150" type="curve" smooth="yes"/>
      <point x="140" y="199"/>
      <point x="162" y="222"/>
      <point x="211" y="227" type="curve" smooth="yes"/>
      <point x="331" y="238" type="line"/>
      <point x="331" y="96" type="line"/>
      <point x="331" y="96"/>
      <point x="262" y="72"/>
      <point x="203" y="72" type="curve" smooth="yes"/>
      <point x="159" y="72"/>
      <point x="140" y="101"/>
    </contour>
  </outline>
</glyph>
<glyph name="ccircumflex" format="2">
  <advance width="444"/>
  <unicode hex="0109"/>
  <note>
ccircumflex
</note>
  <anchor x="240" y="0" name="bottom"/>
  <anchor x="249" y="746" name="top"/>
  <outline>
    <contour>
      <point x="256" y="520" type="curve" smooth="yes"/>
      <point x="107" y="520"/>
      <point x="46" y="445"/>
      <point x="46" y="257" type="curve" smooth="yes"/>
      <point x="46" y="63"/>
      <point x="99" y="-13"/>
      <point x="254" y="-13" type="curve" smooth="yes"/>
      <point x="304" y="-13"/>
      <point x="404" y="4"/>
      <point x="404" y="4" type="curve"/>
      <point x="401" y="88" type="line"/>
      <point x="401" y="88"/>
      <point x="322" y="80"/>
      <point x="284" y="80" type="curve" smooth="yes"/>
      <point x="173" y="80"/>
      <point x="153" y="124"/>
      <point x="153" y="257" type="curve" smooth="yes"/>
      <point x="153" y="383"/>
      <point x="177" y="427"/>
      <point x="283" y="427" type="curve" smooth="yes"/>
      <point x="321" y="427"/>
      <point x="400" y="419"/>
      <point x="400" y="419" type="curve"/>
      <point x="404" y="501" type="line"/>
      <point x="404" y="501"/>
      <point x="308" y="520"/>
    </contour>
    <contour>
      <point x="202" y="740" type="line"/>
      <point x="80" y="583" type="line"/>
      <point x="177" y="583" type="line"/>
      <point x="249" y="675" type="line"/>
      <point x="321" y="583" type="line"/>
      <point x="418" y="583" type="line"/>
      <point x="295" y="740" type="line"/>
    </contour>
  </outline>
</glyph>
<glyph name="Emacron" format="2">
  <advance width="555"/>
  <unicode hex="0112"/>
  <note>
Emacron
</note>
  <anchor x="296" y="0" name="bottom"/>
  <anchor x="469" y="0" name="ogonek"/>
  <anchor x="296" y="875" name="top"/>
  <outline>
    <contour>
      <point x="509" y="705" type="line"/>
      <point x="79" y="705" type="line"/>
      <point x="79" y="0" type="line"/>
      <point x="509" y="0" type="line"/>
      <point x="509" y="93" type="line"/>
      <point x="186" y="93" type="line"/>
      <point x="186" y="311" type="line"/>
      <point x="449" y="311" type="line"/>
      <point x="449" y="403" type="line"/>
      <point x="186" y="403" type="line"/>
      <point x="186" y="612" type="line"/>
      <point x="509" y="612" type="line"/>
    </contour>
    <contour>
      <point x="155" y="875" type="line"/>
      <point x="155" y="796" type="line"/>
      <point x="436" y="796" type="line"/>
      <point x="436" y="875" type="line"/>
    </contour>
  </outline>
</glyph>
<glyph name="Ebreve" format="2">
  <advance width="555"/>
  <unicode hex="0114"/>
  <note>
Ebreve
</note>
  <anchor x="296" y="0" name="bottom"/>
  <anchor x="469" y="0" name="ogonek"/>
  <anchor x="296" y="915" name="top"/>
  <outline>
    <contour>
      <point x="509" y="705" type="line"/>
      <point x="79" y="705" type="line"/>
      <point x="79" y="0" type="line"/>
      <point x="509" y="0" type="line"/>
      <point x="509" y="93" type="line"/>
      <point x="186" y="93" type="line"/>
      <point x="186" y="311" type="line"/>
      <point x="449" y="311" type="line"/>
      <point x="449" y="403" type="line"/>
      <point x="186" y="403" type="line"/>
      <point x="186" y="612" type="line"/>
      <point x="509" y="612" type="line"/>
    </contour>
    <contour>
      <point x="218" y="920" type="curve"/>
      <point x="138" y="920" type="line"/>
      <point x="142" y="836"/>
      <point x="194" y="767"/>
      <point x="296" y="767" type="curve" smooth="yes"/>
      <point x="399" y="767"/>
      <point x="451" y="836"/>
      <point x="454" y="920" type="curve"/>
      <point x="374" y="920" type="line"/>
      <point x="372" y="871"/>
      <point x="345" y="840"/>
      <point x="296" y="840" type="curve" smooth="yes"/>
      <point x="247" y="840"/>
      <point x="220" y="871"/>
    </contour>
  </outline>
</glyph>
<glyph name="Edotaccent" format="2">
  <advance width="555"/>
  <unicode hex="0116"/>
  <note>
Edotaccent
</note>
  <anchor x="296" y="0" name="bottom"/>
  <anchor x="469" y="0" name="ogonek"/>
  <anchor x="296" y="910" name="top"/>
  <outline>
    <contour>
      <point x="509" y="705" type="line"/>
      <point x="79" y="705" type="line"/>
      <point x="79" y="0" type="line"/>
      <point x="509" y="0" type="line"/>
      <point x="509" y="93" type="line"/>
      <point x="186" y="93" type="line"/>
      <point x="186" y="311" type="line"/>
      <point x="449" y="311" type="line"/>
      <point x="449" y="403" type="line"/>
      <point x="186" y="403" type="line"/>
      <point x="186" y="612" type="line"/>
      <point x="509" y="612" type="line"/>
    </contour>
    <contour>
      <point x="244" y="910" type="line"/>
      <point x="244" y="791" type="line"/>
      <point x="347" y="791" type="line"/>
      <point x="347" y="910" type="line"/>
    </contour>
  </outline>
</glyph>
<glyph name="Eogonek" format="2">
  <advance width="555"/>
  <unicode hex="0118"/>
  <note>
Eogonek
</note>
  <anchor x="296" y="0" name="bottom"/>
  <anchor x="469" y="0" name="ogonek"/>
  <anchor x="296" y="705" name="top"/>
  <outline>
    <contour>
      <point x="509" y="705" type="line"/>
      <point x="79" y="705" type="line"/>
      <point x="79" y="0" type="line"/>
      <point x="379" y="0" type="line"/>
      <point x="357" y="-21"/>
      <point x="307" y="-74"/>
      <point x="307" y="-119" type="curve" smooth="yes"/>
      <point x="307" y="-176"/>
      <point x="350" y="-211"/>
      <point x="407" y="-211" type="curve" smooth="yes"/>
      <point x="446" y="-211"/>
      <point x="497" y="-201"/>
      <point x="497" y="-201" type="curve"/>
      <point x="488" y="-125" type="line"/>
      <point x="488" y="-125"/>
      <point x="452" y="-130"/>
      <point x="442" y="-130" type="curve" smooth="yes"/>
      <point x="421" y="-130"/>
      <point x="405" y="-115"/>
      <point x="405" y="-94" type="curve" smooth="yes"/>
      <point x="405" y="-65"/>
      <point x="469" y="0"/>
      <point x="469" y="0" type="curve"/>
      <point x="509" y="0" type="line"/>
      <point x="509" y="93" type="line"/>
      <point x="186" y="93" type="line"/>
      <point x="186" y="311" type="line"/>
      <point x="449" y="311" type="line"/>
      <point x="449" y="403" type="line"/>
      <point x="186" y="403" type="line"/>
      <point x="186" y="612" type="line"/>
      <point x="509" y="612" type="line"/>
    </contour>
  </outline>
</glyph>
<glyph name="eogonek" format="2">
  <advance width="510"/>
  <unicode hex="0119"/>
  <note>
eogonek
</note>
  <anchor x="256" y="0" name="bottom"/>
  <anchor x="379" y="0" name="ogonek"/>
  <anchor x="267" y="505" name="top"/>
  <outline>
    <contour>
      <point x="271" y="78" type="curve" smooth="yes"/>
      <point x="171" y="78"/>
      <point x="150" y="119"/>
      <point x="149" y="214" type="curve"/>
      <point x="462" y="214" type="line"/>
      <point x="469" y="289" type="line"/>
      <point x="469" y="447"/>
      <point x="398" y="520"/>
      <point x="262" y="520" type="curve" smooth="yes"/>
      <point x="122" y="520"/>
      <point x="45" y="440"/>
      <point x="45" y="251" type="curve" smooth="yes"/>
      <point x="45" y="69"/>
      <point x="101" y="-13"/>
      <point x="251" y="-13" type="curve" smooth="yes"/>
      <point x="260" y="-13"/>
      <point x="269" y="-13"/>
      <point x="279" y="-12" type="curve"/>
      <point x="254" y="-38"/>
      <point x="219" y="-81"/>
      <point x="219" y="-119" type="curve" smooth="yes"/>
      <point x="219" y="-176"/>
      <point x="262" y="-211"/>
      <point x="319" y="-211" type="curve" smooth="yes"/>
      <point x="358" y="-211"/>
      <point x="409" y="-201"/>
      <point x="409" y="-201" type="curve"/>
      <point x="400" y="-125" type="line"/>
      <point x="400" y="-125"/>
      <point x="364" y="-130"/>
      <point x="354" y="-130" type="curve" smooth="yes"/>
      <point x="333" y="-130"/>
      <point x="317" y="-115"/>
      <point x="317" y="-94" type="curve" smooth="yes"/>
      <point x="317" y="-70"/>
      <point x="361" y="-22"/>
      <point x="376" y="-5" type="curve"/>
      <point x="419" y="-1"/>
      <point x="452" y="4"/>
      <point x="452" y="4" type="curve"/>
      <point x="450" y="82" type="line"/>
      <point x="450" y="82"/>
      <point x="334" y="78"/>
    </contour>
    <contour>
      <point x="366" y="294" type="curve"/>
      <point x="148" y="294" type="line"/>
      <point x="149" y="395"/>
      <point x="185" y="434"/>
      <point x="259" y="434" type="curve" smooth="yes"/>
      <point x="335" y="434"/>
      <point x="366" y="399"/>
    </contour>
  </outline>
</glyph>
<glyph name="Ecaron" format="2">
  <advance width="555"/>
  <unicode hex="011A"/>
  <note>
Ecaron
</note>
  <anchor x="296" y="0" name="bottom"/>
  <anchor x="469" y="0" name="ogonek"/>
  <anchor x="296" y="931" name="top"/>
  <outline>
    <contour>
      <point x="509" y="705" type="line"/>
      <point x="79" y="705" type="line"/>
      <point x="79" y="0" type="line"/>
      <point x="509" y="0" type="line"/>
      <point x="509" y="93" type="line"/>
      <point x="186" y="93" type="line"/>
      <point x="186" y="311" type="line"/>
      <point x="449" y="311" type="line"/>
      <point x="449" y="403" type="line"/>
      <point x="186" y="403" type="line"/>
      <point x="186" y="612" type="line"/>
      <point x="509" y="612" type="line"/>
    </contour>
    <contour>
      <point x="224" y="930" type="line"/>
      <point x="127" y="930" type="line"/>
      <point x="249" y="773" type="line"/>
      <point x="342" y="773" type="line"/>
      <point x="465" y="930" type="line"/>
      <point x="368" y="930" type="line"/>
      <point x="296" y="838" type="line"/>
    </contour>
  </outline>
</glyph>
<glyph name="gcircumflex" format="2">
  <advance width="516"/>
  <unicode hex="011D"/>
  <note>
gcircumflex
</note>
  <anchor x="247" y="-230" name="bottom"/>
  <anchor x="253" y="741" name="top"/>
  <outline>
    <contour>
      <point x="250" y="-241" type="curve" smooth="yes"/>
      <point x="408" y="-241"/>
      <point x="491" y="-197"/>
      <point x="491" y="-63" type="curve" smooth="yes"/>
      <point x="491" y="40"/>
      <point x="442" y="74"/>
      <point x="301" y="75" type="curve" smooth="yes"/>
      <point x="187" y="75"/>
      <point x="177" y="81"/>
      <point x="177" y="115" type="curve" smooth="yes"/>
      <point x="177" y="128"/>
      <point x="191" y="168"/>
      <point x="191" y="168" type="curve"/>
      <point x="201" y="166"/>
      <point x="226" y="164"/>
      <point x="236" y="164" type="curve" smooth="yes"/>
      <point x="369" y="164"/>
      <point x="438" y="201"/>
      <point x="438" y="336" type="curve" smooth="yes"/>
      <point x="438" y="387"/>
      <point x="424" y="414"/>
      <point x="410" y="430" type="curve"/>
      <point x="496" y="427" type="line"/>
      <point x="496" y="511" type="line"/>
      <point x="341" y="507" type="line"/>
      <point x="341" y="507"/>
      <point x="294" y="520"/>
      <point x="237" y="520" type="curve" smooth="yes"/>
      <point x="129" y="520"/>
      <point x="41" y="471"/>
      <point x="41" y="337" type="curve" smooth="yes"/>
      <point x="41" y="246"/>
      <point x="76" y="208"/>
      <point x="114" y="186" type="curve"/>
      <point x="114" y="186"/>
      <point x="78" y="124"/>
      <point x="78" y="102" type="curve" smooth="yes"/>
      <point x="78" y="71"/>
      <point x="90" y="43"/>
      <point x="110" y="29" type="curve"/>
      <point x="59" y="-10"/>
      <point x="35" y="-40"/>
      <point x="35" y="-99" type="curve" smooth="yes"/>
      <point x="35" y="-210"/>
      <point x="121" y="-241"/>
    </contour>
    <contour>
      <point x="206" y="735" type="line"/>
      <point x="84" y="578" type="line"/>
      <point x="181" y="578" type="line"/>
      <point x="253" y="670" type="line"/>
      <point x="325" y="578" type="line"/>
      <point x="422" y="578" type="line"/>
      <point x="299" y="735" type="line"/>
    </contour>
    <contour>
      <point x="137" y="-90" type="curve" smooth="yes"/>
      <point x="137" y="-50"/>
      <point x="149" y="-34"/>
      <point x="179" y="-9" type="curve"/>
      <point x="179" y="-9"/>
      <point x="246" y="-15"/>
      <point x="278" y="-15" type="curve" smooth="yes"/>
      <point x="361" y="-16"/>
      <point x="387" y="-26"/>
      <point x="387" y="-79" type="curve" smooth="yes"/>
      <point x="387" y="-139"/>
      <point x="344" y="-155"/>
      <point x="260" y="-155" type="curve" smooth="yes"/>
      <point x="166" y="-155"/>
      <point x="137" y="-136"/>
    </contour>
    <contour>
      <point x="144" y="339" type="curve" smooth="yes"/>
      <point x="144" y="409"/>
      <point x="172" y="438"/>
      <point x="240" y="438" type="curve" smooth="yes"/>
      <point x="308" y="438"/>
      <point x="335" y="409"/>
      <point x="335" y="339" type="curve" smooth="yes"/>
      <point x="335" y="272"/>
      <point x="309" y="244"/>
      <point x="240" y="244" type="curve" smooth="yes"/>
      <point x="173" y="244"/>
      <point x="144" y="272"/>
    </contour>
  </outline>
</glyph>
<glyph name="Gbreve" format="2">
  <advance width="618"/>
  <unicode hex="011E"/>
  <note>
Gbreve
</note>
  <anchor x="343" y="0" name="bottom"/>
  <anchor x="343" y="915" name="top"/>
  <outline>
    <contour>
      <point x="557" y="359" type="line"/>
      <point x="360" y="359" type="line"/>
      <point x="360" y="266" type="line"/>
      <point x="452" y="266" type="line"/>
      <point x="452" y="90" type="line"/>
      <point x="439" y="87"/>
      <point x="377" y="80"/>
      <point x="332" y="80" type="curve" smooth="yes"/>
      <point x="189" y="80"/>
      <point x="163" y="154"/>
      <point x="163" y="345" type="curve" smooth="yes"/>
      <point x="163" y="555"/>
      <point x="185" y="625"/>
      <point x="331" y="625" type="curve" smooth="yes"/>
      <point x="416" y="625"/>
      <point x="551" y="605"/>
      <point x="551" y="605" type="curve"/>
      <point x="555" y="690" type="line"/>
      <point x="555" y="690"/>
      <point x="419" y="720"/>
      <point x="315" y="720" type="curve" smooth="yes"/>
      <point x="109" y="720"/>
      <point x="53" y="598"/>
      <point x="53" y="345" type="curve" smooth="yes"/>
      <point x="53" y="110"/>
      <point x="105" y="-13"/>
      <point x="322" y="-13" type="curve" smooth="yes"/>
      <point x="406" y="-13"/>
      <point x="546" y="8"/>
      <point x="557" y="11" type="curve"/>
    </contour>
    <contour>
      <point x="265" y="920" type="curve"/>
      <point x="185" y="920" type="line"/>
      <point x="189" y="836"/>
      <point x="241" y="767"/>
      <point x="343" y="767" type="curve" smooth="yes"/>
      <point x="446" y="767"/>
      <point x="498" y="836"/>
      <point x="501" y="920" type="curve"/>
      <point x="421" y="920" type="line"/>
      <point x="419" y="871"/>
      <point x="392" y="840"/>
      <point x="343" y="840" type="curve" smooth="yes"/>
      <point x="294" y="840"/>
      <point x="267" y="871"/>
    </contour>
  </outline>
</glyph>
<glyph name="uni0122" format="2">
  <advance width="618"/>
  <unicode hex="0122"/>
  <note>
uni0122
</note>
  <anchor x="301" y="-250" name="bottom"/>
  <anchor x="343" y="705" name="top"/>
  <outline>
    <contour>
      <point x="557" y="359" type="line"/>
      <point x="360" y="359" type="line"/>
      <point x="360" y="266" type="line"/>
      <point x="452" y="266" type="line"/>
      <point x="452" y="90" type="line"/>
      <point x="439" y="87"/>
      <point x="377" y="80"/>
      <point x="332" y="80" type="curve" smooth="yes"/>
      <point x="189" y="80"/>
      <point x="163" y="154"/>
      <point x="163" y="345" type="curve" smooth="yes"/>
      <point x="163" y="555"/>
      <point x="185" y="625"/>
      <point x="331" y="625" type="curve" smooth="yes"/>
      <point x="416" y="625"/>
      <point x="551" y="605"/>
      <point x="551" y="605" type="curve"/>
      <point x="555" y="690" type="line"/>
      <point x="555" y="690"/>
      <point x="419" y="720"/>
      <point x="315" y="720" type="curve" smooth="yes"/>
      <point x="109" y="720"/>
      <point x="53" y="598"/>
      <point x="53" y="345" type="curve" smooth="yes"/>
      <point x="53" y="110"/>
      <point x="105" y="-13"/>
      <point x="322" y="-13" type="curve" smooth="yes"/>
      <point x="406" y="-13"/>
      <point x="546" y="8"/>
      <point x="557" y="11" type="curve"/>
    </contour>
    <contour>
      <point x="329" y="-73" type="line"/>
      <point x="239" y="-230" type="line"/>
      <point x="297" y="-266" type="line"/>
      <point x="403" y="-122" type="line"/>
    </contour>
  </outline>
</glyph>
<glyph name="Hcircumflex" format="2">
  <advance width="676"/>
  <unicode hex="0124"/>
  <note>
Hcircumflex
</note>
  <anchor x="338" y="0" name="bottom"/>
  <anchor x="338" y="557" name="center"/>
  <anchor x="338" y="925" name="top"/>
  <outline>
    <contour>
      <point x="186" y="310" type="line"/>
      <point x="490" y="310" type="line"/>
      <point x="490" y="0" type="line"/>
      <point x="597" y="0" type="line"/>
      <point x="597" y="705" type="line"/>
      <point x="490" y="705" type="line"/>
      <point x="490" y="405" type="line"/>
      <point x="186" y="405" type="line"/>
      <point x="186" y="705" type="line"/>
      <point x="79" y="705" type="line"/>
      <point x="79" y="0" type="line"/>
      <point x="186" y="0" type="line"/>
    </contour>
    <contour>
      <point x="291" y="930" type="line"/>
      <point x="169" y="773" type="line"/>
      <point x="266" y="773" type="line"/>
      <point x="338" y="865" type="line"/>
      <point x="410" y="773" type="line"/>
      <point x="507" y="773" type="line"/>
      <point x="384" y="930" type="line"/>
    </contour>
  </outline>
</glyph>
